M48
INCH,TZ
T1C0.016
T2C0.030
T3C0.040
T4C0.026
%
G90
G05
T1
X34774Y-47392
X34803Y-51004
X36250Y-47307
X37701Y-47297
X38735Y-46203
X38926Y-47307
X38942Y-50138
X41654Y-48150
X42776Y-48996
X43012Y-47894
X43189Y-49252
X43209Y-48740
X43346Y-46043
X43406Y-50039
X43524Y-47402
X43681Y-49331
X43740Y-50197
X44114Y-45650
X44469Y-46102
X44921Y-50157
X45138Y-46201
X45354Y-50118
X45925Y-46122
X46181Y-48484
X46299Y-46988
X48228Y-48976
X48760Y-48425
X49016Y-49114
X49082Y-46324
X49311Y-50610
X50807Y-40984
X51142Y-41594
X52142Y-43677
X52155Y-47080
X52432Y-48169
X52999Y-48325
X53317Y-48520
X53484Y-47795
X53898Y-47854
X53978Y-47137
X54508Y-49665
X54567Y-43819
X54705Y-47047
X55464Y-47544
X55494Y-48458
X55984Y-43465
X56634Y-49665
X56701Y-48413
X56703Y-48036
X56910Y-49078
X57205Y-47421
X57406Y-49318
X58012Y-48346
X58268Y-44291
X58701Y-49429
X58760Y-47579
T2
X47515Y-45734
X47515Y-46734
X47515Y-47734
X47515Y-48734
X47515Y-49734
X47515Y-50734
X48515Y-45234
X48515Y-51234
X49515Y-45234
X49515Y-51234
X50515Y-45234
X50515Y-51234
X51515Y-45234
X51515Y-51234
X51965Y-46384
X52515Y-45234
X52515Y-51234
X52965Y-46384
X53515Y-45234
X53515Y-51234
X54515Y-45234
X54515Y-51234
X55515Y-45234
X55515Y-51234
X56065Y-46384
X56515Y-45234
X56515Y-51234
X57065Y-46384
X57515Y-45234
X57515Y-51234
X58515Y-45234
X58515Y-51234
X59515Y-45234
X59515Y-51234
T3
X37992Y-41598
X37992Y-42598
X38992Y-41598
X38992Y-42598
X39992Y-41598
X39992Y-42598
X41043Y-45650
X41043Y-46650
X41043Y-47650
X41043Y-48650
X41043Y-49650
X41043Y-50650
X43760Y-41598
X43760Y-42598
X44760Y-41598
X44760Y-42598
X45760Y-41598
X45760Y-42598
X46760Y-41598
X46760Y-42598
X47760Y-41598
X47760Y-42598
X48760Y-41598
X48760Y-42598
X49760Y-41598
X49760Y-42598
X52224Y-41594
X53224Y-41594
X54224Y-41594
X55996Y-41594
X56996Y-41594
X57996Y-41594
X58996Y-41594
T4
X33890Y-44705
X33890Y-51752
X34390Y-44705
X34390Y-51752
X34890Y-44705
X34890Y-51752
X39146Y-51752
X39646Y-51752
X40146Y-51752
X42323Y-47150
X42323Y-47650
X42323Y-48150
X42323Y-48650
X42323Y-49150
X42323Y-52801
X42323Y-53301
X43856Y-44705
X43856Y-51752
X44356Y-44705
X44356Y-51752
X44856Y-44705
X44856Y-51752
X45356Y-44705
X45356Y-51752
X46988Y-46244
X46988Y-46744
X46988Y-47244
X46988Y-47744
X46988Y-48244
X49020Y-44705
X49020Y-51752
X49520Y-44705
X49520Y-51752
X50020Y-44705
X50020Y-51752
X50520Y-44705
X50520Y-51752
X51020Y-44705
X51020Y-51752
X53026Y-51752
X53035Y-44705
X53526Y-51752
X53535Y-44705
X54026Y-51752
X54035Y-44705
X54526Y-51752
X54535Y-44705
X55026Y-51752
X55035Y-44705
X57012Y-44705
X57012Y-51752
X57512Y-44705
X57512Y-51752
X58012Y-44705
X58012Y-51752
X58512Y-44705
X58512Y-51752
X59012Y-44705
X59012Y-51752
T0
M30
