G04 #@! TF.FileFunction,Copper,L1,Top,Signal*
%FSLAX46Y46*%
G04 Gerber Fmt 4.6, Leading zero omitted, Abs format (unit mm)*
G04 Created by KiCad (PCBNEW 4.0.0-stable) date Wednesday, February 03, 2016 'PMt' 01:26:16 PM*
%MOMM*%
G01*
G04 APERTURE LIST*
%ADD10C,0.100000*%
%ADD11C,0.300000*%
%ADD12R,1.000000X1.700000*%
%ADD13R,1.000000X1.600000*%
%ADD14R,0.797560X0.797560*%
%ADD15R,2.032000X1.727200*%
%ADD16O,2.032000X1.727200*%
%ADD17C,1.524000*%
%ADD18C,1.500000*%
%ADD19R,0.400000X2.100000*%
%ADD20R,0.650000X1.060000*%
%ADD21R,0.500000X0.600000*%
%ADD22R,0.600000X0.500000*%
%ADD23R,0.400000X0.600000*%
%ADD24R,0.600000X0.400000*%
%ADD25R,1.500000X1.500000*%
%ADD26R,1.727200X1.727200*%
%ADD27O,1.727200X1.727200*%
%ADD28R,1.727200X2.032000*%
%ADD29O,1.727200X2.032000*%
%ADD30R,1.900000X1.900000*%
%ADD31R,1.900000X1.800000*%
%ADD32R,1.600000X2.100000*%
%ADD33R,1.350000X0.400000*%
%ADD34R,0.450000X1.750000*%
%ADD35C,0.600000*%
%ADD36C,0.250000*%
%ADD37C,0.152400*%
%ADD38C,0.254000*%
G04 APERTURE END LIST*
D10*
D11*
X101200000Y-122350000D02*
X101200000Y-120350000D01*
D12*
X147325000Y-119245000D03*
X147325000Y-125545000D03*
X151125000Y-125545000D03*
X151125000Y-119245000D03*
D10*
G36*
X133108666Y-124300445D02*
X132719757Y-123911536D01*
X133851128Y-122780165D01*
X134240037Y-123169074D01*
X133108666Y-124300445D01*
X133108666Y-124300445D01*
G37*
G36*
X133674352Y-124866130D02*
X133285443Y-124477221D01*
X134416814Y-123345850D01*
X134805723Y-123734759D01*
X133674352Y-124866130D01*
X133674352Y-124866130D01*
G37*
G36*
X134240037Y-125431816D02*
X133851128Y-125042907D01*
X134982499Y-123911536D01*
X135371408Y-124300445D01*
X134240037Y-125431816D01*
X134240037Y-125431816D01*
G37*
G36*
X134805722Y-125997501D02*
X134416813Y-125608592D01*
X135548184Y-124477221D01*
X135937093Y-124866130D01*
X134805722Y-125997501D01*
X134805722Y-125997501D01*
G37*
G36*
X135371408Y-126563187D02*
X134982499Y-126174278D01*
X136113870Y-125042907D01*
X136502779Y-125431816D01*
X135371408Y-126563187D01*
X135371408Y-126563187D01*
G37*
G36*
X135937093Y-127128872D02*
X135548184Y-126739963D01*
X136679555Y-125608592D01*
X137068464Y-125997501D01*
X135937093Y-127128872D01*
X135937093Y-127128872D01*
G37*
G36*
X136502779Y-127694557D02*
X136113870Y-127305648D01*
X137245241Y-126174277D01*
X137634150Y-126563186D01*
X136502779Y-127694557D01*
X136502779Y-127694557D01*
G37*
G36*
X137068464Y-128260243D02*
X136679555Y-127871334D01*
X137810926Y-126739963D01*
X138199835Y-127128872D01*
X137068464Y-128260243D01*
X137068464Y-128260243D01*
G37*
G36*
X140250445Y-127871334D02*
X139861536Y-128260243D01*
X138730165Y-127128872D01*
X139119074Y-126739963D01*
X140250445Y-127871334D01*
X140250445Y-127871334D01*
G37*
G36*
X140816130Y-127305648D02*
X140427221Y-127694557D01*
X139295850Y-126563186D01*
X139684759Y-126174277D01*
X140816130Y-127305648D01*
X140816130Y-127305648D01*
G37*
G36*
X141381816Y-126739963D02*
X140992907Y-127128872D01*
X139861536Y-125997501D01*
X140250445Y-125608592D01*
X141381816Y-126739963D01*
X141381816Y-126739963D01*
G37*
G36*
X141947501Y-126174278D02*
X141558592Y-126563187D01*
X140427221Y-125431816D01*
X140816130Y-125042907D01*
X141947501Y-126174278D01*
X141947501Y-126174278D01*
G37*
G36*
X142513187Y-125608592D02*
X142124278Y-125997501D01*
X140992907Y-124866130D01*
X141381816Y-124477221D01*
X142513187Y-125608592D01*
X142513187Y-125608592D01*
G37*
G36*
X143078872Y-125042907D02*
X142689963Y-125431816D01*
X141558592Y-124300445D01*
X141947501Y-123911536D01*
X143078872Y-125042907D01*
X143078872Y-125042907D01*
G37*
G36*
X143644557Y-124477221D02*
X143255648Y-124866130D01*
X142124277Y-123734759D01*
X142513186Y-123345850D01*
X143644557Y-124477221D01*
X143644557Y-124477221D01*
G37*
G36*
X144210243Y-123911536D02*
X143821334Y-124300445D01*
X142689963Y-123169074D01*
X143078872Y-122780165D01*
X144210243Y-123911536D01*
X144210243Y-123911536D01*
G37*
G36*
X143078872Y-122249835D02*
X142689963Y-121860926D01*
X143821334Y-120729555D01*
X144210243Y-121118464D01*
X143078872Y-122249835D01*
X143078872Y-122249835D01*
G37*
G36*
X142513186Y-121684150D02*
X142124277Y-121295241D01*
X143255648Y-120163870D01*
X143644557Y-120552779D01*
X142513186Y-121684150D01*
X142513186Y-121684150D01*
G37*
G36*
X141947501Y-121118464D02*
X141558592Y-120729555D01*
X142689963Y-119598184D01*
X143078872Y-119987093D01*
X141947501Y-121118464D01*
X141947501Y-121118464D01*
G37*
G36*
X141381816Y-120552779D02*
X140992907Y-120163870D01*
X142124278Y-119032499D01*
X142513187Y-119421408D01*
X141381816Y-120552779D01*
X141381816Y-120552779D01*
G37*
G36*
X140816130Y-119987093D02*
X140427221Y-119598184D01*
X141558592Y-118466813D01*
X141947501Y-118855722D01*
X140816130Y-119987093D01*
X140816130Y-119987093D01*
G37*
G36*
X140250445Y-119421408D02*
X139861536Y-119032499D01*
X140992907Y-117901128D01*
X141381816Y-118290037D01*
X140250445Y-119421408D01*
X140250445Y-119421408D01*
G37*
G36*
X139684759Y-118855723D02*
X139295850Y-118466814D01*
X140427221Y-117335443D01*
X140816130Y-117724352D01*
X139684759Y-118855723D01*
X139684759Y-118855723D01*
G37*
G36*
X139119074Y-118290037D02*
X138730165Y-117901128D01*
X139861536Y-116769757D01*
X140250445Y-117158666D01*
X139119074Y-118290037D01*
X139119074Y-118290037D01*
G37*
G36*
X138199835Y-117901128D02*
X137810926Y-118290037D01*
X136679555Y-117158666D01*
X137068464Y-116769757D01*
X138199835Y-117901128D01*
X138199835Y-117901128D01*
G37*
G36*
X137634150Y-118466814D02*
X137245241Y-118855723D01*
X136113870Y-117724352D01*
X136502779Y-117335443D01*
X137634150Y-118466814D01*
X137634150Y-118466814D01*
G37*
G36*
X137068464Y-119032499D02*
X136679555Y-119421408D01*
X135548184Y-118290037D01*
X135937093Y-117901128D01*
X137068464Y-119032499D01*
X137068464Y-119032499D01*
G37*
G36*
X136502779Y-119598184D02*
X136113870Y-119987093D01*
X134982499Y-118855722D01*
X135371408Y-118466813D01*
X136502779Y-119598184D01*
X136502779Y-119598184D01*
G37*
G36*
X135937093Y-120163870D02*
X135548184Y-120552779D01*
X134416813Y-119421408D01*
X134805722Y-119032499D01*
X135937093Y-120163870D01*
X135937093Y-120163870D01*
G37*
G36*
X135371408Y-120729555D02*
X134982499Y-121118464D01*
X133851128Y-119987093D01*
X134240037Y-119598184D01*
X135371408Y-120729555D01*
X135371408Y-120729555D01*
G37*
G36*
X134805723Y-121295241D02*
X134416814Y-121684150D01*
X133285443Y-120552779D01*
X133674352Y-120163870D01*
X134805723Y-121295241D01*
X134805723Y-121295241D01*
G37*
G36*
X134240037Y-121860926D02*
X133851128Y-122249835D01*
X132719757Y-121118464D01*
X133108666Y-120729555D01*
X134240037Y-121860926D01*
X134240037Y-121860926D01*
G37*
D13*
X89150000Y-115800000D03*
X92150000Y-115800000D03*
X125575000Y-125975000D03*
X128575000Y-125975000D03*
X125575000Y-118775000D03*
X128575000Y-118775000D03*
D14*
X130225000Y-123254300D03*
X130225000Y-121755700D03*
X146925700Y-117375000D03*
X148424300Y-117375000D03*
X97099300Y-129550000D03*
X95600700Y-129550000D03*
X92400700Y-129550000D03*
X93899300Y-129550000D03*
D15*
X104250000Y-128650000D03*
D16*
X104250000Y-126110000D03*
X104250000Y-123570000D03*
X104250000Y-121030000D03*
X104250000Y-118490000D03*
X104250000Y-115950000D03*
D17*
X120689000Y-128864000D03*
X120689000Y-126324000D03*
X120689000Y-123784000D03*
X120689000Y-121244000D03*
X120689000Y-118704000D03*
X120689000Y-116164000D03*
X123229000Y-130134000D03*
X125769000Y-130134000D03*
X128309000Y-130134000D03*
X130849000Y-130134000D03*
X133389000Y-130134000D03*
X135929000Y-130134000D03*
X138469000Y-130134000D03*
X141009000Y-130134000D03*
X143549000Y-130134000D03*
X146089000Y-130134000D03*
X148629000Y-130134000D03*
X151169000Y-130134000D03*
X123229000Y-114894000D03*
X125769000Y-114894000D03*
X128309000Y-114894000D03*
X130849000Y-114894000D03*
X133389000Y-114894000D03*
X135929000Y-114894000D03*
X138469000Y-114894000D03*
X141009000Y-114894000D03*
X143549000Y-114894000D03*
X146089000Y-114894000D03*
X148629000Y-114894000D03*
X151169000Y-114894000D03*
D18*
X131992000Y-117815000D03*
X134532000Y-117815000D03*
X142406000Y-117815000D03*
X144946000Y-117815000D03*
D19*
X132475000Y-126975000D03*
X133675000Y-126975000D03*
X131275000Y-126975000D03*
D20*
X128625000Y-121275000D03*
X127675000Y-121275000D03*
X126725000Y-121275000D03*
X126725000Y-123475000D03*
X128625000Y-123475000D03*
D21*
X145475000Y-122925000D03*
X145475000Y-121825000D03*
X123875000Y-118225000D03*
X123875000Y-119325000D03*
D22*
X131425000Y-124775000D03*
X130325000Y-124775000D03*
X97250000Y-115800000D03*
X96150000Y-115800000D03*
X90950000Y-128000000D03*
X89850000Y-128000000D03*
X148625000Y-127375000D03*
X147525000Y-127375000D03*
D23*
X150025000Y-127375000D03*
X150925000Y-127375000D03*
X99550000Y-129550000D03*
X98650000Y-129550000D03*
X151125000Y-117375000D03*
X150225000Y-117375000D03*
X89950000Y-129550000D03*
X90850000Y-129550000D03*
D24*
X125115000Y-122055000D03*
X125115000Y-122955000D03*
D25*
X101200000Y-122350000D03*
X101200000Y-120350000D03*
X101200000Y-124350000D03*
D26*
X96500000Y-108200000D03*
D27*
X96500000Y-105660000D03*
X99040000Y-108200000D03*
X99040000Y-105660000D03*
X101580000Y-108200000D03*
X101580000Y-105660000D03*
D28*
X132650000Y-105650000D03*
D29*
X135190000Y-105650000D03*
X137730000Y-105650000D03*
D26*
X111150000Y-108200000D03*
D27*
X111150000Y-105660000D03*
X113690000Y-108200000D03*
X113690000Y-105660000D03*
X116230000Y-108200000D03*
X116230000Y-105660000D03*
X118770000Y-108200000D03*
X118770000Y-105660000D03*
X121310000Y-108200000D03*
X121310000Y-105660000D03*
X123850000Y-108200000D03*
X123850000Y-105660000D03*
X126390000Y-108200000D03*
X126390000Y-105660000D03*
D28*
X149850000Y-105650000D03*
D29*
X147310000Y-105650000D03*
X144770000Y-105650000D03*
X142230000Y-105650000D03*
D30*
X83975000Y-121150000D03*
X83975000Y-123550000D03*
D31*
X83975000Y-118550000D03*
X83975000Y-126150000D03*
D32*
X86525000Y-125450000D03*
D33*
X86650000Y-121050000D03*
X86650000Y-121700000D03*
X86650000Y-122349100D03*
X86650000Y-123000000D03*
X86650000Y-123650000D03*
D32*
X86525000Y-119250000D03*
D34*
X98575000Y-118750000D03*
X97925000Y-118750000D03*
X97275000Y-118750000D03*
X96625000Y-118750000D03*
X95975000Y-118750000D03*
X95325000Y-118750000D03*
X94675000Y-118750000D03*
X94025000Y-118750000D03*
X93375000Y-118750000D03*
X92725000Y-118750000D03*
X92075000Y-118750000D03*
X91425000Y-118750000D03*
X90775000Y-118750000D03*
X90125000Y-118750000D03*
X90125000Y-125950000D03*
X90775000Y-125950000D03*
X91425000Y-125950000D03*
X92075000Y-125950000D03*
X92725000Y-125950000D03*
X93375000Y-125950000D03*
X94025000Y-125950000D03*
X94675000Y-125950000D03*
X95325000Y-125950000D03*
X95975000Y-125950000D03*
X96625000Y-125950000D03*
X97275000Y-125950000D03*
X97925000Y-125950000D03*
X98575000Y-125950000D03*
D35*
X144026800Y-122012300D03*
X140878100Y-120761100D03*
X132440000Y-110940000D03*
X122500000Y-124400000D03*
X117300000Y-123150000D03*
X138950000Y-119500000D03*
X145300000Y-120450000D03*
X136900000Y-121550000D03*
X149100000Y-125550000D03*
X149250000Y-120850000D03*
X147350000Y-122800000D03*
X124667600Y-117663000D03*
X98387400Y-117355500D03*
X138450000Y-126150000D03*
X143850000Y-126150000D03*
X140954000Y-123082200D03*
X98912700Y-127350000D03*
X88324700Y-120375600D03*
X88400000Y-129550000D03*
X129900000Y-105650000D03*
X92075000Y-120159500D03*
X110550000Y-120400000D03*
X117600000Y-119350000D03*
X123850000Y-123000000D03*
X125250000Y-128550000D03*
X135850000Y-121400000D03*
X98872700Y-120160600D03*
X105800000Y-122300000D03*
X124500000Y-124750000D03*
X95761800Y-120135600D03*
X132474700Y-119584000D03*
X109250000Y-121650000D03*
X110100000Y-116950000D03*
X109750000Y-123800000D03*
X115200000Y-127300000D03*
X133178400Y-122349100D03*
X114100000Y-127400000D03*
X108650000Y-124450000D03*
X112050000Y-115950000D03*
X134617600Y-122744700D03*
X110950000Y-125300000D03*
X135425400Y-123241900D03*
X109700000Y-125100000D03*
X112950000Y-117100000D03*
X111100000Y-127500000D03*
X110250000Y-127100000D03*
X114650000Y-117350000D03*
X116650000Y-117150000D03*
X138600000Y-111300000D03*
X144020300Y-122970100D03*
X129050000Y-104100000D03*
X148000000Y-112500000D03*
X144551200Y-124657500D03*
X142200000Y-110400000D03*
X145812300Y-125267600D03*
X137104000Y-119727500D03*
D36*
X140878100Y-120667500D02*
X140878100Y-120761100D01*
X141753000Y-119792600D02*
X140878100Y-120667500D01*
X144899700Y-122885200D02*
X144026800Y-122012300D01*
X144899700Y-122925000D02*
X144899700Y-122885200D01*
X145475000Y-122925000D02*
X144899700Y-122925000D01*
X127700000Y-113250000D02*
X127700000Y-112450000D01*
X125769000Y-114894000D02*
X127044000Y-114894000D01*
X127700000Y-113900000D02*
X127700000Y-113850000D01*
X127350000Y-114250000D02*
X127700000Y-113900000D01*
X127050000Y-114250000D02*
X127350000Y-114250000D01*
X127050000Y-114888000D02*
X127050000Y-114250000D01*
X127044000Y-114894000D02*
X127050000Y-114888000D01*
D37*
X127700000Y-113250000D02*
X127700000Y-113850000D01*
D36*
X132130000Y-111250000D02*
X132440000Y-110940000D01*
X128900000Y-111250000D02*
X132130000Y-111250000D01*
X127700000Y-112450000D02*
X128900000Y-111250000D01*
X119750000Y-121900000D02*
X119600000Y-121900000D01*
X120050000Y-122200000D02*
X119750000Y-121900000D01*
X120050000Y-122650000D02*
X120050000Y-122200000D01*
X121300000Y-122650000D02*
X120050000Y-122650000D01*
X122000000Y-123350000D02*
X121300000Y-122650000D01*
X122000000Y-123900000D02*
X122000000Y-123350000D01*
X122500000Y-124400000D02*
X122000000Y-123900000D01*
D37*
X119000000Y-121900000D02*
X119600000Y-121900000D01*
D36*
X118550000Y-121900000D02*
X119000000Y-121900000D01*
X117300000Y-123150000D02*
X118550000Y-121900000D01*
X145475000Y-121825000D02*
X145475000Y-120625000D01*
X140364314Y-120050000D02*
X141187361Y-119226953D01*
X139500000Y-120050000D02*
X140364314Y-120050000D01*
X138950000Y-119500000D02*
X139500000Y-120050000D01*
X145475000Y-120625000D02*
X145300000Y-120450000D01*
X151125000Y-125545000D02*
X151125000Y-119245000D01*
X147525000Y-127375000D02*
X146775000Y-127375000D01*
X146450000Y-122800000D02*
X145475000Y-121825000D01*
X146450000Y-127050000D02*
X146450000Y-122800000D01*
X146775000Y-127375000D02*
X146450000Y-127050000D01*
X145475000Y-121825000D02*
X151125000Y-121825000D01*
X151125000Y-121825000D02*
X151125000Y-119245000D01*
X132475000Y-126287300D02*
X132475000Y-125635900D01*
X132475000Y-126975000D02*
X132475000Y-126287300D01*
X132475000Y-125635900D02*
X132475000Y-125599700D01*
X132643500Y-125467400D02*
X133815600Y-125467400D01*
X132475000Y-125635900D02*
X132643500Y-125467400D01*
X134611300Y-124671700D02*
X133815600Y-125467400D01*
X135742600Y-125803000D02*
X136538300Y-125007300D01*
X134611300Y-124671700D02*
X135407000Y-123876000D01*
X136538300Y-125007300D02*
X136538300Y-123876000D01*
X135407000Y-123876000D02*
X136538300Y-123876000D01*
X151125000Y-119245000D02*
X151125000Y-117375000D01*
X128575000Y-118775000D02*
X127749700Y-118775000D01*
X126114800Y-114894000D02*
X125769000Y-114894000D01*
X126114800Y-117140100D02*
X127749700Y-118775000D01*
X126114800Y-114894000D02*
X126114800Y-117140100D01*
X125815600Y-122130300D02*
X127675000Y-122130300D01*
X125740300Y-122055000D02*
X125815600Y-122130300D01*
X125115000Y-122055000D02*
X125740300Y-122055000D01*
X136538400Y-123876000D02*
X136538300Y-123876000D01*
X141187400Y-119227000D02*
X136538400Y-123876000D01*
X127675000Y-121275000D02*
X127675000Y-122017700D01*
X127675000Y-122017700D02*
X127675000Y-122130300D01*
X128575000Y-118775000D02*
X128575000Y-119900300D01*
X129275400Y-121966900D02*
X129275400Y-121019600D01*
X129112000Y-122130300D02*
X129275400Y-121966900D01*
X127675000Y-122130300D02*
X129112000Y-122130300D01*
X128750200Y-119900300D02*
X128575000Y-119900300D01*
X129275400Y-120425500D02*
X128750200Y-119900300D01*
X129275400Y-121019600D02*
X129275400Y-120425500D01*
X120689000Y-128850000D02*
X120689000Y-128864000D01*
X121686000Y-127853000D02*
X120689000Y-128850000D01*
X120689000Y-126856000D02*
X121686000Y-127853000D01*
X120689000Y-126324000D02*
X120689000Y-126856000D01*
X121686000Y-127853000D02*
X128575000Y-127853000D01*
X128575000Y-127860000D02*
X128575000Y-127853000D01*
X130849000Y-130134000D02*
X128575000Y-127860000D01*
X128575000Y-127853000D02*
X128575000Y-125975000D01*
X132066100Y-122315100D02*
X132066100Y-125350200D01*
X130770600Y-121019600D02*
X132066100Y-122315100D01*
X129275400Y-121019600D02*
X130770600Y-121019600D01*
X132315600Y-125599700D02*
X132475000Y-125599700D01*
X132066100Y-125350200D02*
X132315600Y-125599700D01*
X132066000Y-125350300D02*
X130325000Y-125350300D01*
X132066100Y-125350200D02*
X132066000Y-125350300D01*
X130325000Y-124775000D02*
X130325000Y-125062600D01*
X130325000Y-125062600D02*
X130325000Y-125350300D01*
X130312700Y-125062600D02*
X129400300Y-125975000D01*
X130325000Y-125062600D02*
X130312700Y-125062600D01*
X128575000Y-125975000D02*
X129400300Y-125975000D01*
X147325000Y-125545000D02*
X149095000Y-125545000D01*
X136900000Y-121550000D02*
X135176953Y-119826953D01*
X149095000Y-125545000D02*
X149100000Y-125550000D01*
X135176953Y-119826953D02*
X135176953Y-119792639D01*
X147325000Y-125545000D02*
X147325000Y-122825000D01*
X149250000Y-120850000D02*
X147645000Y-119245000D01*
X147325000Y-122825000D02*
X147350000Y-122800000D01*
X147645000Y-119245000D02*
X147325000Y-119245000D01*
X128309000Y-114894000D02*
X128884800Y-114894000D01*
X147325000Y-119245000D02*
X147649900Y-118920100D01*
X135177000Y-119792600D02*
X134381300Y-118996900D01*
X150925000Y-127375000D02*
X151187700Y-127375000D01*
X150533000Y-126720300D02*
X147325000Y-126720300D01*
X151187700Y-127375000D02*
X150533000Y-126720300D01*
X147325000Y-125545000D02*
X147325000Y-126720300D01*
X124450300Y-117880300D02*
X124667600Y-117663000D01*
X124450300Y-118225000D02*
X124450300Y-117880300D01*
X123875000Y-118225000D02*
X124450300Y-118225000D01*
X128884800Y-116230500D02*
X128884800Y-114894000D01*
X131551200Y-118896900D02*
X128884800Y-116230500D01*
X134281300Y-118896900D02*
X131551200Y-118896900D01*
X134381300Y-118996900D02*
X134281300Y-118896900D01*
X123875000Y-119325000D02*
X123299700Y-119325000D01*
X123299700Y-119325000D02*
X123299700Y-118774700D01*
X123299700Y-118774700D02*
X120689000Y-116164000D01*
X98193200Y-117549700D02*
X98387400Y-117355500D01*
X97925000Y-117549700D02*
X98193200Y-117549700D01*
X97925000Y-118750000D02*
X97925000Y-117549700D01*
X96500000Y-105660000D02*
X96500000Y-105000000D01*
X96500000Y-105000000D02*
X99700000Y-101800000D01*
X99700000Y-101800000D02*
X131340000Y-101800000D01*
X131340000Y-101800000D02*
X135190000Y-105650000D01*
X125575000Y-125975000D02*
X122880000Y-125975000D01*
X122880000Y-125975000D02*
X120689000Y-123784000D01*
X148625000Y-127375000D02*
X148625000Y-127981698D01*
X140954000Y-123646000D02*
X140954000Y-123082200D01*
X138450000Y-126150000D02*
X140954000Y-123646000D01*
X143850000Y-126415602D02*
X143850000Y-126150000D01*
X145441096Y-128006698D02*
X143850000Y-126415602D01*
X148600000Y-128006698D02*
X145441096Y-128006698D01*
X148625000Y-127981698D02*
X148600000Y-128006698D01*
X130949100Y-123723800D02*
X130949100Y-123254300D01*
X131425000Y-124199700D02*
X130949100Y-123723800D01*
X131425000Y-124775000D02*
X131425000Y-124199700D01*
X130225000Y-123254300D02*
X130949100Y-123254300D01*
X134381300Y-126052900D02*
X134381300Y-126033100D01*
X135492800Y-127164400D02*
X134381300Y-126052900D01*
X135512600Y-127164400D02*
X135492800Y-127164400D01*
X136308300Y-126368700D02*
X135512600Y-127164400D01*
X135177000Y-125237400D02*
X134381300Y-126033100D01*
X125575000Y-125975000D02*
X126400300Y-125975000D01*
X130225000Y-123254300D02*
X129500900Y-123254300D01*
X128045000Y-124330300D02*
X128625000Y-124330300D01*
X126400300Y-125975000D02*
X128045000Y-124330300D01*
X129280200Y-123475000D02*
X129500900Y-123254300D01*
X128625000Y-123475000D02*
X129280200Y-123475000D01*
X128625000Y-123475000D02*
X128625000Y-124330300D01*
X140954000Y-122854400D02*
X140954000Y-123082200D01*
X142884400Y-120924000D02*
X140954000Y-122854400D01*
X139594800Y-123082200D02*
X136308300Y-126368700D01*
X140954000Y-123082200D02*
X139594800Y-123082200D01*
X120689000Y-123792000D02*
X120689000Y-123784000D01*
X120681000Y-123800000D02*
X120689000Y-123792000D01*
X150025000Y-127375000D02*
X148625000Y-127375000D01*
X101200000Y-120350000D02*
X101200000Y-119274700D01*
X97875300Y-115950000D02*
X101200000Y-119274700D01*
X97875300Y-115800000D02*
X97875300Y-115950000D01*
X91425000Y-123188100D02*
X91425000Y-125950000D01*
X89528500Y-121291600D02*
X91425000Y-123188100D01*
X89528500Y-117277300D02*
X89528500Y-121291600D01*
X91324600Y-115481200D02*
X89528500Y-117277300D01*
X91324600Y-114801200D02*
X91324600Y-115481200D01*
X91451200Y-114674600D02*
X91324600Y-114801200D01*
X96699900Y-114674600D02*
X91451200Y-114674600D01*
X97250000Y-115224700D02*
X96699900Y-114674600D01*
X97250000Y-115800000D02*
X97875300Y-115800000D01*
X97250000Y-115800000D02*
X97250000Y-115224700D01*
X94025000Y-125950000D02*
X94025000Y-124749700D01*
X92075000Y-124749700D02*
X94025000Y-124749700D01*
X92075000Y-125950000D02*
X92075000Y-124749700D01*
X89850000Y-128000000D02*
X89850000Y-127712300D01*
X86650000Y-123650000D02*
X87650300Y-123650000D01*
X92075000Y-125950000D02*
X92075000Y-127150300D01*
X89850000Y-127712300D02*
X89850000Y-127287500D01*
X87650300Y-125087800D02*
X89850000Y-127287500D01*
X87650300Y-123650000D02*
X87650300Y-125087800D01*
X91937800Y-127287500D02*
X92075000Y-127150300D01*
X89850000Y-127287500D02*
X91937800Y-127287500D01*
X94675000Y-119350100D02*
X94675000Y-119950300D01*
X96625000Y-125950000D02*
X96625000Y-124749700D01*
X96400000Y-124749700D02*
X96625000Y-124749700D01*
X95212500Y-123562200D02*
X96400000Y-124749700D01*
X94675000Y-123024700D02*
X95212500Y-123562200D01*
X94675000Y-119950300D02*
X94675000Y-123024700D01*
X95212500Y-123562200D02*
X94025000Y-124749700D01*
X97275000Y-125950000D02*
X97275000Y-126550100D01*
X96625000Y-125950000D02*
X96625000Y-127150300D01*
X97711900Y-127350000D02*
X98912700Y-127350000D01*
X97275000Y-126913100D02*
X97711900Y-127350000D01*
X97275000Y-126550100D02*
X97275000Y-126913100D01*
X97037800Y-127150300D02*
X96625000Y-127150300D01*
X97275000Y-126913100D02*
X97037800Y-127150300D01*
X94675000Y-119350100D02*
X94675000Y-118750000D01*
X96150000Y-115800000D02*
X96150000Y-116375300D01*
X94675000Y-118750000D02*
X94675000Y-117662300D01*
X92150000Y-115800000D02*
X92975300Y-115800000D01*
X95025600Y-117499700D02*
X96150000Y-116375300D01*
X94675000Y-117499700D02*
X95025600Y-117499700D01*
X94675000Y-117662300D02*
X94675000Y-117499700D01*
X94675000Y-117499700D02*
X92975300Y-115800000D01*
D37*
X89950000Y-129550000D02*
X88400000Y-129550000D01*
D36*
X93375000Y-125950000D02*
X93375000Y-127150300D01*
X101200000Y-124350000D02*
X101200000Y-125425300D01*
X99550000Y-127075300D02*
X99550000Y-129550000D01*
X101200000Y-125425300D02*
X99550000Y-127075300D01*
X99550000Y-129550000D02*
X99550000Y-130175300D01*
X88324700Y-120375600D02*
X87650300Y-121050000D01*
X86650000Y-121050000D02*
X87650300Y-121050000D01*
X88324700Y-115800000D02*
X88324700Y-120375600D01*
X89150000Y-115800000D02*
X88324700Y-115800000D01*
X89950000Y-129550000D02*
X89950000Y-129331700D01*
X93375000Y-127150300D02*
X92719400Y-127805900D01*
X99451100Y-130274200D02*
X99550000Y-130175300D01*
X93328000Y-130274200D02*
X99451100Y-130274200D01*
X93175100Y-130121300D02*
X93328000Y-130274200D01*
X93175100Y-128261600D02*
X93175100Y-130121300D01*
X92719400Y-127805900D02*
X93175100Y-128261600D01*
X91769400Y-127805900D02*
X91575300Y-128000000D01*
X92719400Y-127805900D02*
X91769400Y-127805900D01*
X90950000Y-128000000D02*
X91575300Y-128000000D01*
X90950000Y-128000000D02*
X90950000Y-128575300D01*
X89950000Y-129331700D02*
X89950000Y-128750000D01*
X90775300Y-128750000D02*
X90950000Y-128575300D01*
X89950000Y-128750000D02*
X90775300Y-128750000D01*
X129900000Y-105650000D02*
X132650000Y-105650000D01*
X125575000Y-117240000D02*
X123229000Y-114894000D01*
X125575000Y-118775000D02*
X125575000Y-117240000D01*
X126205600Y-119900300D02*
X125575000Y-119900300D01*
X126725000Y-120419700D02*
X126205600Y-119900300D01*
X126725000Y-121275000D02*
X126725000Y-120419700D01*
X125575000Y-118775000D02*
X125575000Y-119900300D01*
X128625000Y-120419700D02*
X126725000Y-120419700D01*
X128625000Y-121275000D02*
X128625000Y-120419700D01*
X129361100Y-122619600D02*
X130225000Y-121755700D01*
X126075700Y-122619600D02*
X129361100Y-122619600D01*
X125740300Y-122955000D02*
X126075700Y-122619600D01*
X125115000Y-122955000D02*
X125740300Y-122955000D01*
X145450000Y-113250000D02*
X145450000Y-110600000D01*
X144800000Y-114250000D02*
X145150000Y-114250000D01*
X144756000Y-114894000D02*
X144800000Y-114850000D01*
X144800000Y-114850000D02*
X144800000Y-114250000D01*
X143549000Y-114894000D02*
X144756000Y-114894000D01*
X145450000Y-113950000D02*
X145450000Y-113850000D01*
X145150000Y-114250000D02*
X145450000Y-113950000D01*
D37*
X145450000Y-113250000D02*
X145450000Y-113850000D01*
D36*
X144500000Y-109650000D02*
X144500000Y-109600000D01*
X144450000Y-109600000D02*
X144500000Y-109650000D01*
X145450000Y-110600000D02*
X144450000Y-109600000D01*
X125150000Y-106900000D02*
X125150000Y-109000000D01*
X125150000Y-109000000D02*
X125750000Y-109600000D01*
X125750000Y-109600000D02*
X144500000Y-109600000D01*
X99040000Y-108200000D02*
X99600000Y-108200000D01*
X99600000Y-108200000D02*
X100900000Y-106900000D01*
X100900000Y-106900000D02*
X106900000Y-106900000D01*
X106900000Y-106900000D02*
X109600000Y-104200000D01*
X109600000Y-104200000D02*
X121650000Y-104200000D01*
X121650000Y-104200000D02*
X122600000Y-105150000D01*
X122600000Y-105150000D02*
X122600000Y-106700000D01*
X122600000Y-106700000D02*
X122800000Y-106900000D01*
X122800000Y-106900000D02*
X125150000Y-106900000D01*
X125150000Y-106900000D02*
X126390000Y-105660000D01*
X143450100Y-121489700D02*
X144245800Y-120694000D01*
X144245700Y-120694000D02*
X144245800Y-120694000D01*
X144245700Y-120411900D02*
X144245700Y-120694000D01*
X146030000Y-118627600D02*
X144245700Y-120411900D01*
X146030000Y-117375000D02*
X146030000Y-118627600D01*
X143549000Y-114894000D02*
X146030000Y-117375000D01*
X146030000Y-117375000D02*
X146925700Y-117375000D01*
X150225000Y-117375000D02*
X148424300Y-117375000D01*
X98650000Y-129550000D02*
X97099300Y-129550000D01*
X95325000Y-128550200D02*
X95325000Y-125950000D01*
X95600700Y-128825900D02*
X95325000Y-128550200D01*
X95600700Y-129550000D02*
X95600700Y-128825900D01*
X90850000Y-129550000D02*
X92400700Y-129550000D01*
X94675000Y-128050200D02*
X94675000Y-125950000D01*
X93899300Y-128825900D02*
X94675000Y-128050200D01*
X93899300Y-129550000D02*
X93899300Y-128825900D01*
X104250000Y-123570000D02*
X104250000Y-122975500D01*
X96625000Y-118750000D02*
X96625000Y-119950300D01*
X103624500Y-122350000D02*
X104250000Y-122975500D01*
X101200000Y-122350000D02*
X103624500Y-122350000D01*
X99024700Y-122350000D02*
X101200000Y-122350000D01*
X96625000Y-119950300D02*
X99024700Y-122350000D01*
X87725300Y-121700000D02*
X90775000Y-124749700D01*
X86650000Y-121700000D02*
X87725300Y-121700000D01*
X90775000Y-125950000D02*
X90775000Y-124749700D01*
X90050900Y-124749700D02*
X90125000Y-124749700D01*
X87650300Y-122349100D02*
X90050900Y-124749700D01*
X86650000Y-122349100D02*
X87650300Y-122349100D01*
X90125000Y-125950000D02*
X90125000Y-124749700D01*
X92075000Y-120159500D02*
X92075000Y-118750000D01*
X110600000Y-114300000D02*
X110600000Y-113650000D01*
X110750000Y-114300000D02*
X111400000Y-114300000D01*
X110550000Y-120400000D02*
X110850000Y-120100000D01*
X110850000Y-120100000D02*
X110850000Y-115950000D01*
X110850000Y-115950000D02*
X111400000Y-115400000D01*
X111400000Y-114300000D02*
X111400000Y-115400000D01*
X110750000Y-114300000D02*
X110600000Y-114300000D01*
X118950000Y-119350000D02*
X117600000Y-119350000D01*
X120689000Y-119989000D02*
X120689000Y-118704000D01*
X120050000Y-119750000D02*
X119650000Y-119350000D01*
X120050000Y-120000000D02*
X120050000Y-119750000D01*
X120678000Y-120000000D02*
X120050000Y-120000000D01*
X120689000Y-119989000D02*
X120678000Y-120000000D01*
D37*
X118950000Y-119350000D02*
X119650000Y-119350000D01*
D36*
X120689000Y-118704000D02*
X120689000Y-118839000D01*
X120689000Y-118839000D02*
X123850000Y-122000000D01*
X123850000Y-122000000D02*
X123850000Y-123000000D01*
X123229000Y-130134000D02*
X123666000Y-130134000D01*
X123666000Y-130134000D02*
X125250000Y-128550000D01*
X135850000Y-121400000D02*
X135450000Y-121800000D01*
X135450000Y-121800000D02*
X134921573Y-121800000D01*
X134921573Y-121800000D02*
X134045583Y-120924010D01*
X98575000Y-118750000D02*
X98575000Y-119950300D01*
X98662400Y-119950300D02*
X98575000Y-119950300D01*
X98872700Y-120160600D02*
X98662400Y-119950300D01*
D37*
X110700000Y-113500000D02*
X110700000Y-113300000D01*
D36*
X110600000Y-113650000D02*
X110700000Y-113550000D01*
X110700000Y-113550000D02*
X110700000Y-113500000D01*
D37*
X110700000Y-113300000D02*
X110950000Y-113050000D01*
D36*
X110950000Y-113050000D02*
X111700000Y-112300000D01*
X111700000Y-112300000D02*
X111900000Y-112100000D01*
X112500000Y-107010000D02*
X111150000Y-105660000D01*
X112500000Y-109450000D02*
X112500000Y-107010000D01*
X111900000Y-110050000D02*
X112500000Y-109450000D01*
X111900000Y-112100000D02*
X111900000Y-110050000D01*
X105800000Y-120400000D02*
X105800000Y-122300000D01*
X104250000Y-118850000D02*
X105800000Y-120400000D01*
X104250000Y-118490000D02*
X104250000Y-118850000D01*
X124500000Y-124750000D02*
X121044000Y-121244000D01*
X121044000Y-121244000D02*
X120689000Y-121244000D01*
X95975000Y-118750000D02*
X95975000Y-119950300D01*
X95947100Y-119950300D02*
X95975000Y-119950300D01*
X95761800Y-120135600D02*
X95947100Y-119950300D01*
X133794200Y-119584000D02*
X133815600Y-119562600D01*
X132474700Y-119584000D02*
X133794200Y-119584000D01*
X134611300Y-120358300D02*
X133815600Y-119562600D01*
X109250000Y-121650000D02*
X109850000Y-121050000D01*
X109850000Y-121050000D02*
X109850000Y-117200000D01*
X109850000Y-117200000D02*
X110100000Y-116950000D01*
X112700000Y-114650000D02*
X112700000Y-114250000D01*
X112000000Y-116950000D02*
X112700000Y-116250000D01*
X112700000Y-116250000D02*
X112700000Y-114650000D01*
X112000000Y-117150000D02*
X112000000Y-116950000D01*
X113690000Y-111560000D02*
X113690000Y-108200000D01*
X112050000Y-113200000D02*
X113690000Y-111560000D01*
X112050000Y-113250000D02*
X112050000Y-113200000D01*
D37*
X112050000Y-113850000D02*
X112050000Y-113250000D01*
D36*
X112050000Y-114250000D02*
X112050000Y-113850000D01*
X112700000Y-114250000D02*
X112050000Y-114250000D01*
X114550000Y-130700000D02*
X114550000Y-127950000D01*
D37*
X114550000Y-131100000D02*
X114550000Y-131800000D01*
D36*
X135300000Y-132650000D02*
X133950000Y-134000000D01*
X133950000Y-134000000D02*
X116650000Y-134000000D01*
X116650000Y-134000000D02*
X115200000Y-132550000D01*
X115200000Y-132550000D02*
X115200000Y-132150000D01*
X115200000Y-132150000D02*
X114600000Y-132150000D01*
X114600000Y-132150000D02*
X114550000Y-132100000D01*
X114550000Y-132100000D02*
X114550000Y-131800000D01*
D37*
X135300000Y-131850000D02*
X135300000Y-131200000D01*
D36*
X134634000Y-130134000D02*
X134650000Y-130150000D01*
X134650000Y-130150000D02*
X134650000Y-130750000D01*
X134650000Y-130750000D02*
X135000000Y-130750000D01*
X135000000Y-130750000D02*
X135300000Y-131050000D01*
X135300000Y-131050000D02*
X135300000Y-131200000D01*
X133389000Y-130134000D02*
X134634000Y-130134000D01*
X135300000Y-131850000D02*
X135300000Y-132650000D01*
X114550000Y-130700000D02*
X114550000Y-131100000D01*
X112000000Y-121550000D02*
X112000000Y-117150000D01*
X112000000Y-117150000D02*
X112000000Y-117100000D01*
X109750000Y-123800000D02*
X112000000Y-121550000D01*
X114550000Y-127950000D02*
X115200000Y-127300000D01*
X133479900Y-122047600D02*
X133479900Y-121489700D01*
X133178400Y-122349100D02*
X133479900Y-122047600D01*
X111450000Y-117550000D02*
X111450000Y-116550000D01*
X108650000Y-123500000D02*
X111450000Y-120700000D01*
X111450000Y-120700000D02*
X111450000Y-117550000D01*
X113300000Y-128200000D02*
X114100000Y-127400000D01*
X113300000Y-130700000D02*
X113300000Y-131100000D01*
X136600000Y-132050000D02*
X134150000Y-134500000D01*
X134150000Y-134500000D02*
X116450000Y-134500000D01*
X113900000Y-132150000D02*
X113300000Y-132150000D01*
X113900000Y-132650000D02*
X113900000Y-132150000D01*
X113300000Y-132150000D02*
X113300000Y-131700000D01*
D37*
X136600000Y-131850000D02*
X136600000Y-131200000D01*
D36*
X136900000Y-130750000D02*
X136600000Y-131050000D01*
X136600000Y-131050000D02*
X136600000Y-131200000D01*
X135929000Y-130134000D02*
X137184000Y-130134000D01*
X137200000Y-130150000D02*
X137200000Y-130750000D01*
X137184000Y-130134000D02*
X137200000Y-130150000D01*
X137200000Y-130750000D02*
X136900000Y-130750000D01*
X136600000Y-131850000D02*
X136600000Y-132050000D01*
X115750000Y-134500000D02*
X113900000Y-132650000D01*
X116450000Y-134500000D02*
X115750000Y-134500000D01*
D37*
X113300000Y-131100000D02*
X113300000Y-131700000D01*
D36*
X113300000Y-130700000D02*
X113300000Y-128200000D01*
X108650000Y-124450000D02*
X108650000Y-123500000D01*
X111450000Y-116550000D02*
X112050000Y-115950000D01*
X133479900Y-123540300D02*
X134275600Y-122744600D01*
X134275600Y-122744700D02*
X134617600Y-122744700D01*
X134275600Y-122744600D02*
X134275600Y-122744700D01*
X113300000Y-113250000D02*
X113300000Y-112700000D01*
X113900000Y-114400000D02*
X113300000Y-114400000D01*
X110950000Y-125300000D02*
X113900000Y-122350000D01*
X113900000Y-122350000D02*
X113900000Y-114400000D01*
X113300000Y-114400000D02*
X113300000Y-113800000D01*
D37*
X113300000Y-113250000D02*
X113300000Y-113800000D01*
D36*
X116230000Y-109770000D02*
X116230000Y-108200000D01*
X113300000Y-112700000D02*
X116230000Y-109770000D01*
X135297200Y-123370100D02*
X135425400Y-123241900D01*
X134781500Y-123370100D02*
X135297200Y-123370100D01*
X134045600Y-124106000D02*
X134781500Y-123370100D01*
X109700000Y-125100000D02*
X112950000Y-121850000D01*
X112950000Y-121850000D02*
X112950000Y-117100000D01*
X141009000Y-129018800D02*
X139490300Y-127500100D01*
X141009000Y-130134000D02*
X141009000Y-129018800D01*
X114550000Y-113200000D02*
X114550000Y-112150000D01*
X112275000Y-126325000D02*
X114950000Y-123650000D01*
X114550000Y-114250000D02*
X114550000Y-113850000D01*
X115400000Y-114250000D02*
X114550000Y-114250000D01*
X115400000Y-114450000D02*
X115400000Y-114250000D01*
X115400000Y-123200000D02*
X115400000Y-114450000D01*
X114950000Y-123650000D02*
X115400000Y-123200000D01*
D37*
X114550000Y-113200000D02*
X114550000Y-113850000D01*
D36*
X118770000Y-110030000D02*
X118770000Y-108200000D01*
X118150000Y-110650000D02*
X118770000Y-110030000D01*
X116050000Y-110650000D02*
X118150000Y-110650000D01*
X114550000Y-112150000D02*
X116050000Y-110650000D01*
X111100000Y-127500000D02*
X112275000Y-126325000D01*
X112275000Y-126325000D02*
X112300000Y-126300000D01*
X143255600Y-130134000D02*
X140056000Y-126934400D01*
X143549000Y-130134000D02*
X143255600Y-130134000D01*
X111350000Y-126000000D02*
X114850000Y-122500000D01*
X110250000Y-127100000D02*
X111350000Y-126000000D01*
X114850000Y-117550000D02*
X114650000Y-117350000D01*
X114850000Y-122500000D02*
X114850000Y-117550000D01*
X146089000Y-130134000D02*
X146584000Y-130134000D01*
X142379800Y-128126800D02*
X140621700Y-126368700D01*
X143192900Y-128126800D02*
X142379800Y-128126800D01*
X145200100Y-130134000D02*
X143192900Y-128126800D01*
X146089000Y-130134000D02*
X145200100Y-130134000D01*
X112050000Y-130700000D02*
X112050000Y-128350000D01*
D37*
X112050000Y-131150000D02*
X112050000Y-131800000D01*
D36*
X147975000Y-132325000D02*
X145300000Y-135000000D01*
X145300000Y-135000000D02*
X115050000Y-135000000D01*
X115050000Y-135000000D02*
X112650000Y-132600000D01*
X112650000Y-132600000D02*
X112650000Y-132150000D01*
X112650000Y-132150000D02*
X112000000Y-132150000D01*
X112000000Y-132150000D02*
X112050000Y-132100000D01*
X112050000Y-132100000D02*
X112050000Y-131800000D01*
X147975000Y-131725000D02*
X147975000Y-132325000D01*
X112050000Y-130700000D02*
X112050000Y-131150000D01*
X116650000Y-123750000D02*
X116650000Y-117150000D01*
X112050000Y-128350000D02*
X116650000Y-123750000D01*
D37*
X147975000Y-131075000D02*
X147975000Y-131725000D01*
X147975000Y-131725000D02*
X147950000Y-131750000D01*
D36*
X148629000Y-130134000D02*
X147216000Y-130134000D01*
X147650000Y-130750000D02*
X147975000Y-131075000D01*
X147975000Y-131075000D02*
X148000000Y-131100000D01*
X147200000Y-130750000D02*
X147650000Y-130750000D01*
X147200000Y-130150000D02*
X147200000Y-130750000D01*
X147216000Y-130134000D02*
X147200000Y-130150000D01*
X148629000Y-130134000D02*
X148366000Y-130134000D01*
X141187400Y-125803000D02*
X141983100Y-126598700D01*
X147405800Y-128910800D02*
X148629000Y-130134000D01*
X144894500Y-128910800D02*
X147405800Y-128910800D01*
X142582400Y-126598700D02*
X144894500Y-128910800D01*
X141983100Y-126598700D02*
X142582400Y-126598700D01*
X115550000Y-112850000D02*
X115550000Y-111850000D01*
D37*
X115950000Y-113350000D02*
X115550000Y-112950000D01*
X115550000Y-112950000D02*
X115550000Y-112850000D01*
X115950000Y-113500000D02*
X115950000Y-113350000D01*
D36*
X122600000Y-107500000D02*
X121310000Y-106210000D01*
X122600000Y-109600000D02*
X122600000Y-107500000D01*
X122650000Y-109650000D02*
X122600000Y-109600000D01*
X119850000Y-109650000D02*
X122650000Y-109650000D01*
X118350000Y-111150000D02*
X119850000Y-109650000D01*
X116250000Y-111150000D02*
X118350000Y-111150000D01*
X115550000Y-111850000D02*
X116250000Y-111150000D01*
X121310000Y-106210000D02*
X121310000Y-105660000D01*
X115950000Y-113650000D02*
X115950000Y-113500000D01*
X115950000Y-113500000D02*
X115900000Y-113450000D01*
X115950000Y-114150000D02*
X115950000Y-113650000D01*
X110700000Y-131250000D02*
X110700000Y-128950000D01*
X116650000Y-115350000D02*
X116650000Y-114150000D01*
X116000000Y-116000000D02*
X116650000Y-115350000D01*
X116000000Y-123650000D02*
X116000000Y-116000000D01*
X110700000Y-128950000D02*
X116000000Y-123650000D01*
X115950000Y-114150000D02*
X116650000Y-114150000D01*
X115950000Y-113650000D02*
X116000000Y-113600000D01*
D37*
X110875000Y-131875000D02*
X110875000Y-131775000D01*
X110700000Y-131600000D02*
X110700000Y-131250000D01*
X110700000Y-131250000D02*
X110700000Y-131200000D01*
X110875000Y-131775000D02*
X110700000Y-131600000D01*
D36*
X149250000Y-131750000D02*
X149250000Y-131850000D01*
D37*
X149250000Y-131750000D02*
X149250000Y-131100000D01*
D36*
X150066000Y-130134000D02*
X150050000Y-130150000D01*
X150050000Y-130150000D02*
X150050000Y-130600000D01*
X150050000Y-130600000D02*
X149750000Y-130600000D01*
X149750000Y-130600000D02*
X149250000Y-131100000D01*
X151169000Y-130134000D02*
X150066000Y-130134000D01*
X111150000Y-132150000D02*
X110875000Y-131875000D01*
X110875000Y-131875000D02*
X110850000Y-131850000D01*
X111400000Y-132150000D02*
X111150000Y-132150000D01*
X111400000Y-132650000D02*
X111400000Y-132150000D01*
X114250000Y-135500000D02*
X111400000Y-132650000D01*
X145600000Y-135500000D02*
X114250000Y-135500000D01*
X149250000Y-131850000D02*
X145600000Y-135500000D01*
X141753000Y-125237400D02*
X142548700Y-126033100D01*
X149491700Y-128456700D02*
X151169000Y-130134000D01*
X145254700Y-128456700D02*
X149491700Y-128456700D01*
X142831100Y-126033100D02*
X145254700Y-128456700D01*
X142548700Y-126033100D02*
X142831100Y-126033100D01*
X133672400Y-114894000D02*
X136874000Y-118095600D01*
X133389000Y-114894000D02*
X133672400Y-114894000D01*
X135929000Y-116019200D02*
X137439700Y-117529900D01*
X135929000Y-114894000D02*
X135929000Y-116019200D01*
X136600000Y-113300000D02*
X136600000Y-113100000D01*
X138469000Y-114894000D02*
X137256000Y-114894000D01*
X136600000Y-113900000D02*
X136600000Y-113850000D01*
X137000000Y-114300000D02*
X136600000Y-113900000D01*
X137250000Y-114300000D02*
X137000000Y-114300000D01*
X137250000Y-114888000D02*
X137250000Y-114300000D01*
X137256000Y-114894000D02*
X137250000Y-114888000D01*
D37*
X136600000Y-113300000D02*
X136600000Y-113850000D01*
D36*
X138400000Y-111300000D02*
X138600000Y-111300000D01*
X136600000Y-113100000D02*
X138400000Y-111300000D01*
X139490300Y-115938600D02*
X140286000Y-116734200D01*
X139490300Y-115915300D02*
X139490300Y-115938600D01*
X138469000Y-114894000D02*
X139490300Y-115915300D01*
X139490300Y-117529900D02*
X140286000Y-116734200D01*
X140851800Y-115051200D02*
X140851800Y-117299800D01*
X141009000Y-114894000D02*
X140851800Y-115051200D01*
X140056000Y-118095600D02*
X140851800Y-117299800D01*
X146700000Y-113250000D02*
X146700000Y-111100000D01*
X146089000Y-114894000D02*
X147344000Y-114894000D01*
X146700000Y-113950000D02*
X146700000Y-113850000D01*
X147000000Y-114250000D02*
X146700000Y-113950000D01*
X147350000Y-114250000D02*
X147000000Y-114250000D01*
X147350000Y-114888000D02*
X147350000Y-114250000D01*
X147344000Y-114894000D02*
X147350000Y-114888000D01*
D37*
X146700000Y-113250000D02*
X146700000Y-113850000D01*
D36*
X146700000Y-111100000D02*
X144100000Y-108500000D01*
X126390000Y-108200000D02*
X128250000Y-108200000D01*
X128250000Y-108200000D02*
X128550000Y-108500000D01*
X128550000Y-108500000D02*
X144100000Y-108500000D01*
X126390000Y-108200000D02*
X126390000Y-108110000D01*
X126390000Y-108110000D02*
X127850000Y-106650000D01*
X127850000Y-106650000D02*
X127850000Y-105100000D01*
X127850000Y-105100000D02*
X125050000Y-102300000D01*
X125050000Y-102300000D02*
X99900000Y-102300000D01*
X99900000Y-102300000D02*
X97750000Y-104450000D01*
X97750000Y-104450000D02*
X97750000Y-106950000D01*
X97750000Y-106950000D02*
X96500000Y-108200000D01*
X144020300Y-122970100D02*
X143450100Y-123540300D01*
X144600000Y-107850000D02*
X144850000Y-107850000D01*
X130000000Y-107850000D02*
X144600000Y-107850000D01*
X129200000Y-107050000D02*
X130000000Y-107850000D01*
X129200000Y-104250000D02*
X129200000Y-107050000D01*
X129050000Y-104100000D02*
X129200000Y-104250000D01*
X148000000Y-111000000D02*
X148000000Y-112500000D01*
X144850000Y-107850000D02*
X148000000Y-111000000D01*
X99040000Y-105660000D02*
X99040000Y-103860000D01*
X120990000Y-102800000D02*
X123850000Y-105660000D01*
X100100000Y-102800000D02*
X120990000Y-102800000D01*
X99040000Y-103860000D02*
X100100000Y-102800000D01*
X142884400Y-124106000D02*
X143680200Y-124901800D01*
X144551200Y-124657500D02*
X143924500Y-124657500D01*
X143924500Y-124657500D02*
X143680200Y-124901800D01*
X125250000Y-110200000D02*
X123850000Y-108800000D01*
X142000000Y-110200000D02*
X125250000Y-110200000D01*
X142200000Y-110400000D02*
X142000000Y-110200000D01*
X123850000Y-108800000D02*
X123850000Y-108200000D01*
X145612500Y-125467400D02*
X143114400Y-125467400D01*
X145812300Y-125267600D02*
X145612500Y-125467400D01*
X142318700Y-124671700D02*
X143114400Y-125467400D01*
X136308300Y-118661300D02*
X137104000Y-119457000D01*
X137104000Y-119457000D02*
X137104000Y-119727500D01*
X134946900Y-118229900D02*
X134946900Y-118431300D01*
X134532000Y-117815000D02*
X134946900Y-118229900D01*
X135742600Y-119227000D02*
X134946900Y-118431300D01*
X143114400Y-118523400D02*
X143114400Y-119562600D01*
X142406000Y-117815000D02*
X143114400Y-118523400D01*
X142318700Y-120358300D02*
X143114400Y-119562600D01*
X141330600Y-117952400D02*
X140621700Y-118661300D01*
X141330600Y-117369600D02*
X141330600Y-117952400D01*
X141964900Y-116735300D02*
X141330600Y-117369600D01*
X143866300Y-116735300D02*
X141964900Y-116735300D01*
X144946000Y-117815000D02*
X143866300Y-116735300D01*
X136086500Y-128853300D02*
X137439700Y-127500100D01*
X131778000Y-128853300D02*
X136086500Y-128853300D01*
X131275000Y-128350300D02*
X131778000Y-128853300D01*
X131275000Y-126975000D02*
X131275000Y-128350300D01*
X136874000Y-126934400D02*
X136078200Y-127730200D01*
X133675000Y-126975000D02*
X133675000Y-128350300D01*
X135458100Y-128350300D02*
X133675000Y-128350300D01*
X136078200Y-127730200D02*
X135458100Y-128350300D01*
D38*
G36*
X106675880Y-122849620D02*
X106761020Y-122934909D01*
X106676840Y-123018942D01*
X106528619Y-123375899D01*
X106528282Y-123762405D01*
X106675880Y-124119620D01*
X106761020Y-124204909D01*
X106676840Y-124288942D01*
X106528619Y-124645899D01*
X106528282Y-125032405D01*
X106675880Y-125389620D01*
X106925197Y-125639374D01*
X106735776Y-125922862D01*
X106685581Y-126044046D01*
X106629762Y-126178804D01*
X106553642Y-126561487D01*
X106553642Y-126631416D01*
X106540000Y-126700000D01*
X106540000Y-130690000D01*
X103500000Y-130690000D01*
X103431416Y-130703642D01*
X102978804Y-130779762D01*
X102828877Y-130841864D01*
X102762962Y-130869167D01*
X102521058Y-130626840D01*
X102164101Y-130478619D01*
X101777595Y-130478282D01*
X101420380Y-130625880D01*
X101335091Y-130711020D01*
X101251058Y-130626840D01*
X100894101Y-130478619D01*
X100507595Y-130478282D01*
X100150380Y-130625880D01*
X100135463Y-130640771D01*
X100252148Y-130466139D01*
X100310000Y-130175300D01*
X100310000Y-130155209D01*
X100346431Y-130101890D01*
X100397440Y-129850000D01*
X100397440Y-129250000D01*
X100353162Y-129014683D01*
X100310000Y-128947607D01*
X100310000Y-128935750D01*
X102599000Y-128935750D01*
X102599000Y-129639910D01*
X102695673Y-129873299D01*
X102874302Y-130051927D01*
X103107691Y-130148600D01*
X103964250Y-130148600D01*
X104123000Y-129989850D01*
X104123000Y-128777000D01*
X104377000Y-128777000D01*
X104377000Y-129989850D01*
X104535750Y-130148600D01*
X105392309Y-130148600D01*
X105625698Y-130051927D01*
X105804327Y-129873299D01*
X105901000Y-129639910D01*
X105901000Y-128935750D01*
X105742250Y-128777000D01*
X104377000Y-128777000D01*
X104123000Y-128777000D01*
X102757750Y-128777000D01*
X102599000Y-128935750D01*
X100310000Y-128935750D01*
X100310000Y-127390102D01*
X101737401Y-125962701D01*
X101881234Y-125747440D01*
X101950000Y-125747440D01*
X102185317Y-125703162D01*
X102401441Y-125564090D01*
X102546431Y-125351890D01*
X102597440Y-125100000D01*
X102597440Y-123724767D01*
X102680729Y-124143489D01*
X103005585Y-124629670D01*
X103320366Y-124840000D01*
X103005585Y-125050330D01*
X102680729Y-125536511D01*
X102566655Y-126110000D01*
X102680729Y-126683489D01*
X103005585Y-127169670D01*
X103027780Y-127184500D01*
X102874302Y-127248073D01*
X102695673Y-127426701D01*
X102599000Y-127660090D01*
X102599000Y-128364250D01*
X102757750Y-128523000D01*
X104123000Y-128523000D01*
X104123000Y-128503000D01*
X104377000Y-128503000D01*
X104377000Y-128523000D01*
X105742250Y-128523000D01*
X105901000Y-128364250D01*
X105901000Y-127660090D01*
X105804327Y-127426701D01*
X105625698Y-127248073D01*
X105472220Y-127184500D01*
X105494415Y-127169670D01*
X105819271Y-126683489D01*
X105933345Y-126110000D01*
X105819271Y-125536511D01*
X105494415Y-125050330D01*
X105179634Y-124840000D01*
X105494415Y-124629670D01*
X105819271Y-124143489D01*
X105933345Y-123570000D01*
X105866721Y-123235059D01*
X105985167Y-123235162D01*
X106328943Y-123093117D01*
X106592192Y-122830327D01*
X106630144Y-122738930D01*
X106675880Y-122849620D01*
X106675880Y-122849620D01*
G37*
X106675880Y-122849620D02*
X106761020Y-122934909D01*
X106676840Y-123018942D01*
X106528619Y-123375899D01*
X106528282Y-123762405D01*
X106675880Y-124119620D01*
X106761020Y-124204909D01*
X106676840Y-124288942D01*
X106528619Y-124645899D01*
X106528282Y-125032405D01*
X106675880Y-125389620D01*
X106925197Y-125639374D01*
X106735776Y-125922862D01*
X106685581Y-126044046D01*
X106629762Y-126178804D01*
X106553642Y-126561487D01*
X106553642Y-126631416D01*
X106540000Y-126700000D01*
X106540000Y-130690000D01*
X103500000Y-130690000D01*
X103431416Y-130703642D01*
X102978804Y-130779762D01*
X102828877Y-130841864D01*
X102762962Y-130869167D01*
X102521058Y-130626840D01*
X102164101Y-130478619D01*
X101777595Y-130478282D01*
X101420380Y-130625880D01*
X101335091Y-130711020D01*
X101251058Y-130626840D01*
X100894101Y-130478619D01*
X100507595Y-130478282D01*
X100150380Y-130625880D01*
X100135463Y-130640771D01*
X100252148Y-130466139D01*
X100310000Y-130175300D01*
X100310000Y-130155209D01*
X100346431Y-130101890D01*
X100397440Y-129850000D01*
X100397440Y-129250000D01*
X100353162Y-129014683D01*
X100310000Y-128947607D01*
X100310000Y-128935750D01*
X102599000Y-128935750D01*
X102599000Y-129639910D01*
X102695673Y-129873299D01*
X102874302Y-130051927D01*
X103107691Y-130148600D01*
X103964250Y-130148600D01*
X104123000Y-129989850D01*
X104123000Y-128777000D01*
X104377000Y-128777000D01*
X104377000Y-129989850D01*
X104535750Y-130148600D01*
X105392309Y-130148600D01*
X105625698Y-130051927D01*
X105804327Y-129873299D01*
X105901000Y-129639910D01*
X105901000Y-128935750D01*
X105742250Y-128777000D01*
X104377000Y-128777000D01*
X104123000Y-128777000D01*
X102757750Y-128777000D01*
X102599000Y-128935750D01*
X100310000Y-128935750D01*
X100310000Y-127390102D01*
X101737401Y-125962701D01*
X101881234Y-125747440D01*
X101950000Y-125747440D01*
X102185317Y-125703162D01*
X102401441Y-125564090D01*
X102546431Y-125351890D01*
X102597440Y-125100000D01*
X102597440Y-123724767D01*
X102680729Y-124143489D01*
X103005585Y-124629670D01*
X103320366Y-124840000D01*
X103005585Y-125050330D01*
X102680729Y-125536511D01*
X102566655Y-126110000D01*
X102680729Y-126683489D01*
X103005585Y-127169670D01*
X103027780Y-127184500D01*
X102874302Y-127248073D01*
X102695673Y-127426701D01*
X102599000Y-127660090D01*
X102599000Y-128364250D01*
X102757750Y-128523000D01*
X104123000Y-128523000D01*
X104123000Y-128503000D01*
X104377000Y-128503000D01*
X104377000Y-128523000D01*
X105742250Y-128523000D01*
X105901000Y-128364250D01*
X105901000Y-127660090D01*
X105804327Y-127426701D01*
X105625698Y-127248073D01*
X105472220Y-127184500D01*
X105494415Y-127169670D01*
X105819271Y-126683489D01*
X105933345Y-126110000D01*
X105819271Y-125536511D01*
X105494415Y-125050330D01*
X105179634Y-124840000D01*
X105494415Y-124629670D01*
X105819271Y-124143489D01*
X105933345Y-123570000D01*
X105866721Y-123235059D01*
X105985167Y-123235162D01*
X106328943Y-123093117D01*
X106592192Y-122830327D01*
X106630144Y-122738930D01*
X106675880Y-122849620D01*
G36*
X85528942Y-114373160D02*
X85885899Y-114521381D01*
X86272405Y-114521718D01*
X86629620Y-114374120D01*
X86714909Y-114288980D01*
X86798942Y-114373160D01*
X87155899Y-114521381D01*
X87542405Y-114521718D01*
X87899620Y-114374120D01*
X87984909Y-114288980D01*
X88068942Y-114373160D01*
X88301446Y-114469704D01*
X88198559Y-114535910D01*
X88053569Y-114748110D01*
X88002560Y-115000000D01*
X88002560Y-115118767D01*
X87787299Y-115262599D01*
X87622552Y-115509161D01*
X87564700Y-115800000D01*
X87564700Y-117611968D01*
X87451310Y-117565000D01*
X86810750Y-117565000D01*
X86652000Y-117723750D01*
X86652000Y-119123000D01*
X86672000Y-119123000D01*
X86672000Y-119377000D01*
X86652000Y-119377000D01*
X86652000Y-119397000D01*
X86398000Y-119397000D01*
X86398000Y-119377000D01*
X86378000Y-119377000D01*
X86378000Y-119123000D01*
X86398000Y-119123000D01*
X86398000Y-117723750D01*
X86239250Y-117565000D01*
X85598690Y-117565000D01*
X85560000Y-117581026D01*
X85560000Y-117523691D01*
X85463327Y-117290302D01*
X85284699Y-117111673D01*
X85051310Y-117015000D01*
X84260750Y-117015000D01*
X84102000Y-117173750D01*
X84102000Y-118423000D01*
X84122000Y-118423000D01*
X84122000Y-118677000D01*
X84102000Y-118677000D01*
X84102000Y-121023000D01*
X84122000Y-121023000D01*
X84122000Y-121277000D01*
X84102000Y-121277000D01*
X84102000Y-123423000D01*
X84122000Y-123423000D01*
X84122000Y-123677000D01*
X84102000Y-123677000D01*
X84102000Y-126023000D01*
X84122000Y-126023000D01*
X84122000Y-126277000D01*
X84102000Y-126277000D01*
X84102000Y-127526250D01*
X84260750Y-127685000D01*
X85051310Y-127685000D01*
X85284699Y-127588327D01*
X85463327Y-127409698D01*
X85560000Y-127176309D01*
X85560000Y-127118974D01*
X85598690Y-127135000D01*
X86239250Y-127135000D01*
X86398000Y-126976250D01*
X86398000Y-125577000D01*
X86652000Y-125577000D01*
X86652000Y-126976250D01*
X86810750Y-127135000D01*
X87451310Y-127135000D01*
X87684699Y-127038327D01*
X87863327Y-126859698D01*
X87960000Y-126626309D01*
X87960000Y-125735750D01*
X87801250Y-125577000D01*
X86652000Y-125577000D01*
X86398000Y-125577000D01*
X86378000Y-125577000D01*
X86378000Y-125323000D01*
X86398000Y-125323000D01*
X86398000Y-125303000D01*
X86652000Y-125303000D01*
X86652000Y-125323000D01*
X87801250Y-125323000D01*
X87960000Y-125164250D01*
X87960000Y-124273691D01*
X87898410Y-124125001D01*
X87960000Y-123976310D01*
X87960000Y-123908750D01*
X87828252Y-123777002D01*
X87960000Y-123777002D01*
X87960000Y-123733602D01*
X89260784Y-125034386D01*
X89252560Y-125075000D01*
X89252560Y-126825000D01*
X89296838Y-127060317D01*
X89351316Y-127144979D01*
X89190302Y-127211673D01*
X89011673Y-127390301D01*
X88915000Y-127623690D01*
X88915000Y-127716250D01*
X89073750Y-127875000D01*
X89723000Y-127875000D01*
X89723000Y-127853000D01*
X89977000Y-127853000D01*
X89977000Y-127875000D01*
X89997000Y-127875000D01*
X89997000Y-127990000D01*
X89950000Y-127990000D01*
X89659161Y-128047852D01*
X89543701Y-128125000D01*
X89073750Y-128125000D01*
X88915000Y-128283750D01*
X88915000Y-128376310D01*
X89011673Y-128609699D01*
X89190000Y-128788025D01*
X89190000Y-128838800D01*
X89011178Y-128838800D01*
X88930327Y-128757808D01*
X88586799Y-128615162D01*
X88214833Y-128614838D01*
X87871057Y-128756883D01*
X87607808Y-129019673D01*
X87465162Y-129363201D01*
X87464838Y-129735167D01*
X87606883Y-130078943D01*
X87869673Y-130342192D01*
X88213201Y-130484838D01*
X88411311Y-130485011D01*
X88070380Y-130625880D01*
X87985091Y-130711020D01*
X87901058Y-130626840D01*
X87544101Y-130478619D01*
X87157595Y-130478282D01*
X86800380Y-130625880D01*
X86715091Y-130711020D01*
X86631058Y-130626840D01*
X86274101Y-130478619D01*
X85887595Y-130478282D01*
X85530380Y-130625880D01*
X85286776Y-130869058D01*
X85143368Y-130809657D01*
X85071196Y-130779762D01*
X84688513Y-130703642D01*
X84618584Y-130703642D01*
X84550000Y-130690000D01*
X83260000Y-130690000D01*
X83260000Y-127685000D01*
X83689250Y-127685000D01*
X83848000Y-127526250D01*
X83848000Y-126277000D01*
X83828000Y-126277000D01*
X83828000Y-126023000D01*
X83848000Y-126023000D01*
X83848000Y-123677000D01*
X83828000Y-123677000D01*
X83828000Y-123423000D01*
X83848000Y-123423000D01*
X83848000Y-121277000D01*
X83828000Y-121277000D01*
X83828000Y-121023000D01*
X83848000Y-121023000D01*
X83848000Y-118677000D01*
X83828000Y-118677000D01*
X83828000Y-118423000D01*
X83848000Y-118423000D01*
X83848000Y-117173750D01*
X83689250Y-117015000D01*
X83260000Y-117015000D01*
X83260000Y-114310000D01*
X84550000Y-114310000D01*
X84618584Y-114296358D01*
X84688513Y-114296358D01*
X85071196Y-114220238D01*
X85146160Y-114189187D01*
X85287039Y-114130833D01*
X85528942Y-114373160D01*
X85528942Y-114373160D01*
G37*
X85528942Y-114373160D02*
X85885899Y-114521381D01*
X86272405Y-114521718D01*
X86629620Y-114374120D01*
X86714909Y-114288980D01*
X86798942Y-114373160D01*
X87155899Y-114521381D01*
X87542405Y-114521718D01*
X87899620Y-114374120D01*
X87984909Y-114288980D01*
X88068942Y-114373160D01*
X88301446Y-114469704D01*
X88198559Y-114535910D01*
X88053569Y-114748110D01*
X88002560Y-115000000D01*
X88002560Y-115118767D01*
X87787299Y-115262599D01*
X87622552Y-115509161D01*
X87564700Y-115800000D01*
X87564700Y-117611968D01*
X87451310Y-117565000D01*
X86810750Y-117565000D01*
X86652000Y-117723750D01*
X86652000Y-119123000D01*
X86672000Y-119123000D01*
X86672000Y-119377000D01*
X86652000Y-119377000D01*
X86652000Y-119397000D01*
X86398000Y-119397000D01*
X86398000Y-119377000D01*
X86378000Y-119377000D01*
X86378000Y-119123000D01*
X86398000Y-119123000D01*
X86398000Y-117723750D01*
X86239250Y-117565000D01*
X85598690Y-117565000D01*
X85560000Y-117581026D01*
X85560000Y-117523691D01*
X85463327Y-117290302D01*
X85284699Y-117111673D01*
X85051310Y-117015000D01*
X84260750Y-117015000D01*
X84102000Y-117173750D01*
X84102000Y-118423000D01*
X84122000Y-118423000D01*
X84122000Y-118677000D01*
X84102000Y-118677000D01*
X84102000Y-121023000D01*
X84122000Y-121023000D01*
X84122000Y-121277000D01*
X84102000Y-121277000D01*
X84102000Y-123423000D01*
X84122000Y-123423000D01*
X84122000Y-123677000D01*
X84102000Y-123677000D01*
X84102000Y-126023000D01*
X84122000Y-126023000D01*
X84122000Y-126277000D01*
X84102000Y-126277000D01*
X84102000Y-127526250D01*
X84260750Y-127685000D01*
X85051310Y-127685000D01*
X85284699Y-127588327D01*
X85463327Y-127409698D01*
X85560000Y-127176309D01*
X85560000Y-127118974D01*
X85598690Y-127135000D01*
X86239250Y-127135000D01*
X86398000Y-126976250D01*
X86398000Y-125577000D01*
X86652000Y-125577000D01*
X86652000Y-126976250D01*
X86810750Y-127135000D01*
X87451310Y-127135000D01*
X87684699Y-127038327D01*
X87863327Y-126859698D01*
X87960000Y-126626309D01*
X87960000Y-125735750D01*
X87801250Y-125577000D01*
X86652000Y-125577000D01*
X86398000Y-125577000D01*
X86378000Y-125577000D01*
X86378000Y-125323000D01*
X86398000Y-125323000D01*
X86398000Y-125303000D01*
X86652000Y-125303000D01*
X86652000Y-125323000D01*
X87801250Y-125323000D01*
X87960000Y-125164250D01*
X87960000Y-124273691D01*
X87898410Y-124125001D01*
X87960000Y-123976310D01*
X87960000Y-123908750D01*
X87828252Y-123777002D01*
X87960000Y-123777002D01*
X87960000Y-123733602D01*
X89260784Y-125034386D01*
X89252560Y-125075000D01*
X89252560Y-126825000D01*
X89296838Y-127060317D01*
X89351316Y-127144979D01*
X89190302Y-127211673D01*
X89011673Y-127390301D01*
X88915000Y-127623690D01*
X88915000Y-127716250D01*
X89073750Y-127875000D01*
X89723000Y-127875000D01*
X89723000Y-127853000D01*
X89977000Y-127853000D01*
X89977000Y-127875000D01*
X89997000Y-127875000D01*
X89997000Y-127990000D01*
X89950000Y-127990000D01*
X89659161Y-128047852D01*
X89543701Y-128125000D01*
X89073750Y-128125000D01*
X88915000Y-128283750D01*
X88915000Y-128376310D01*
X89011673Y-128609699D01*
X89190000Y-128788025D01*
X89190000Y-128838800D01*
X89011178Y-128838800D01*
X88930327Y-128757808D01*
X88586799Y-128615162D01*
X88214833Y-128614838D01*
X87871057Y-128756883D01*
X87607808Y-129019673D01*
X87465162Y-129363201D01*
X87464838Y-129735167D01*
X87606883Y-130078943D01*
X87869673Y-130342192D01*
X88213201Y-130484838D01*
X88411311Y-130485011D01*
X88070380Y-130625880D01*
X87985091Y-130711020D01*
X87901058Y-130626840D01*
X87544101Y-130478619D01*
X87157595Y-130478282D01*
X86800380Y-130625880D01*
X86715091Y-130711020D01*
X86631058Y-130626840D01*
X86274101Y-130478619D01*
X85887595Y-130478282D01*
X85530380Y-130625880D01*
X85286776Y-130869058D01*
X85143368Y-130809657D01*
X85071196Y-130779762D01*
X84688513Y-130703642D01*
X84618584Y-130703642D01*
X84550000Y-130690000D01*
X83260000Y-130690000D01*
X83260000Y-127685000D01*
X83689250Y-127685000D01*
X83848000Y-127526250D01*
X83848000Y-126277000D01*
X83828000Y-126277000D01*
X83828000Y-126023000D01*
X83848000Y-126023000D01*
X83848000Y-123677000D01*
X83828000Y-123677000D01*
X83828000Y-123423000D01*
X83848000Y-123423000D01*
X83848000Y-121277000D01*
X83828000Y-121277000D01*
X83828000Y-121023000D01*
X83848000Y-121023000D01*
X83848000Y-118677000D01*
X83828000Y-118677000D01*
X83828000Y-118423000D01*
X83848000Y-118423000D01*
X83848000Y-117173750D01*
X83689250Y-117015000D01*
X83260000Y-117015000D01*
X83260000Y-114310000D01*
X84550000Y-114310000D01*
X84618584Y-114296358D01*
X84688513Y-114296358D01*
X85071196Y-114220238D01*
X85146160Y-114189187D01*
X85287039Y-114130833D01*
X85528942Y-114373160D01*
G36*
X94826737Y-120206828D02*
X94826638Y-120320767D01*
X94968683Y-120664543D01*
X95231473Y-120927792D01*
X95575001Y-121070438D01*
X95946967Y-121070762D01*
X96290743Y-120928717D01*
X96409783Y-120809885D01*
X98487299Y-122887401D01*
X98733860Y-123052148D01*
X99024700Y-123110000D01*
X99804442Y-123110000D01*
X99846838Y-123335317D01*
X99854342Y-123346979D01*
X99853569Y-123348110D01*
X99802560Y-123600000D01*
X99802560Y-125100000D01*
X99846838Y-125335317D01*
X99985910Y-125551441D01*
X99993720Y-125556778D01*
X99447440Y-126103058D01*
X99447440Y-125075000D01*
X99403162Y-124839683D01*
X99264090Y-124623559D01*
X99051890Y-124478569D01*
X98800000Y-124427560D01*
X98350000Y-124427560D01*
X98246329Y-124447067D01*
X98150000Y-124427560D01*
X97700000Y-124427560D01*
X97628677Y-124440980D01*
X97626310Y-124440000D01*
X97546250Y-124440000D01*
X97525938Y-124460312D01*
X97464683Y-124471838D01*
X97270084Y-124597059D01*
X97209699Y-124536673D01*
X97023153Y-124459403D01*
X97003750Y-124440000D01*
X96896250Y-124440000D01*
X96876847Y-124459403D01*
X96690301Y-124536673D01*
X96628044Y-124598930D01*
X96451890Y-124478569D01*
X96377192Y-124463442D01*
X96353750Y-124440000D01*
X96273690Y-124440000D01*
X96269665Y-124441667D01*
X96200000Y-124427560D01*
X95750000Y-124427560D01*
X95646329Y-124447067D01*
X95550000Y-124427560D01*
X95100000Y-124427560D01*
X94996329Y-124447067D01*
X94900000Y-124427560D01*
X94450000Y-124427560D01*
X94378677Y-124440980D01*
X94376310Y-124440000D01*
X94296250Y-124440000D01*
X94275938Y-124460312D01*
X94214683Y-124471838D01*
X94022773Y-124595329D01*
X93851890Y-124478569D01*
X93777192Y-124463442D01*
X93753750Y-124440000D01*
X93673690Y-124440000D01*
X93669665Y-124441667D01*
X93600000Y-124427560D01*
X93150000Y-124427560D01*
X93046329Y-124447067D01*
X92950000Y-124427560D01*
X92500000Y-124427560D01*
X92428677Y-124440980D01*
X92426310Y-124440000D01*
X92346250Y-124440000D01*
X92325938Y-124460312D01*
X92264683Y-124471838D01*
X92202002Y-124512172D01*
X92202002Y-124440000D01*
X92185000Y-124440000D01*
X92185000Y-123188100D01*
X92127148Y-122897261D01*
X91962401Y-122650699D01*
X90288500Y-120976798D01*
X90288500Y-120272440D01*
X90350000Y-120272440D01*
X90453671Y-120252933D01*
X90550000Y-120272440D01*
X91000000Y-120272440D01*
X91103671Y-120252933D01*
X91139912Y-120260272D01*
X91139838Y-120344667D01*
X91281883Y-120688443D01*
X91544673Y-120951692D01*
X91888201Y-121094338D01*
X92260167Y-121094662D01*
X92603943Y-120952617D01*
X92867192Y-120689827D01*
X93009838Y-120346299D01*
X93009912Y-120261167D01*
X93053671Y-120252933D01*
X93150000Y-120272440D01*
X93600000Y-120272440D01*
X93703671Y-120252933D01*
X93800000Y-120272440D01*
X94250000Y-120272440D01*
X94321323Y-120259020D01*
X94323690Y-120260000D01*
X94403750Y-120260000D01*
X94424062Y-120239688D01*
X94485317Y-120228162D01*
X94677227Y-120104671D01*
X94826737Y-120206828D01*
X94826737Y-120206828D01*
G37*
X94826737Y-120206828D02*
X94826638Y-120320767D01*
X94968683Y-120664543D01*
X95231473Y-120927792D01*
X95575001Y-121070438D01*
X95946967Y-121070762D01*
X96290743Y-120928717D01*
X96409783Y-120809885D01*
X98487299Y-122887401D01*
X98733860Y-123052148D01*
X99024700Y-123110000D01*
X99804442Y-123110000D01*
X99846838Y-123335317D01*
X99854342Y-123346979D01*
X99853569Y-123348110D01*
X99802560Y-123600000D01*
X99802560Y-125100000D01*
X99846838Y-125335317D01*
X99985910Y-125551441D01*
X99993720Y-125556778D01*
X99447440Y-126103058D01*
X99447440Y-125075000D01*
X99403162Y-124839683D01*
X99264090Y-124623559D01*
X99051890Y-124478569D01*
X98800000Y-124427560D01*
X98350000Y-124427560D01*
X98246329Y-124447067D01*
X98150000Y-124427560D01*
X97700000Y-124427560D01*
X97628677Y-124440980D01*
X97626310Y-124440000D01*
X97546250Y-124440000D01*
X97525938Y-124460312D01*
X97464683Y-124471838D01*
X97270084Y-124597059D01*
X97209699Y-124536673D01*
X97023153Y-124459403D01*
X97003750Y-124440000D01*
X96896250Y-124440000D01*
X96876847Y-124459403D01*
X96690301Y-124536673D01*
X96628044Y-124598930D01*
X96451890Y-124478569D01*
X96377192Y-124463442D01*
X96353750Y-124440000D01*
X96273690Y-124440000D01*
X96269665Y-124441667D01*
X96200000Y-124427560D01*
X95750000Y-124427560D01*
X95646329Y-124447067D01*
X95550000Y-124427560D01*
X95100000Y-124427560D01*
X94996329Y-124447067D01*
X94900000Y-124427560D01*
X94450000Y-124427560D01*
X94378677Y-124440980D01*
X94376310Y-124440000D01*
X94296250Y-124440000D01*
X94275938Y-124460312D01*
X94214683Y-124471838D01*
X94022773Y-124595329D01*
X93851890Y-124478569D01*
X93777192Y-124463442D01*
X93753750Y-124440000D01*
X93673690Y-124440000D01*
X93669665Y-124441667D01*
X93600000Y-124427560D01*
X93150000Y-124427560D01*
X93046329Y-124447067D01*
X92950000Y-124427560D01*
X92500000Y-124427560D01*
X92428677Y-124440980D01*
X92426310Y-124440000D01*
X92346250Y-124440000D01*
X92325938Y-124460312D01*
X92264683Y-124471838D01*
X92202002Y-124512172D01*
X92202002Y-124440000D01*
X92185000Y-124440000D01*
X92185000Y-123188100D01*
X92127148Y-122897261D01*
X91962401Y-122650699D01*
X90288500Y-120976798D01*
X90288500Y-120272440D01*
X90350000Y-120272440D01*
X90453671Y-120252933D01*
X90550000Y-120272440D01*
X91000000Y-120272440D01*
X91103671Y-120252933D01*
X91139912Y-120260272D01*
X91139838Y-120344667D01*
X91281883Y-120688443D01*
X91544673Y-120951692D01*
X91888201Y-121094338D01*
X92260167Y-121094662D01*
X92603943Y-120952617D01*
X92867192Y-120689827D01*
X93009838Y-120346299D01*
X93009912Y-120261167D01*
X93053671Y-120252933D01*
X93150000Y-120272440D01*
X93600000Y-120272440D01*
X93703671Y-120252933D01*
X93800000Y-120272440D01*
X94250000Y-120272440D01*
X94321323Y-120259020D01*
X94323690Y-120260000D01*
X94403750Y-120260000D01*
X94424062Y-120239688D01*
X94485317Y-120228162D01*
X94677227Y-120104671D01*
X94826737Y-120206828D01*
G36*
X95215000Y-115516250D02*
X95373750Y-115675000D01*
X96023000Y-115675000D01*
X96023000Y-115653000D01*
X96277000Y-115653000D01*
X96277000Y-115675000D01*
X96297000Y-115675000D01*
X96297000Y-115925000D01*
X96277000Y-115925000D01*
X96277000Y-116526250D01*
X96435750Y-116685000D01*
X96576309Y-116685000D01*
X96687283Y-116639033D01*
X96698110Y-116646431D01*
X96950000Y-116697440D01*
X97547938Y-116697440D01*
X97635475Y-116784977D01*
X97595208Y-116825173D01*
X97567389Y-116892167D01*
X97387599Y-117012299D01*
X97243767Y-117227560D01*
X97050000Y-117227560D01*
X96946329Y-117247067D01*
X96850000Y-117227560D01*
X96400000Y-117227560D01*
X96296329Y-117247067D01*
X96200000Y-117227560D01*
X95750000Y-117227560D01*
X95646329Y-117247067D01*
X95550000Y-117227560D01*
X95100000Y-117227560D01*
X95028677Y-117240980D01*
X95026310Y-117240000D01*
X94946250Y-117240000D01*
X94925938Y-117260312D01*
X94864683Y-117271838D01*
X94672773Y-117395329D01*
X94501890Y-117278569D01*
X94427192Y-117263442D01*
X94403750Y-117240000D01*
X94323690Y-117240000D01*
X94319665Y-117241667D01*
X94250000Y-117227560D01*
X93800000Y-117227560D01*
X93696329Y-117247067D01*
X93600000Y-117227560D01*
X93150000Y-117227560D01*
X93046329Y-117247067D01*
X92950000Y-117227560D01*
X92794271Y-117227560D01*
X93009698Y-117138327D01*
X93188327Y-116959699D01*
X93285000Y-116726310D01*
X93285000Y-116085750D01*
X93283000Y-116083750D01*
X95215000Y-116083750D01*
X95215000Y-116176310D01*
X95311673Y-116409699D01*
X95490302Y-116588327D01*
X95723691Y-116685000D01*
X95864250Y-116685000D01*
X96023000Y-116526250D01*
X96023000Y-115925000D01*
X95373750Y-115925000D01*
X95215000Y-116083750D01*
X93283000Y-116083750D01*
X93126250Y-115927000D01*
X92277000Y-115927000D01*
X92277000Y-115947000D01*
X92023000Y-115947000D01*
X92023000Y-115927000D01*
X92003000Y-115927000D01*
X92003000Y-115807581D01*
X92026748Y-115772039D01*
X92050427Y-115653000D01*
X92277000Y-115653000D01*
X92277000Y-115673000D01*
X93126250Y-115673000D01*
X93285000Y-115514250D01*
X93285000Y-115434600D01*
X95215000Y-115434600D01*
X95215000Y-115516250D01*
X95215000Y-115516250D01*
G37*
X95215000Y-115516250D02*
X95373750Y-115675000D01*
X96023000Y-115675000D01*
X96023000Y-115653000D01*
X96277000Y-115653000D01*
X96277000Y-115675000D01*
X96297000Y-115675000D01*
X96297000Y-115925000D01*
X96277000Y-115925000D01*
X96277000Y-116526250D01*
X96435750Y-116685000D01*
X96576309Y-116685000D01*
X96687283Y-116639033D01*
X96698110Y-116646431D01*
X96950000Y-116697440D01*
X97547938Y-116697440D01*
X97635475Y-116784977D01*
X97595208Y-116825173D01*
X97567389Y-116892167D01*
X97387599Y-117012299D01*
X97243767Y-117227560D01*
X97050000Y-117227560D01*
X96946329Y-117247067D01*
X96850000Y-117227560D01*
X96400000Y-117227560D01*
X96296329Y-117247067D01*
X96200000Y-117227560D01*
X95750000Y-117227560D01*
X95646329Y-117247067D01*
X95550000Y-117227560D01*
X95100000Y-117227560D01*
X95028677Y-117240980D01*
X95026310Y-117240000D01*
X94946250Y-117240000D01*
X94925938Y-117260312D01*
X94864683Y-117271838D01*
X94672773Y-117395329D01*
X94501890Y-117278569D01*
X94427192Y-117263442D01*
X94403750Y-117240000D01*
X94323690Y-117240000D01*
X94319665Y-117241667D01*
X94250000Y-117227560D01*
X93800000Y-117227560D01*
X93696329Y-117247067D01*
X93600000Y-117227560D01*
X93150000Y-117227560D01*
X93046329Y-117247067D01*
X92950000Y-117227560D01*
X92794271Y-117227560D01*
X93009698Y-117138327D01*
X93188327Y-116959699D01*
X93285000Y-116726310D01*
X93285000Y-116085750D01*
X93283000Y-116083750D01*
X95215000Y-116083750D01*
X95215000Y-116176310D01*
X95311673Y-116409699D01*
X95490302Y-116588327D01*
X95723691Y-116685000D01*
X95864250Y-116685000D01*
X96023000Y-116526250D01*
X96023000Y-115925000D01*
X95373750Y-115925000D01*
X95215000Y-116083750D01*
X93283000Y-116083750D01*
X93126250Y-115927000D01*
X92277000Y-115927000D01*
X92277000Y-115947000D01*
X92023000Y-115947000D01*
X92023000Y-115927000D01*
X92003000Y-115927000D01*
X92003000Y-115807581D01*
X92026748Y-115772039D01*
X92050427Y-115653000D01*
X92277000Y-115653000D01*
X92277000Y-115673000D01*
X93126250Y-115673000D01*
X93285000Y-115514250D01*
X93285000Y-115434600D01*
X95215000Y-115434600D01*
X95215000Y-115516250D01*
G36*
X130452000Y-124650000D02*
X130472000Y-124650000D01*
X130472000Y-124900000D01*
X130452000Y-124900000D01*
X130452000Y-125501250D01*
X130537545Y-125586795D01*
X130478569Y-125673110D01*
X130427560Y-125925000D01*
X130427560Y-128025000D01*
X130471838Y-128260317D01*
X130515000Y-128327393D01*
X130515000Y-128350300D01*
X130572852Y-128641139D01*
X130642637Y-128745580D01*
X130501632Y-128752638D01*
X130117857Y-128911603D01*
X130048392Y-129153787D01*
X130849000Y-129954395D01*
X130863143Y-129940253D01*
X131042748Y-130119858D01*
X131028605Y-130134000D01*
X131042748Y-130148143D01*
X130863143Y-130327748D01*
X130849000Y-130313605D01*
X130834858Y-130327748D01*
X130655253Y-130148143D01*
X130669395Y-130134000D01*
X129868787Y-129333392D01*
X129626603Y-129402857D01*
X129576491Y-129543318D01*
X129494010Y-129343697D01*
X129101370Y-128950371D01*
X128588100Y-128737243D01*
X128032339Y-128736758D01*
X127518697Y-128948990D01*
X127125371Y-129341630D01*
X127039051Y-129549512D01*
X126954010Y-129343697D01*
X126561370Y-128950371D01*
X126164571Y-128785606D01*
X126184838Y-128736799D01*
X126185162Y-128364833D01*
X126043117Y-128021057D01*
X125780327Y-127757808D01*
X125436799Y-127615162D01*
X125064833Y-127614838D01*
X124721057Y-127756883D01*
X124457808Y-128019673D01*
X124315162Y-128363201D01*
X124315121Y-128410077D01*
X123847164Y-128878034D01*
X123508100Y-128737243D01*
X122952339Y-128736758D01*
X122438697Y-128948990D01*
X122045371Y-129341630D01*
X121832243Y-129854900D01*
X121831758Y-130410661D01*
X121947178Y-130690000D01*
X120110000Y-130690000D01*
X120110000Y-130140676D01*
X120481302Y-130273144D01*
X121036368Y-130245362D01*
X121420143Y-130086397D01*
X121489608Y-129844213D01*
X120689000Y-129043605D01*
X120674858Y-129057748D01*
X120495253Y-128878143D01*
X120509395Y-128864000D01*
X120868605Y-128864000D01*
X121669213Y-129664608D01*
X121911397Y-129595143D01*
X122098144Y-129071698D01*
X122070362Y-128516632D01*
X121911397Y-128132857D01*
X121669213Y-128063392D01*
X120868605Y-128864000D01*
X120509395Y-128864000D01*
X120495253Y-128849858D01*
X120674858Y-128670253D01*
X120689000Y-128684395D01*
X121489608Y-127883787D01*
X121420143Y-127641603D01*
X121296656Y-127597547D01*
X121420143Y-127546397D01*
X121489608Y-127304213D01*
X120689000Y-126503605D01*
X120674858Y-126517748D01*
X120495253Y-126338143D01*
X120509395Y-126324000D01*
X120495253Y-126309858D01*
X120674858Y-126130253D01*
X120689000Y-126144395D01*
X120703143Y-126130253D01*
X120882748Y-126309858D01*
X120868605Y-126324000D01*
X121669213Y-127124608D01*
X121911397Y-127055143D01*
X122098144Y-126531698D01*
X122084247Y-126254049D01*
X122342599Y-126512401D01*
X122589161Y-126677148D01*
X122880000Y-126735000D01*
X124427560Y-126735000D01*
X124427560Y-126775000D01*
X124471838Y-127010317D01*
X124610910Y-127226441D01*
X124823110Y-127371431D01*
X125075000Y-127422440D01*
X126075000Y-127422440D01*
X126310317Y-127378162D01*
X126526441Y-127239090D01*
X126671431Y-127026890D01*
X126722440Y-126775000D01*
X126722440Y-126656233D01*
X126937701Y-126512401D01*
X127440000Y-126010102D01*
X127440000Y-126102002D01*
X127598748Y-126102002D01*
X127440000Y-126260750D01*
X127440000Y-126901310D01*
X127536673Y-127134699D01*
X127715302Y-127313327D01*
X127948691Y-127410000D01*
X128289250Y-127410000D01*
X128448000Y-127251250D01*
X128448000Y-126102000D01*
X128702000Y-126102000D01*
X128702000Y-127251250D01*
X128860750Y-127410000D01*
X129201309Y-127410000D01*
X129434698Y-127313327D01*
X129613327Y-127134699D01*
X129710000Y-126901310D01*
X129710000Y-126260750D01*
X129551250Y-126102000D01*
X128702000Y-126102000D01*
X128448000Y-126102000D01*
X128428000Y-126102000D01*
X128428000Y-125848000D01*
X128448000Y-125848000D01*
X128448000Y-125828000D01*
X128702000Y-125828000D01*
X128702000Y-125848000D01*
X129551250Y-125848000D01*
X129710000Y-125689250D01*
X129710000Y-125581842D01*
X129898691Y-125660000D01*
X130039250Y-125660000D01*
X130198000Y-125501250D01*
X130198000Y-124900000D01*
X130178000Y-124900000D01*
X130178000Y-124650000D01*
X130198000Y-124650000D01*
X130198000Y-124628000D01*
X130452000Y-124628000D01*
X130452000Y-124650000D01*
X130452000Y-124650000D01*
G37*
X130452000Y-124650000D02*
X130472000Y-124650000D01*
X130472000Y-124900000D01*
X130452000Y-124900000D01*
X130452000Y-125501250D01*
X130537545Y-125586795D01*
X130478569Y-125673110D01*
X130427560Y-125925000D01*
X130427560Y-128025000D01*
X130471838Y-128260317D01*
X130515000Y-128327393D01*
X130515000Y-128350300D01*
X130572852Y-128641139D01*
X130642637Y-128745580D01*
X130501632Y-128752638D01*
X130117857Y-128911603D01*
X130048392Y-129153787D01*
X130849000Y-129954395D01*
X130863143Y-129940253D01*
X131042748Y-130119858D01*
X131028605Y-130134000D01*
X131042748Y-130148143D01*
X130863143Y-130327748D01*
X130849000Y-130313605D01*
X130834858Y-130327748D01*
X130655253Y-130148143D01*
X130669395Y-130134000D01*
X129868787Y-129333392D01*
X129626603Y-129402857D01*
X129576491Y-129543318D01*
X129494010Y-129343697D01*
X129101370Y-128950371D01*
X128588100Y-128737243D01*
X128032339Y-128736758D01*
X127518697Y-128948990D01*
X127125371Y-129341630D01*
X127039051Y-129549512D01*
X126954010Y-129343697D01*
X126561370Y-128950371D01*
X126164571Y-128785606D01*
X126184838Y-128736799D01*
X126185162Y-128364833D01*
X126043117Y-128021057D01*
X125780327Y-127757808D01*
X125436799Y-127615162D01*
X125064833Y-127614838D01*
X124721057Y-127756883D01*
X124457808Y-128019673D01*
X124315162Y-128363201D01*
X124315121Y-128410077D01*
X123847164Y-128878034D01*
X123508100Y-128737243D01*
X122952339Y-128736758D01*
X122438697Y-128948990D01*
X122045371Y-129341630D01*
X121832243Y-129854900D01*
X121831758Y-130410661D01*
X121947178Y-130690000D01*
X120110000Y-130690000D01*
X120110000Y-130140676D01*
X120481302Y-130273144D01*
X121036368Y-130245362D01*
X121420143Y-130086397D01*
X121489608Y-129844213D01*
X120689000Y-129043605D01*
X120674858Y-129057748D01*
X120495253Y-128878143D01*
X120509395Y-128864000D01*
X120868605Y-128864000D01*
X121669213Y-129664608D01*
X121911397Y-129595143D01*
X122098144Y-129071698D01*
X122070362Y-128516632D01*
X121911397Y-128132857D01*
X121669213Y-128063392D01*
X120868605Y-128864000D01*
X120509395Y-128864000D01*
X120495253Y-128849858D01*
X120674858Y-128670253D01*
X120689000Y-128684395D01*
X121489608Y-127883787D01*
X121420143Y-127641603D01*
X121296656Y-127597547D01*
X121420143Y-127546397D01*
X121489608Y-127304213D01*
X120689000Y-126503605D01*
X120674858Y-126517748D01*
X120495253Y-126338143D01*
X120509395Y-126324000D01*
X120495253Y-126309858D01*
X120674858Y-126130253D01*
X120689000Y-126144395D01*
X120703143Y-126130253D01*
X120882748Y-126309858D01*
X120868605Y-126324000D01*
X121669213Y-127124608D01*
X121911397Y-127055143D01*
X122098144Y-126531698D01*
X122084247Y-126254049D01*
X122342599Y-126512401D01*
X122589161Y-126677148D01*
X122880000Y-126735000D01*
X124427560Y-126735000D01*
X124427560Y-126775000D01*
X124471838Y-127010317D01*
X124610910Y-127226441D01*
X124823110Y-127371431D01*
X125075000Y-127422440D01*
X126075000Y-127422440D01*
X126310317Y-127378162D01*
X126526441Y-127239090D01*
X126671431Y-127026890D01*
X126722440Y-126775000D01*
X126722440Y-126656233D01*
X126937701Y-126512401D01*
X127440000Y-126010102D01*
X127440000Y-126102002D01*
X127598748Y-126102002D01*
X127440000Y-126260750D01*
X127440000Y-126901310D01*
X127536673Y-127134699D01*
X127715302Y-127313327D01*
X127948691Y-127410000D01*
X128289250Y-127410000D01*
X128448000Y-127251250D01*
X128448000Y-126102000D01*
X128702000Y-126102000D01*
X128702000Y-127251250D01*
X128860750Y-127410000D01*
X129201309Y-127410000D01*
X129434698Y-127313327D01*
X129613327Y-127134699D01*
X129710000Y-126901310D01*
X129710000Y-126260750D01*
X129551250Y-126102000D01*
X128702000Y-126102000D01*
X128448000Y-126102000D01*
X128428000Y-126102000D01*
X128428000Y-125848000D01*
X128448000Y-125848000D01*
X128448000Y-125828000D01*
X128702000Y-125828000D01*
X128702000Y-125848000D01*
X129551250Y-125848000D01*
X129710000Y-125689250D01*
X129710000Y-125581842D01*
X129898691Y-125660000D01*
X130039250Y-125660000D01*
X130198000Y-125501250D01*
X130198000Y-124900000D01*
X130178000Y-124900000D01*
X130178000Y-124650000D01*
X130198000Y-124650000D01*
X130198000Y-124628000D01*
X130452000Y-124628000D01*
X130452000Y-124650000D01*
G36*
X146177560Y-126395000D02*
X146221838Y-126630317D01*
X146360910Y-126846441D01*
X146573110Y-126991431D01*
X146591467Y-126995148D01*
X146590000Y-126998690D01*
X146590000Y-127091250D01*
X146745448Y-127246698D01*
X145755898Y-127246698D01*
X144784891Y-126275691D01*
X144784933Y-126227400D01*
X145612500Y-126227400D01*
X145737501Y-126202536D01*
X145997467Y-126202762D01*
X146177560Y-126128349D01*
X146177560Y-126395000D01*
X146177560Y-126395000D01*
G37*
X146177560Y-126395000D02*
X146221838Y-126630317D01*
X146360910Y-126846441D01*
X146573110Y-126991431D01*
X146591467Y-126995148D01*
X146590000Y-126998690D01*
X146590000Y-127091250D01*
X146745448Y-127246698D01*
X145755898Y-127246698D01*
X144784891Y-126275691D01*
X144784933Y-126227400D01*
X145612500Y-126227400D01*
X145737501Y-126202536D01*
X145997467Y-126202762D01*
X146177560Y-126128349D01*
X146177560Y-126395000D01*
G36*
X132650857Y-124758254D02*
X132759733Y-124832646D01*
X132827634Y-124935030D01*
X133216543Y-125323939D01*
X133226182Y-125330525D01*
X133075507Y-125427482D01*
X133034698Y-125386673D01*
X132801309Y-125290000D01*
X132733750Y-125290000D01*
X132575000Y-125448750D01*
X132575000Y-126848000D01*
X132622000Y-126848000D01*
X132622000Y-127102000D01*
X132575000Y-127102000D01*
X132575000Y-127122000D01*
X132375000Y-127122000D01*
X132375000Y-127102000D01*
X132328000Y-127102000D01*
X132328000Y-126848000D01*
X132375000Y-126848000D01*
X132375000Y-125448750D01*
X132273415Y-125347165D01*
X132321431Y-125276890D01*
X132372440Y-125025000D01*
X132372440Y-124525000D01*
X132361972Y-124469369D01*
X132650857Y-124758254D01*
X132650857Y-124758254D01*
G37*
X132650857Y-124758254D02*
X132759733Y-124832646D01*
X132827634Y-124935030D01*
X133216543Y-125323939D01*
X133226182Y-125330525D01*
X133075507Y-125427482D01*
X133034698Y-125386673D01*
X132801309Y-125290000D01*
X132733750Y-125290000D01*
X132575000Y-125448750D01*
X132575000Y-126848000D01*
X132622000Y-126848000D01*
X132622000Y-127102000D01*
X132575000Y-127102000D01*
X132575000Y-127122000D01*
X132375000Y-127122000D01*
X132375000Y-127102000D01*
X132328000Y-127102000D01*
X132328000Y-126848000D01*
X132375000Y-126848000D01*
X132375000Y-125448750D01*
X132273415Y-125347165D01*
X132321431Y-125276890D01*
X132372440Y-125025000D01*
X132372440Y-124525000D01*
X132361972Y-124469369D01*
X132650857Y-124758254D01*
G36*
X149983990Y-115684303D02*
X150376630Y-116077629D01*
X150889900Y-116290757D01*
X151445661Y-116291242D01*
X151740000Y-116169624D01*
X151740000Y-116591975D01*
X151684698Y-116536673D01*
X151451309Y-116440000D01*
X151383750Y-116440000D01*
X151225000Y-116598750D01*
X151225000Y-117248000D01*
X151272000Y-117248000D01*
X151272000Y-117502000D01*
X151225000Y-117502000D01*
X151225000Y-118151250D01*
X151252000Y-118178250D01*
X151252000Y-119118000D01*
X151272000Y-119118000D01*
X151272000Y-119372000D01*
X151252000Y-119372000D01*
X151252000Y-120571250D01*
X151410750Y-120730000D01*
X151740000Y-120730000D01*
X151740000Y-124060000D01*
X151410750Y-124060000D01*
X151252000Y-124218750D01*
X151252000Y-125418000D01*
X151272000Y-125418000D01*
X151272000Y-125672000D01*
X151252000Y-125672000D01*
X151252000Y-125692000D01*
X150998000Y-125692000D01*
X150998000Y-125672000D01*
X150978000Y-125672000D01*
X150978000Y-125418000D01*
X150998000Y-125418000D01*
X150998000Y-124218750D01*
X150839250Y-124060000D01*
X150498690Y-124060000D01*
X150265301Y-124156673D01*
X150086673Y-124335302D01*
X149990000Y-124568691D01*
X149990000Y-125255532D01*
X149893117Y-125021057D01*
X149630327Y-124757808D01*
X149286799Y-124615162D01*
X148914833Y-124614838D01*
X148571057Y-124756883D01*
X148542891Y-124785000D01*
X148472440Y-124785000D01*
X148472440Y-124695000D01*
X148428162Y-124459683D01*
X148289090Y-124243559D01*
X148085000Y-124104110D01*
X148085000Y-123387419D01*
X148142192Y-123330327D01*
X148284838Y-122986799D01*
X148285162Y-122614833D01*
X148143117Y-122271057D01*
X147880327Y-122007808D01*
X147536799Y-121865162D01*
X147164833Y-121864838D01*
X146821057Y-122006883D01*
X146557808Y-122269673D01*
X146415162Y-122613201D01*
X146414838Y-122985167D01*
X146556883Y-123328943D01*
X146565000Y-123337074D01*
X146565000Y-124107721D01*
X146373559Y-124230910D01*
X146236587Y-124431376D01*
X145999099Y-124332762D01*
X145627133Y-124332438D01*
X145457517Y-124402522D01*
X145344317Y-124128557D01*
X145081527Y-123865308D01*
X144978478Y-123822518D01*
X145225000Y-123872440D01*
X145725000Y-123872440D01*
X145960317Y-123828162D01*
X146176441Y-123689090D01*
X146321431Y-123476890D01*
X146372440Y-123225000D01*
X146372440Y-122625000D01*
X146328162Y-122389683D01*
X146312661Y-122365594D01*
X146360000Y-122251309D01*
X146360000Y-122110750D01*
X146201250Y-121952000D01*
X145600000Y-121952000D01*
X145600000Y-121972000D01*
X145350000Y-121972000D01*
X145350000Y-121952000D01*
X145328000Y-121952000D01*
X145328000Y-121698000D01*
X145350000Y-121698000D01*
X145350000Y-121048750D01*
X145600000Y-121048750D01*
X145600000Y-121698000D01*
X146201250Y-121698000D01*
X146360000Y-121539250D01*
X146360000Y-121398691D01*
X146263327Y-121165302D01*
X146084699Y-120986673D01*
X145851310Y-120890000D01*
X145758750Y-120890000D01*
X145600000Y-121048750D01*
X145350000Y-121048750D01*
X145191250Y-120890000D01*
X145098690Y-120890000D01*
X144954971Y-120949530D01*
X144997705Y-120734697D01*
X146177560Y-119554842D01*
X146177560Y-120095000D01*
X146221838Y-120330317D01*
X146360910Y-120546441D01*
X146573110Y-120691431D01*
X146825000Y-120742440D01*
X147825000Y-120742440D01*
X148029213Y-120704015D01*
X148314878Y-120989680D01*
X148314838Y-121035167D01*
X148456883Y-121378943D01*
X148719673Y-121642192D01*
X149063201Y-121784838D01*
X149435167Y-121785162D01*
X149778943Y-121643117D01*
X150042192Y-121380327D01*
X150184838Y-121036799D01*
X150185162Y-120664833D01*
X150106549Y-120474574D01*
X150265301Y-120633327D01*
X150498690Y-120730000D01*
X150839250Y-120730000D01*
X150998000Y-120571250D01*
X150998000Y-119372000D01*
X150148750Y-119372000D01*
X149990000Y-119530750D01*
X149990000Y-120221309D01*
X150022948Y-120300853D01*
X149780327Y-120057808D01*
X149436799Y-119915162D01*
X149389923Y-119915121D01*
X148472440Y-118997638D01*
X148472440Y-118421220D01*
X148823080Y-118421220D01*
X149058397Y-118376942D01*
X149274521Y-118237870D01*
X149344809Y-118135000D01*
X149573437Y-118135000D01*
X149773110Y-118271431D01*
X149990000Y-118315352D01*
X149990000Y-118959250D01*
X150148750Y-119118000D01*
X150998000Y-119118000D01*
X150998000Y-118178250D01*
X151025000Y-118151250D01*
X151025000Y-117909266D01*
X151072440Y-117675000D01*
X151072440Y-117075000D01*
X151028162Y-116839683D01*
X151025000Y-116834769D01*
X151025000Y-116598750D01*
X150866250Y-116440000D01*
X150798691Y-116440000D01*
X150687717Y-116485967D01*
X150676890Y-116478569D01*
X150425000Y-116427560D01*
X150025000Y-116427560D01*
X149789683Y-116471838D01*
X149573559Y-116610910D01*
X149570764Y-116615000D01*
X149345226Y-116615000D01*
X149287170Y-116524779D01*
X149074970Y-116379789D01*
X148823080Y-116328780D01*
X148025520Y-116328780D01*
X147790203Y-116373058D01*
X147675007Y-116447185D01*
X147576370Y-116379789D01*
X147324480Y-116328780D01*
X146526920Y-116328780D01*
X146291603Y-116373058D01*
X146176760Y-116446958D01*
X146020743Y-116290941D01*
X146365661Y-116291242D01*
X146879303Y-116079010D01*
X147272629Y-115686370D01*
X147286070Y-115654000D01*
X147344000Y-115654000D01*
X147424826Y-115637923D01*
X147443990Y-115684303D01*
X147836630Y-116077629D01*
X148349900Y-116290757D01*
X148905661Y-116291242D01*
X149419303Y-116079010D01*
X149812629Y-115686370D01*
X149898949Y-115478488D01*
X149983990Y-115684303D01*
X149983990Y-115684303D01*
G37*
X149983990Y-115684303D02*
X150376630Y-116077629D01*
X150889900Y-116290757D01*
X151445661Y-116291242D01*
X151740000Y-116169624D01*
X151740000Y-116591975D01*
X151684698Y-116536673D01*
X151451309Y-116440000D01*
X151383750Y-116440000D01*
X151225000Y-116598750D01*
X151225000Y-117248000D01*
X151272000Y-117248000D01*
X151272000Y-117502000D01*
X151225000Y-117502000D01*
X151225000Y-118151250D01*
X151252000Y-118178250D01*
X151252000Y-119118000D01*
X151272000Y-119118000D01*
X151272000Y-119372000D01*
X151252000Y-119372000D01*
X151252000Y-120571250D01*
X151410750Y-120730000D01*
X151740000Y-120730000D01*
X151740000Y-124060000D01*
X151410750Y-124060000D01*
X151252000Y-124218750D01*
X151252000Y-125418000D01*
X151272000Y-125418000D01*
X151272000Y-125672000D01*
X151252000Y-125672000D01*
X151252000Y-125692000D01*
X150998000Y-125692000D01*
X150998000Y-125672000D01*
X150978000Y-125672000D01*
X150978000Y-125418000D01*
X150998000Y-125418000D01*
X150998000Y-124218750D01*
X150839250Y-124060000D01*
X150498690Y-124060000D01*
X150265301Y-124156673D01*
X150086673Y-124335302D01*
X149990000Y-124568691D01*
X149990000Y-125255532D01*
X149893117Y-125021057D01*
X149630327Y-124757808D01*
X149286799Y-124615162D01*
X148914833Y-124614838D01*
X148571057Y-124756883D01*
X148542891Y-124785000D01*
X148472440Y-124785000D01*
X148472440Y-124695000D01*
X148428162Y-124459683D01*
X148289090Y-124243559D01*
X148085000Y-124104110D01*
X148085000Y-123387419D01*
X148142192Y-123330327D01*
X148284838Y-122986799D01*
X148285162Y-122614833D01*
X148143117Y-122271057D01*
X147880327Y-122007808D01*
X147536799Y-121865162D01*
X147164833Y-121864838D01*
X146821057Y-122006883D01*
X146557808Y-122269673D01*
X146415162Y-122613201D01*
X146414838Y-122985167D01*
X146556883Y-123328943D01*
X146565000Y-123337074D01*
X146565000Y-124107721D01*
X146373559Y-124230910D01*
X146236587Y-124431376D01*
X145999099Y-124332762D01*
X145627133Y-124332438D01*
X145457517Y-124402522D01*
X145344317Y-124128557D01*
X145081527Y-123865308D01*
X144978478Y-123822518D01*
X145225000Y-123872440D01*
X145725000Y-123872440D01*
X145960317Y-123828162D01*
X146176441Y-123689090D01*
X146321431Y-123476890D01*
X146372440Y-123225000D01*
X146372440Y-122625000D01*
X146328162Y-122389683D01*
X146312661Y-122365594D01*
X146360000Y-122251309D01*
X146360000Y-122110750D01*
X146201250Y-121952000D01*
X145600000Y-121952000D01*
X145600000Y-121972000D01*
X145350000Y-121972000D01*
X145350000Y-121952000D01*
X145328000Y-121952000D01*
X145328000Y-121698000D01*
X145350000Y-121698000D01*
X145350000Y-121048750D01*
X145600000Y-121048750D01*
X145600000Y-121698000D01*
X146201250Y-121698000D01*
X146360000Y-121539250D01*
X146360000Y-121398691D01*
X146263327Y-121165302D01*
X146084699Y-120986673D01*
X145851310Y-120890000D01*
X145758750Y-120890000D01*
X145600000Y-121048750D01*
X145350000Y-121048750D01*
X145191250Y-120890000D01*
X145098690Y-120890000D01*
X144954971Y-120949530D01*
X144997705Y-120734697D01*
X146177560Y-119554842D01*
X146177560Y-120095000D01*
X146221838Y-120330317D01*
X146360910Y-120546441D01*
X146573110Y-120691431D01*
X146825000Y-120742440D01*
X147825000Y-120742440D01*
X148029213Y-120704015D01*
X148314878Y-120989680D01*
X148314838Y-121035167D01*
X148456883Y-121378943D01*
X148719673Y-121642192D01*
X149063201Y-121784838D01*
X149435167Y-121785162D01*
X149778943Y-121643117D01*
X150042192Y-121380327D01*
X150184838Y-121036799D01*
X150185162Y-120664833D01*
X150106549Y-120474574D01*
X150265301Y-120633327D01*
X150498690Y-120730000D01*
X150839250Y-120730000D01*
X150998000Y-120571250D01*
X150998000Y-119372000D01*
X150148750Y-119372000D01*
X149990000Y-119530750D01*
X149990000Y-120221309D01*
X150022948Y-120300853D01*
X149780327Y-120057808D01*
X149436799Y-119915162D01*
X149389923Y-119915121D01*
X148472440Y-118997638D01*
X148472440Y-118421220D01*
X148823080Y-118421220D01*
X149058397Y-118376942D01*
X149274521Y-118237870D01*
X149344809Y-118135000D01*
X149573437Y-118135000D01*
X149773110Y-118271431D01*
X149990000Y-118315352D01*
X149990000Y-118959250D01*
X150148750Y-119118000D01*
X150998000Y-119118000D01*
X150998000Y-118178250D01*
X151025000Y-118151250D01*
X151025000Y-117909266D01*
X151072440Y-117675000D01*
X151072440Y-117075000D01*
X151028162Y-116839683D01*
X151025000Y-116834769D01*
X151025000Y-116598750D01*
X150866250Y-116440000D01*
X150798691Y-116440000D01*
X150687717Y-116485967D01*
X150676890Y-116478569D01*
X150425000Y-116427560D01*
X150025000Y-116427560D01*
X149789683Y-116471838D01*
X149573559Y-116610910D01*
X149570764Y-116615000D01*
X149345226Y-116615000D01*
X149287170Y-116524779D01*
X149074970Y-116379789D01*
X148823080Y-116328780D01*
X148025520Y-116328780D01*
X147790203Y-116373058D01*
X147675007Y-116447185D01*
X147576370Y-116379789D01*
X147324480Y-116328780D01*
X146526920Y-116328780D01*
X146291603Y-116373058D01*
X146176760Y-116446958D01*
X146020743Y-116290941D01*
X146365661Y-116291242D01*
X146879303Y-116079010D01*
X147272629Y-115686370D01*
X147286070Y-115654000D01*
X147344000Y-115654000D01*
X147424826Y-115637923D01*
X147443990Y-115684303D01*
X147836630Y-116077629D01*
X148349900Y-116290757D01*
X148905661Y-116291242D01*
X149419303Y-116079010D01*
X149812629Y-115686370D01*
X149898949Y-115478488D01*
X149983990Y-115684303D01*
G36*
X123564883Y-124883959D02*
X123564838Y-124935167D01*
X123680462Y-125215000D01*
X123194802Y-125215000D01*
X122073183Y-124093381D01*
X122085757Y-124063100D01*
X122086242Y-123507339D01*
X121998449Y-123294863D01*
X123564883Y-124883959D01*
X123564883Y-124883959D01*
G37*
X123564883Y-124883959D02*
X123564838Y-124935167D01*
X123680462Y-125215000D01*
X123194802Y-125215000D01*
X122073183Y-124093381D01*
X122085757Y-124063100D01*
X122086242Y-123507339D01*
X121998449Y-123294863D01*
X123564883Y-124883959D01*
G36*
X125962748Y-114879858D02*
X125948605Y-114894000D01*
X126749213Y-115694608D01*
X126991397Y-115625143D01*
X127041509Y-115484682D01*
X127123990Y-115684303D01*
X127516630Y-116077629D01*
X128029900Y-116290757D01*
X128136805Y-116290850D01*
X128182652Y-116521339D01*
X128347399Y-116767901D01*
X128919498Y-117340000D01*
X128860750Y-117340000D01*
X128702000Y-117498750D01*
X128702000Y-118648000D01*
X129551250Y-118648000D01*
X129710000Y-118489250D01*
X129710000Y-118130502D01*
X131013799Y-119434301D01*
X131260361Y-119599048D01*
X131539638Y-119654600D01*
X131539538Y-119769167D01*
X131681583Y-120112943D01*
X131944373Y-120376192D01*
X132287901Y-120518838D01*
X132403664Y-120518939D01*
X132261948Y-120660655D01*
X132126863Y-120858358D01*
X132072379Y-121109520D01*
X132119903Y-121362091D01*
X132261948Y-121576273D01*
X132445380Y-121759705D01*
X132386208Y-121818773D01*
X132243562Y-122162301D01*
X132243238Y-122534267D01*
X132385283Y-122878043D01*
X132611260Y-123104415D01*
X132261948Y-123453727D01*
X132126863Y-123651430D01*
X132084776Y-123845445D01*
X131962401Y-123662299D01*
X131709100Y-123408998D01*
X131709100Y-123254300D01*
X131651248Y-122963461D01*
X131486501Y-122716899D01*
X131239939Y-122552152D01*
X131174817Y-122539198D01*
X131152815Y-122505007D01*
X131220211Y-122406370D01*
X131271220Y-122154480D01*
X131271220Y-121356920D01*
X131226942Y-121121603D01*
X131087870Y-120905479D01*
X130875670Y-120760489D01*
X130623780Y-120709480D01*
X129826220Y-120709480D01*
X129597440Y-120752528D01*
X129597440Y-120745000D01*
X129553162Y-120509683D01*
X129414090Y-120293559D01*
X129351387Y-120250716D01*
X129332480Y-120155667D01*
X129434698Y-120113327D01*
X129613327Y-119934699D01*
X129710000Y-119701310D01*
X129710000Y-119060750D01*
X129551250Y-118902000D01*
X128702000Y-118902000D01*
X128702000Y-118922000D01*
X128448000Y-118922000D01*
X128448000Y-118902000D01*
X127598750Y-118902000D01*
X127440000Y-119060750D01*
X127440000Y-119659700D01*
X127039802Y-119659700D01*
X126743001Y-119362899D01*
X126722440Y-119349161D01*
X126722440Y-117975000D01*
X126698674Y-117848690D01*
X127440000Y-117848690D01*
X127440000Y-118489250D01*
X127598750Y-118648000D01*
X128448000Y-118648000D01*
X128448000Y-117498750D01*
X128289250Y-117340000D01*
X127948691Y-117340000D01*
X127715302Y-117436673D01*
X127536673Y-117615301D01*
X127440000Y-117848690D01*
X126698674Y-117848690D01*
X126678162Y-117739683D01*
X126539090Y-117523559D01*
X126335000Y-117384110D01*
X126335000Y-117240000D01*
X126277148Y-116949161D01*
X126112401Y-116702599D01*
X125705718Y-116295916D01*
X126116368Y-116275362D01*
X126500143Y-116116397D01*
X126569608Y-115874213D01*
X125769000Y-115073605D01*
X125754858Y-115087748D01*
X125575253Y-114908143D01*
X125589395Y-114894000D01*
X125575253Y-114879858D01*
X125754858Y-114700253D01*
X125769000Y-114714395D01*
X125783143Y-114700253D01*
X125962748Y-114879858D01*
X125962748Y-114879858D01*
G37*
X125962748Y-114879858D02*
X125948605Y-114894000D01*
X126749213Y-115694608D01*
X126991397Y-115625143D01*
X127041509Y-115484682D01*
X127123990Y-115684303D01*
X127516630Y-116077629D01*
X128029900Y-116290757D01*
X128136805Y-116290850D01*
X128182652Y-116521339D01*
X128347399Y-116767901D01*
X128919498Y-117340000D01*
X128860750Y-117340000D01*
X128702000Y-117498750D01*
X128702000Y-118648000D01*
X129551250Y-118648000D01*
X129710000Y-118489250D01*
X129710000Y-118130502D01*
X131013799Y-119434301D01*
X131260361Y-119599048D01*
X131539638Y-119654600D01*
X131539538Y-119769167D01*
X131681583Y-120112943D01*
X131944373Y-120376192D01*
X132287901Y-120518838D01*
X132403664Y-120518939D01*
X132261948Y-120660655D01*
X132126863Y-120858358D01*
X132072379Y-121109520D01*
X132119903Y-121362091D01*
X132261948Y-121576273D01*
X132445380Y-121759705D01*
X132386208Y-121818773D01*
X132243562Y-122162301D01*
X132243238Y-122534267D01*
X132385283Y-122878043D01*
X132611260Y-123104415D01*
X132261948Y-123453727D01*
X132126863Y-123651430D01*
X132084776Y-123845445D01*
X131962401Y-123662299D01*
X131709100Y-123408998D01*
X131709100Y-123254300D01*
X131651248Y-122963461D01*
X131486501Y-122716899D01*
X131239939Y-122552152D01*
X131174817Y-122539198D01*
X131152815Y-122505007D01*
X131220211Y-122406370D01*
X131271220Y-122154480D01*
X131271220Y-121356920D01*
X131226942Y-121121603D01*
X131087870Y-120905479D01*
X130875670Y-120760489D01*
X130623780Y-120709480D01*
X129826220Y-120709480D01*
X129597440Y-120752528D01*
X129597440Y-120745000D01*
X129553162Y-120509683D01*
X129414090Y-120293559D01*
X129351387Y-120250716D01*
X129332480Y-120155667D01*
X129434698Y-120113327D01*
X129613327Y-119934699D01*
X129710000Y-119701310D01*
X129710000Y-119060750D01*
X129551250Y-118902000D01*
X128702000Y-118902000D01*
X128702000Y-118922000D01*
X128448000Y-118922000D01*
X128448000Y-118902000D01*
X127598750Y-118902000D01*
X127440000Y-119060750D01*
X127440000Y-119659700D01*
X127039802Y-119659700D01*
X126743001Y-119362899D01*
X126722440Y-119349161D01*
X126722440Y-117975000D01*
X126698674Y-117848690D01*
X127440000Y-117848690D01*
X127440000Y-118489250D01*
X127598750Y-118648000D01*
X128448000Y-118648000D01*
X128448000Y-117498750D01*
X128289250Y-117340000D01*
X127948691Y-117340000D01*
X127715302Y-117436673D01*
X127536673Y-117615301D01*
X127440000Y-117848690D01*
X126698674Y-117848690D01*
X126678162Y-117739683D01*
X126539090Y-117523559D01*
X126335000Y-117384110D01*
X126335000Y-117240000D01*
X126277148Y-116949161D01*
X126112401Y-116702599D01*
X125705718Y-116295916D01*
X126116368Y-116275362D01*
X126500143Y-116116397D01*
X126569608Y-115874213D01*
X125769000Y-115073605D01*
X125754858Y-115087748D01*
X125575253Y-114908143D01*
X125589395Y-114894000D01*
X125575253Y-114879858D01*
X125754858Y-114700253D01*
X125769000Y-114714395D01*
X125783143Y-114700253D01*
X125962748Y-114879858D01*
G36*
X123008861Y-120027148D02*
X123146854Y-120054597D01*
X123160910Y-120076441D01*
X123373110Y-120221431D01*
X123625000Y-120272440D01*
X124125000Y-120272440D01*
X124360317Y-120228162D01*
X124576441Y-120089090D01*
X124616594Y-120030325D01*
X124823110Y-120171431D01*
X124870855Y-120181100D01*
X124872852Y-120191139D01*
X125037599Y-120437701D01*
X125284161Y-120602448D01*
X125575000Y-120660300D01*
X125769712Y-120660300D01*
X125752560Y-120745000D01*
X125752560Y-121307503D01*
X125541310Y-121220000D01*
X125400750Y-121220000D01*
X125242000Y-121378750D01*
X125242000Y-121955000D01*
X125262000Y-121955000D01*
X125262000Y-122107560D01*
X124968000Y-122107560D01*
X124968000Y-121955000D01*
X124988000Y-121955000D01*
X124988000Y-121378750D01*
X124829250Y-121220000D01*
X124688690Y-121220000D01*
X124455301Y-121316673D01*
X124348388Y-121423586D01*
X122837351Y-119912549D01*
X123008861Y-120027148D01*
X123008861Y-120027148D01*
G37*
X123008861Y-120027148D02*
X123146854Y-120054597D01*
X123160910Y-120076441D01*
X123373110Y-120221431D01*
X123625000Y-120272440D01*
X124125000Y-120272440D01*
X124360317Y-120228162D01*
X124576441Y-120089090D01*
X124616594Y-120030325D01*
X124823110Y-120171431D01*
X124870855Y-120181100D01*
X124872852Y-120191139D01*
X125037599Y-120437701D01*
X125284161Y-120602448D01*
X125575000Y-120660300D01*
X125769712Y-120660300D01*
X125752560Y-120745000D01*
X125752560Y-121307503D01*
X125541310Y-121220000D01*
X125400750Y-121220000D01*
X125242000Y-121378750D01*
X125242000Y-121955000D01*
X125262000Y-121955000D01*
X125262000Y-122107560D01*
X124968000Y-122107560D01*
X124968000Y-121955000D01*
X124988000Y-121955000D01*
X124988000Y-121378750D01*
X124829250Y-121220000D01*
X124688690Y-121220000D01*
X124455301Y-121316673D01*
X124348388Y-121423586D01*
X122837351Y-119912549D01*
X123008861Y-120027148D01*
G36*
X136473568Y-124504580D02*
X136453125Y-124496112D01*
X136394902Y-124408321D01*
X136005993Y-124019412D01*
X135984611Y-124004802D01*
X136217592Y-123772227D01*
X136360238Y-123428699D01*
X136360562Y-123056733D01*
X136218517Y-122712957D01*
X135955727Y-122449708D01*
X135871601Y-122414776D01*
X135987401Y-122337401D01*
X135989680Y-122335122D01*
X136035167Y-122335162D01*
X136267022Y-122239362D01*
X136369673Y-122342192D01*
X136713201Y-122484838D01*
X137085167Y-122485162D01*
X137428943Y-122343117D01*
X137692192Y-122080327D01*
X137834838Y-121736799D01*
X137835162Y-121364833D01*
X137693117Y-121021057D01*
X137430327Y-120757808D01*
X137201006Y-120662585D01*
X137289167Y-120662662D01*
X137632943Y-120520617D01*
X137896192Y-120257827D01*
X138038838Y-119914299D01*
X138039162Y-119542333D01*
X137897117Y-119198557D01*
X137857606Y-119158976D01*
X138091959Y-118924623D01*
X138166351Y-118815747D01*
X138268735Y-118747846D01*
X138465000Y-118551581D01*
X138661265Y-118747846D01*
X138770138Y-118822236D01*
X138838041Y-118924623D01*
X139226950Y-119313532D01*
X139335826Y-119387924D01*
X139403727Y-119490308D01*
X139792636Y-119879217D01*
X139881445Y-119939897D01*
X139888894Y-119957882D01*
X139970607Y-120039595D01*
X140106935Y-120039595D01*
X140179393Y-120055313D01*
X140082859Y-120151847D01*
X140123880Y-120192868D01*
X140085908Y-120230773D01*
X139943262Y-120574301D01*
X139942938Y-120946267D01*
X140084983Y-121290043D01*
X140347773Y-121553292D01*
X140691301Y-121695938D01*
X141037359Y-121696239D01*
X140458216Y-122275382D01*
X140425057Y-122289083D01*
X140391882Y-122322200D01*
X139594800Y-122322200D01*
X139303961Y-122380052D01*
X139057399Y-122544799D01*
X136629971Y-124972227D01*
X136560563Y-124985287D01*
X136584471Y-124875074D01*
X136555281Y-124719941D01*
X136555281Y-124586293D01*
X136583827Y-124614838D01*
X136473568Y-124504580D01*
X136473568Y-124504580D01*
G37*
X136473568Y-124504580D02*
X136453125Y-124496112D01*
X136394902Y-124408321D01*
X136005993Y-124019412D01*
X135984611Y-124004802D01*
X136217592Y-123772227D01*
X136360238Y-123428699D01*
X136360562Y-123056733D01*
X136218517Y-122712957D01*
X135955727Y-122449708D01*
X135871601Y-122414776D01*
X135987401Y-122337401D01*
X135989680Y-122335122D01*
X136035167Y-122335162D01*
X136267022Y-122239362D01*
X136369673Y-122342192D01*
X136713201Y-122484838D01*
X137085167Y-122485162D01*
X137428943Y-122343117D01*
X137692192Y-122080327D01*
X137834838Y-121736799D01*
X137835162Y-121364833D01*
X137693117Y-121021057D01*
X137430327Y-120757808D01*
X137201006Y-120662585D01*
X137289167Y-120662662D01*
X137632943Y-120520617D01*
X137896192Y-120257827D01*
X138038838Y-119914299D01*
X138039162Y-119542333D01*
X137897117Y-119198557D01*
X137857606Y-119158976D01*
X138091959Y-118924623D01*
X138166351Y-118815747D01*
X138268735Y-118747846D01*
X138465000Y-118551581D01*
X138661265Y-118747846D01*
X138770138Y-118822236D01*
X138838041Y-118924623D01*
X139226950Y-119313532D01*
X139335826Y-119387924D01*
X139403727Y-119490308D01*
X139792636Y-119879217D01*
X139881445Y-119939897D01*
X139888894Y-119957882D01*
X139970607Y-120039595D01*
X140106935Y-120039595D01*
X140179393Y-120055313D01*
X140082859Y-120151847D01*
X140123880Y-120192868D01*
X140085908Y-120230773D01*
X139943262Y-120574301D01*
X139942938Y-120946267D01*
X140084983Y-121290043D01*
X140347773Y-121553292D01*
X140691301Y-121695938D01*
X141037359Y-121696239D01*
X140458216Y-122275382D01*
X140425057Y-122289083D01*
X140391882Y-122322200D01*
X139594800Y-122322200D01*
X139303961Y-122380052D01*
X139057399Y-122544799D01*
X136629971Y-124972227D01*
X136560563Y-124985287D01*
X136584471Y-124875074D01*
X136555281Y-124719941D01*
X136555281Y-124586293D01*
X136583827Y-124614838D01*
X136473568Y-124504580D01*
M02*
