G04 #@! TF.FileFunction,Soldermask,Bot*
%FSLAX46Y46*%
G04 Gerber Fmt 4.6, Leading zero omitted, Abs format (unit mm)*
G04 Created by KiCad (PCBNEW 4.0.0-stable) date Wednesday, February 03, 2016 'PMt' 01:26:16 PM*
%MOMM*%
G01*
G04 APERTURE LIST*
%ADD10C,0.100000*%
%ADD11R,2.432000X2.127200*%
%ADD12O,2.432000X2.127200*%
%ADD13C,1.924000*%
%ADD14C,1.900000*%
%ADD15R,2.127200X2.127200*%
%ADD16O,2.127200X2.127200*%
%ADD17R,2.127200X2.432000*%
%ADD18O,2.127200X2.432000*%
G04 APERTURE END LIST*
D10*
D11*
X104250000Y-128650000D03*
D12*
X104250000Y-126110000D03*
X104250000Y-123570000D03*
X104250000Y-121030000D03*
X104250000Y-118490000D03*
X104250000Y-115950000D03*
D13*
X120689000Y-128864000D03*
X120689000Y-126324000D03*
X120689000Y-123784000D03*
X120689000Y-121244000D03*
X120689000Y-118704000D03*
X120689000Y-116164000D03*
X123229000Y-130134000D03*
X125769000Y-130134000D03*
X128309000Y-130134000D03*
X130849000Y-130134000D03*
X133389000Y-130134000D03*
X135929000Y-130134000D03*
X138469000Y-130134000D03*
X141009000Y-130134000D03*
X143549000Y-130134000D03*
X146089000Y-130134000D03*
X148629000Y-130134000D03*
X151169000Y-130134000D03*
X123229000Y-114894000D03*
X125769000Y-114894000D03*
X128309000Y-114894000D03*
X130849000Y-114894000D03*
X133389000Y-114894000D03*
X135929000Y-114894000D03*
X138469000Y-114894000D03*
X141009000Y-114894000D03*
X143549000Y-114894000D03*
X146089000Y-114894000D03*
X148629000Y-114894000D03*
X151169000Y-114894000D03*
D14*
X131992000Y-117815000D03*
X134532000Y-117815000D03*
X142406000Y-117815000D03*
X144946000Y-117815000D03*
D15*
X96500000Y-108200000D03*
D16*
X96500000Y-105660000D03*
X99040000Y-108200000D03*
X99040000Y-105660000D03*
X101580000Y-108200000D03*
X101580000Y-105660000D03*
D17*
X132650000Y-105650000D03*
D18*
X135190000Y-105650000D03*
X137730000Y-105650000D03*
D15*
X111150000Y-108200000D03*
D16*
X111150000Y-105660000D03*
X113690000Y-108200000D03*
X113690000Y-105660000D03*
X116230000Y-108200000D03*
X116230000Y-105660000D03*
X118770000Y-108200000D03*
X118770000Y-105660000D03*
X121310000Y-108200000D03*
X121310000Y-105660000D03*
X123850000Y-108200000D03*
X123850000Y-105660000D03*
X126390000Y-108200000D03*
X126390000Y-105660000D03*
D17*
X149850000Y-105650000D03*
D18*
X147310000Y-105650000D03*
X144770000Y-105650000D03*
X142230000Y-105650000D03*
M02*
