G04 #@! TF.FileFunction,Copper,L2,Bot,Signal*
%FSLAX46Y46*%
G04 Gerber Fmt 4.6, Leading zero omitted, Abs format (unit mm)*
G04 Created by KiCad (PCBNEW 4.0.0-stable) date Wednesday, February 03, 2016 'PMt' 01:26:16 PM*
%MOMM*%
G01*
G04 APERTURE LIST*
%ADD10C,0.100000*%
%ADD11C,0.300000*%
%ADD12C,0.300000*%
%ADD13R,2.032000X1.727200*%
%ADD14O,2.032000X1.727200*%
%ADD15C,1.524000*%
%ADD16C,1.500000*%
%ADD17R,1.727200X1.727200*%
%ADD18O,1.727200X1.727200*%
%ADD19R,1.727200X2.032000*%
%ADD20O,1.727200X2.032000*%
%ADD21C,0.600000*%
%ADD22C,0.250000*%
%ADD23C,0.152400*%
%ADD24C,0.254000*%
G04 APERTURE END LIST*
D10*
D11*
X105650000Y-128650000D02*
X106150000Y-128650000D01*
X105650000Y-123600000D02*
X106150000Y-123600000D01*
D12*
X105650000Y-128650000D03*
X106150000Y-128650000D03*
X105650000Y-123600000D03*
X106150000Y-123600000D03*
D13*
X104250000Y-128650000D03*
D14*
X104250000Y-126110000D03*
X104250000Y-123570000D03*
X104250000Y-121030000D03*
X104250000Y-118490000D03*
X104250000Y-115950000D03*
D15*
X120689000Y-128864000D03*
X120689000Y-126324000D03*
X120689000Y-123784000D03*
X120689000Y-121244000D03*
X120689000Y-118704000D03*
X120689000Y-116164000D03*
X123229000Y-130134000D03*
X125769000Y-130134000D03*
X128309000Y-130134000D03*
X130849000Y-130134000D03*
X133389000Y-130134000D03*
X135929000Y-130134000D03*
X138469000Y-130134000D03*
X141009000Y-130134000D03*
X143549000Y-130134000D03*
X146089000Y-130134000D03*
X148629000Y-130134000D03*
X151169000Y-130134000D03*
X123229000Y-114894000D03*
X125769000Y-114894000D03*
X128309000Y-114894000D03*
X130849000Y-114894000D03*
X133389000Y-114894000D03*
X135929000Y-114894000D03*
X138469000Y-114894000D03*
X141009000Y-114894000D03*
X143549000Y-114894000D03*
X146089000Y-114894000D03*
X148629000Y-114894000D03*
X151169000Y-114894000D03*
D16*
X131992000Y-117815000D03*
X134532000Y-117815000D03*
X142406000Y-117815000D03*
X144946000Y-117815000D03*
D17*
X96500000Y-108200000D03*
D18*
X96500000Y-105660000D03*
X99040000Y-108200000D03*
X99040000Y-105660000D03*
X101580000Y-108200000D03*
X101580000Y-105660000D03*
D19*
X132650000Y-105650000D03*
D20*
X135190000Y-105650000D03*
X137730000Y-105650000D03*
D17*
X111150000Y-108200000D03*
D18*
X111150000Y-105660000D03*
X113690000Y-108200000D03*
X113690000Y-105660000D03*
X116230000Y-108200000D03*
X116230000Y-105660000D03*
X118770000Y-108200000D03*
X118770000Y-105660000D03*
X121310000Y-108200000D03*
X121310000Y-105660000D03*
X123850000Y-108200000D03*
X123850000Y-105660000D03*
X126390000Y-108200000D03*
X126390000Y-105660000D03*
D19*
X149850000Y-105650000D03*
D20*
X147310000Y-105650000D03*
X144770000Y-105650000D03*
X142230000Y-105650000D03*
D21*
X144026800Y-122012300D03*
X140878100Y-120761100D03*
X132440000Y-110940000D03*
X122500000Y-124400000D03*
X117300000Y-123150000D03*
X138950000Y-119500000D03*
X145300000Y-120450000D03*
X136900000Y-121550000D03*
X149100000Y-125550000D03*
X149250000Y-120850000D03*
X147350000Y-122800000D03*
X124667600Y-117663000D03*
X98387400Y-117355500D03*
X138450000Y-126150000D03*
X143850000Y-126150000D03*
X140954000Y-123082200D03*
X98912700Y-127350000D03*
X88324700Y-120375600D03*
X88400000Y-129550000D03*
X129900000Y-105650000D03*
X92075000Y-120159500D03*
X110550000Y-120400000D03*
X117600000Y-119350000D03*
X123850000Y-123000000D03*
X125250000Y-128550000D03*
X135850000Y-121400000D03*
X98872700Y-120160600D03*
X105800000Y-122300000D03*
X124500000Y-124750000D03*
X95761800Y-120135600D03*
X132474700Y-119584000D03*
X109250000Y-121650000D03*
X110100000Y-116950000D03*
X109750000Y-123800000D03*
X115200000Y-127300000D03*
X133178400Y-122349100D03*
X114100000Y-127400000D03*
X108650000Y-124450000D03*
X112050000Y-115950000D03*
X134617600Y-122744700D03*
X110950000Y-125300000D03*
X135425400Y-123241900D03*
X109700000Y-125100000D03*
X112950000Y-117100000D03*
X111100000Y-127500000D03*
X110250000Y-127100000D03*
X114650000Y-117350000D03*
X116650000Y-117150000D03*
X138600000Y-111300000D03*
X144020300Y-122970100D03*
X129050000Y-104100000D03*
X148000000Y-112500000D03*
X144551200Y-124657500D03*
X142200000Y-110400000D03*
X145812300Y-125267600D03*
X137104000Y-119727500D03*
D22*
X142129300Y-122012300D02*
X140878100Y-120761100D01*
X144026800Y-122012300D02*
X142129300Y-122012300D01*
X132440000Y-110940000D02*
X137730000Y-105650000D01*
X101580000Y-105660000D02*
X103240000Y-105660000D01*
X103240000Y-105660000D02*
X106100000Y-102800000D01*
X106100000Y-102800000D02*
X134880000Y-102800000D01*
X134880000Y-102800000D02*
X137730000Y-105650000D01*
X107950000Y-124200000D02*
X109000000Y-123150000D01*
X106150000Y-128650000D02*
X106150000Y-124850000D01*
X106850000Y-124200000D02*
X107200000Y-124200000D01*
X106800000Y-124250000D02*
X106850000Y-124200000D01*
X106800000Y-124850000D02*
X106800000Y-124250000D01*
X106150000Y-124850000D02*
X106800000Y-124850000D01*
D23*
X107950000Y-124200000D02*
X107200000Y-124200000D01*
D22*
X122500000Y-124400000D02*
X120689000Y-126211000D01*
X109000000Y-123150000D02*
X117300000Y-123150000D01*
X120689000Y-126324000D02*
X120689000Y-126211000D01*
X144350000Y-119500000D02*
X138950000Y-119500000D01*
X145300000Y-120450000D02*
X144350000Y-119500000D01*
X130650000Y-103400000D02*
X106380000Y-103400000D01*
X126400000Y-112850000D02*
X130650000Y-108600000D01*
X130650000Y-108600000D02*
X130650000Y-103400000D01*
D23*
X126400000Y-113250000D02*
X126400000Y-113800000D01*
D22*
X126750000Y-114250000D02*
X126400000Y-113900000D01*
X126400000Y-113900000D02*
X126400000Y-113800000D01*
X128309000Y-114894000D02*
X127056000Y-114894000D01*
X127050000Y-114888000D02*
X127050000Y-114250000D01*
X127056000Y-114894000D02*
X127050000Y-114888000D01*
X127050000Y-114250000D02*
X126750000Y-114250000D01*
X126400000Y-113250000D02*
X126400000Y-112850000D01*
X106380000Y-103400000D02*
X101580000Y-108200000D01*
X128309000Y-130134000D02*
X128309000Y-125591000D01*
X135850000Y-122600000D02*
X136900000Y-121550000D01*
X135750000Y-122600000D02*
X135850000Y-122600000D01*
X134750000Y-121600000D02*
X135750000Y-122600000D01*
X132300000Y-121600000D02*
X134750000Y-121600000D01*
X128309000Y-125591000D02*
X132300000Y-121600000D01*
X139950000Y-124600000D02*
X136900000Y-121550000D01*
X143550000Y-124600000D02*
X139950000Y-124600000D01*
X145150000Y-126200000D02*
X143550000Y-124600000D01*
X148450000Y-126200000D02*
X145150000Y-126200000D01*
X149100000Y-125550000D02*
X148450000Y-126200000D01*
X149250000Y-120900000D02*
X149250000Y-120850000D01*
X147350000Y-122800000D02*
X149250000Y-120900000D01*
X125540000Y-117663000D02*
X128309000Y-114894000D01*
X124667600Y-117663000D02*
X125540000Y-117663000D01*
X118900000Y-118100000D02*
X110300000Y-118100000D01*
D23*
X107150000Y-119150000D02*
X107300000Y-119150000D01*
D22*
X105800000Y-116950000D02*
X105800000Y-119750000D01*
X105800000Y-119750000D02*
X106800000Y-119750000D01*
X106800000Y-119750000D02*
X106800000Y-119150000D01*
X106800000Y-119150000D02*
X107150000Y-119150000D01*
X104800000Y-115950000D02*
X105800000Y-116950000D01*
D23*
X107800000Y-119100000D02*
X107900000Y-119200000D01*
X107350000Y-119100000D02*
X107800000Y-119100000D01*
X107300000Y-119150000D02*
X107350000Y-119100000D01*
D22*
X108300000Y-119600000D02*
X107900000Y-119200000D01*
X120689000Y-117289000D02*
X120689000Y-116164000D01*
X119700000Y-118100000D02*
X119600000Y-118100000D01*
X120050000Y-117750000D02*
X119700000Y-118100000D01*
X120050000Y-117300000D02*
X120050000Y-117750000D01*
X120678000Y-117300000D02*
X120050000Y-117300000D01*
X120689000Y-117289000D02*
X120678000Y-117300000D01*
D23*
X118900000Y-118100000D02*
X119600000Y-118100000D01*
D22*
X108800000Y-119600000D02*
X108300000Y-119600000D01*
X110300000Y-118100000D02*
X108800000Y-119600000D01*
X104250000Y-115950000D02*
X104800000Y-115950000D01*
X98604000Y-117138900D02*
X98387400Y-117355500D01*
X104250000Y-117138900D02*
X98604000Y-117138900D01*
X104250000Y-115950000D02*
X104250000Y-117138900D01*
X128950000Y-113200000D02*
X128950000Y-111890000D01*
X129600000Y-114250000D02*
X129250000Y-114250000D01*
X129644000Y-114894000D02*
X129600000Y-114850000D01*
X129600000Y-114850000D02*
X129600000Y-114250000D01*
X130849000Y-114894000D02*
X129644000Y-114894000D01*
X128950000Y-113950000D02*
X128950000Y-113800000D01*
X129250000Y-114250000D02*
X128950000Y-113950000D01*
D23*
X128950000Y-113200000D02*
X128950000Y-113800000D01*
D22*
X128950000Y-111890000D02*
X135190000Y-105650000D01*
X119000000Y-121900000D02*
X118550000Y-121900000D01*
X106150000Y-123600000D02*
X106800000Y-123600000D01*
X106800000Y-122950000D02*
X107200000Y-122950000D01*
X106800000Y-123600000D02*
X106800000Y-122950000D01*
D23*
X107950000Y-122950000D02*
X107200000Y-122950000D01*
D22*
X120689000Y-122811000D02*
X120689000Y-123784000D01*
X119750000Y-121900000D02*
X119600000Y-121900000D01*
X120050000Y-122200000D02*
X119750000Y-121900000D01*
X120050000Y-122800000D02*
X120050000Y-122200000D01*
X120678000Y-122800000D02*
X120050000Y-122800000D01*
X120689000Y-122811000D02*
X120678000Y-122800000D01*
D23*
X119000000Y-121900000D02*
X119600000Y-121900000D01*
D22*
X108600000Y-122300000D02*
X107950000Y-122950000D01*
X118150000Y-122300000D02*
X108600000Y-122300000D01*
X118550000Y-121900000D02*
X118150000Y-122300000D01*
X143850000Y-126150000D02*
X138450000Y-126150000D01*
X140954000Y-123082200D02*
X140954000Y-122631000D01*
X140954000Y-122631000D02*
X134846000Y-116523000D01*
X134846000Y-116523000D02*
X132478000Y-116523000D01*
X132478000Y-116523000D02*
X130849000Y-114894000D01*
X121959000Y-123784000D02*
X120689000Y-123784000D01*
X130849000Y-114894000D02*
X121959000Y-123784000D01*
X104250000Y-128650000D02*
X105650000Y-128650000D01*
X104250000Y-128650000D02*
X102908700Y-128650000D01*
X101608700Y-127350000D02*
X98912700Y-127350000D01*
X102908700Y-128650000D02*
X101608700Y-127350000D01*
D23*
X88400000Y-120450900D02*
X88400000Y-129550000D01*
X88400000Y-120450900D02*
X88324700Y-120375600D01*
D22*
X125150000Y-113250000D02*
X125150000Y-113150000D01*
X123229000Y-114894000D02*
X124494000Y-114894000D01*
X125150000Y-113950000D02*
X125150000Y-113800000D01*
X124850000Y-114250000D02*
X125150000Y-113950000D01*
X124500000Y-114250000D02*
X124850000Y-114250000D01*
X124500000Y-114888000D02*
X124500000Y-114250000D01*
X124494000Y-114894000D02*
X124500000Y-114888000D01*
D23*
X125150000Y-113250000D02*
X125150000Y-113800000D01*
D22*
X129900000Y-108400000D02*
X129900000Y-105650000D01*
X125150000Y-113150000D02*
X129900000Y-108400000D01*
X104250000Y-123570000D02*
X105620000Y-123570000D01*
X105620000Y-123570000D02*
X105650000Y-123600000D01*
X98025500Y-126110000D02*
X92075000Y-120159500D01*
X104250000Y-126110000D02*
X98025500Y-126110000D01*
X104250000Y-121030000D02*
X106780000Y-121030000D01*
X106800000Y-120400000D02*
X107250000Y-120400000D01*
X106800000Y-121010000D02*
X106800000Y-120400000D01*
X106780000Y-121030000D02*
X106800000Y-121010000D01*
D23*
X107850000Y-120400000D02*
X107250000Y-120400000D01*
D22*
X116550000Y-120400000D02*
X110550000Y-120400000D01*
X110550000Y-120400000D02*
X107850000Y-120400000D01*
X117600000Y-119350000D02*
X116550000Y-120400000D01*
X123850000Y-123000000D02*
X123229000Y-123621000D01*
X123229000Y-123621000D02*
X123229000Y-130134000D01*
X125250000Y-128550000D02*
X125300000Y-128500000D01*
X125300000Y-128500000D02*
X125300000Y-127650000D01*
X125300000Y-127650000D02*
X132750000Y-120200000D01*
X132750000Y-120200000D02*
X134650000Y-120200000D01*
X134650000Y-120200000D02*
X135850000Y-121400000D01*
X104250000Y-121030000D02*
X104250000Y-121327200D01*
X100039300Y-121327200D02*
X98872700Y-120160600D01*
X104250000Y-121327200D02*
X100039300Y-121327200D01*
X106800000Y-121650000D02*
X107200000Y-121650000D01*
X106800000Y-121700000D02*
X106800000Y-121650000D01*
X106800000Y-122300000D02*
X106800000Y-121700000D01*
X105800000Y-122300000D02*
X106800000Y-122300000D01*
X120689000Y-120011000D02*
X120689000Y-121244000D01*
X120678000Y-120000000D02*
X120050000Y-120000000D01*
X120689000Y-120011000D02*
X120678000Y-120000000D01*
X124497200Y-127561500D02*
X124497200Y-124697200D01*
X124497200Y-124697200D02*
X124500000Y-124750000D01*
X97407400Y-118490000D02*
X95761800Y-120135600D01*
X104250000Y-118490000D02*
X97407400Y-118490000D01*
X124497200Y-128862200D02*
X124497200Y-127561500D01*
X125769000Y-130134000D02*
X124497200Y-128862200D01*
X124497200Y-127561500D02*
X132474700Y-119584000D01*
X120050000Y-120250000D02*
X119700000Y-120600000D01*
X120050000Y-120000000D02*
X120050000Y-120250000D01*
D23*
X119650000Y-120600000D02*
X119600000Y-120650000D01*
X119600000Y-120650000D02*
X118900000Y-120650000D01*
X119700000Y-120600000D02*
X119650000Y-120600000D01*
D22*
X117900000Y-121650000D02*
X118900000Y-120650000D01*
X107800000Y-121650000D02*
X109250000Y-121650000D01*
X109250000Y-121650000D02*
X117900000Y-121650000D01*
D23*
X107850000Y-121650000D02*
X107800000Y-121650000D01*
X107800000Y-121650000D02*
X107200000Y-121650000D01*
D22*
X110100000Y-116950000D02*
X111400000Y-115650000D01*
X111400000Y-115650000D02*
X111400000Y-114300000D01*
X111050000Y-112950000D02*
X111900000Y-112100000D01*
D23*
X110700000Y-113300000D02*
X111050000Y-112950000D01*
D22*
X110700000Y-113500000D02*
X110700000Y-114300000D01*
X111400000Y-114300000D02*
X110700000Y-114300000D01*
D23*
X110700000Y-113500000D02*
X110700000Y-113300000D01*
D22*
X111900000Y-112100000D02*
X111900000Y-108950000D01*
X111900000Y-108950000D02*
X111150000Y-108200000D01*
X111700000Y-123800000D02*
X109750000Y-123800000D01*
X115200000Y-127300000D02*
X111700000Y-123800000D01*
X133389000Y-122559700D02*
X133178400Y-122349100D01*
X133389000Y-130134000D02*
X133389000Y-122559700D01*
X113000000Y-112250000D02*
X114950000Y-110300000D01*
X112050000Y-113200000D02*
X113000000Y-112250000D01*
D23*
X112050000Y-113250000D02*
X112050000Y-113350000D01*
D22*
X114100000Y-127400000D02*
X114000000Y-127400000D01*
X111050000Y-124450000D02*
X108650000Y-124450000D01*
X114000000Y-127400000D02*
X111050000Y-124450000D01*
X112050000Y-114250000D02*
X112050000Y-113850000D01*
X112700000Y-114250000D02*
X112050000Y-114250000D01*
X112700000Y-115300000D02*
X112700000Y-114250000D01*
X112050000Y-115950000D02*
X112700000Y-115300000D01*
D23*
X112050000Y-113350000D02*
X112050000Y-113850000D01*
D22*
X112050000Y-113250000D02*
X112050000Y-113200000D01*
X114950000Y-106920000D02*
X113690000Y-105660000D01*
X114950000Y-110300000D02*
X114950000Y-106920000D01*
X134617600Y-128822600D02*
X134617600Y-122744700D01*
X135929000Y-130134000D02*
X134617600Y-128822600D01*
X114550000Y-128900000D02*
X110950000Y-125300000D01*
X114550000Y-130700000D02*
X114550000Y-131100000D01*
X137850000Y-131850000D02*
X137850000Y-132400000D01*
X137200000Y-130750000D02*
X137500000Y-130750000D01*
X137216000Y-130134000D02*
X137200000Y-130150000D01*
X137200000Y-130150000D02*
X137200000Y-130750000D01*
X138469000Y-130134000D02*
X137216000Y-130134000D01*
X137850000Y-131100000D02*
X137850000Y-131200000D01*
X137500000Y-130750000D02*
X137850000Y-131100000D01*
D23*
X137850000Y-131850000D02*
X137850000Y-131200000D01*
D22*
X114550000Y-132100000D02*
X114550000Y-131800000D01*
X114600000Y-132150000D02*
X114550000Y-132100000D01*
X115200000Y-132150000D02*
X114600000Y-132150000D01*
X115200000Y-132550000D02*
X115200000Y-132150000D01*
X116650000Y-134000000D02*
X115200000Y-132550000D01*
X136250000Y-134000000D02*
X116650000Y-134000000D01*
X137850000Y-132400000D02*
X136250000Y-134000000D01*
D23*
X114550000Y-131100000D02*
X114550000Y-131800000D01*
D22*
X114550000Y-130700000D02*
X114550000Y-128900000D01*
X135425400Y-127090400D02*
X135425400Y-123241900D01*
X138469000Y-130134000D02*
X135425400Y-127090400D01*
X113300000Y-113250000D02*
X113300000Y-112700000D01*
X113900000Y-114350000D02*
X113300000Y-114350000D01*
X112950000Y-117100000D02*
X113900000Y-116150000D01*
X113900000Y-116150000D02*
X113900000Y-114350000D01*
X113300000Y-130700000D02*
X113300000Y-128700000D01*
D23*
X113300000Y-131100000D02*
X113300000Y-131700000D01*
D22*
X139100000Y-131850000D02*
X136450000Y-134500000D01*
X136450000Y-134500000D02*
X115750000Y-134500000D01*
X115750000Y-134500000D02*
X113900000Y-132650000D01*
X113900000Y-132650000D02*
X113900000Y-132150000D01*
X113900000Y-132150000D02*
X113300000Y-132150000D01*
X113300000Y-132150000D02*
X113300000Y-131700000D01*
D23*
X139150000Y-131850000D02*
X139150000Y-131200000D01*
D22*
X139766000Y-130134000D02*
X139750000Y-130150000D01*
X139750000Y-130150000D02*
X139750000Y-130750000D01*
X139750000Y-130750000D02*
X139400000Y-130750000D01*
X139400000Y-130750000D02*
X139150000Y-131000000D01*
X139150000Y-131000000D02*
X139150000Y-131200000D01*
X141009000Y-130134000D02*
X139766000Y-130134000D01*
X139150000Y-131850000D02*
X139100000Y-131850000D01*
X113300000Y-130700000D02*
X113300000Y-131100000D01*
X113300000Y-128700000D02*
X110200000Y-125600000D01*
X110200000Y-125600000D02*
X109700000Y-125100000D01*
X113300000Y-114350000D02*
X113300000Y-113800000D01*
D23*
X113300000Y-113250000D02*
X113300000Y-113800000D01*
D22*
X117500000Y-106930000D02*
X116230000Y-105660000D01*
X117500000Y-108850000D02*
X117500000Y-106930000D01*
X116950000Y-109400000D02*
X117500000Y-108850000D01*
X116600000Y-109400000D02*
X116950000Y-109400000D01*
X113300000Y-112700000D02*
X116600000Y-109400000D01*
X112050000Y-130750000D02*
X112050000Y-128450000D01*
X112050000Y-128450000D02*
X111100000Y-127500000D01*
X112050000Y-130700000D02*
X112050000Y-130750000D01*
X112050000Y-130750000D02*
X112050000Y-131150000D01*
D23*
X112000000Y-131650000D02*
X112050000Y-131600000D01*
X112050000Y-131600000D02*
X112050000Y-131150000D01*
D22*
X112650000Y-132150000D02*
X112000000Y-132150000D01*
X145450000Y-132550000D02*
X143000000Y-135000000D01*
X143000000Y-135000000D02*
X115050000Y-135000000D01*
X115050000Y-135000000D02*
X112650000Y-132600000D01*
X112650000Y-132600000D02*
X112650000Y-132150000D01*
D23*
X145450000Y-131850000D02*
X145450000Y-131150000D01*
D22*
X144684000Y-130134000D02*
X144750000Y-130200000D01*
X144750000Y-130200000D02*
X144750000Y-130750000D01*
X144750000Y-130750000D02*
X145150000Y-130750000D01*
X144684000Y-130134000D02*
X143549000Y-130134000D01*
X145150000Y-130750000D02*
X145450000Y-131050000D01*
X145450000Y-131050000D02*
X145450000Y-131150000D01*
X145450000Y-131850000D02*
X145450000Y-132550000D01*
X112000000Y-132150000D02*
X112000000Y-131750000D01*
D23*
X112000000Y-131750000D02*
X112000000Y-131650000D01*
D22*
X114550000Y-113200000D02*
X114550000Y-112150000D01*
X110700000Y-128050000D02*
X110250000Y-127600000D01*
X110250000Y-127600000D02*
X110250000Y-127100000D01*
X110700000Y-130750000D02*
X110700000Y-128050000D01*
X114550000Y-114250000D02*
X114550000Y-113850000D01*
X115400000Y-114250000D02*
X114550000Y-114250000D01*
X115400000Y-116600000D02*
X115400000Y-114250000D01*
X114650000Y-117350000D02*
X115400000Y-116600000D01*
D23*
X114550000Y-113200000D02*
X114550000Y-113850000D01*
D22*
X120000000Y-106890000D02*
X118770000Y-105660000D01*
X120000000Y-108800000D02*
X120000000Y-106890000D01*
X118150000Y-110650000D02*
X120000000Y-108800000D01*
X116050000Y-110650000D02*
X118150000Y-110650000D01*
X114550000Y-112150000D02*
X116050000Y-110650000D01*
X110700000Y-130700000D02*
X110700000Y-130750000D01*
X110700000Y-130750000D02*
X110700000Y-131200000D01*
D23*
X110850000Y-131750000D02*
X110700000Y-131600000D01*
X110700000Y-131600000D02*
X110700000Y-131200000D01*
D22*
X111400000Y-132150000D02*
X111150000Y-132150000D01*
X146700000Y-132000000D02*
X143200000Y-135500000D01*
X143200000Y-135500000D02*
X114250000Y-135500000D01*
X114250000Y-135500000D02*
X111400000Y-132650000D01*
X111400000Y-132650000D02*
X111400000Y-132150000D01*
D23*
X146700000Y-131850000D02*
X146700000Y-131150000D01*
D22*
X147484000Y-130134000D02*
X147500000Y-130150000D01*
X147500000Y-130150000D02*
X147500000Y-130750000D01*
X147500000Y-130750000D02*
X147050000Y-130750000D01*
X147484000Y-130134000D02*
X146089000Y-130134000D01*
X147050000Y-130750000D02*
X146700000Y-131100000D01*
X146700000Y-131100000D02*
X146700000Y-131150000D01*
X146700000Y-131850000D02*
X146700000Y-132000000D01*
X111150000Y-132150000D02*
X110850000Y-131850000D01*
D23*
X110850000Y-131850000D02*
X110850000Y-131750000D01*
D22*
X115600000Y-112950000D02*
X115600000Y-111800000D01*
D23*
X115900000Y-113250000D02*
X115600000Y-112950000D01*
D22*
X116650000Y-114150000D02*
X116000000Y-114150000D01*
X116650000Y-117150000D02*
X116650000Y-114150000D01*
X115900000Y-113500000D02*
X115900000Y-113400000D01*
X116000000Y-113600000D02*
X115900000Y-113500000D01*
X116000000Y-114150000D02*
X116000000Y-113600000D01*
D23*
X115900000Y-113400000D02*
X115900000Y-113250000D01*
D22*
X118360000Y-111150000D02*
X121310000Y-108200000D01*
X116250000Y-111150000D02*
X118360000Y-111150000D01*
X115600000Y-111800000D02*
X116250000Y-111150000D01*
D23*
X135350000Y-113250000D02*
X135350000Y-113800000D01*
D22*
X134644000Y-114894000D02*
X134650000Y-114888000D01*
X134650000Y-114888000D02*
X134650000Y-114250000D01*
X134650000Y-114250000D02*
X135000000Y-114250000D01*
X135000000Y-114250000D02*
X135350000Y-113900000D01*
X135350000Y-113900000D02*
X135350000Y-113800000D01*
X133389000Y-114894000D02*
X134644000Y-114894000D01*
X135350000Y-112550000D02*
X135350000Y-113250000D01*
X135350000Y-112550000D02*
X142230000Y-105670000D01*
X142230000Y-105650000D02*
X142230000Y-105670000D01*
D23*
X137900000Y-113850000D02*
X137900000Y-113300000D01*
D22*
X137244000Y-114894000D02*
X137250000Y-114888000D01*
X137250000Y-114888000D02*
X137250000Y-114300000D01*
X137250000Y-114300000D02*
X137500000Y-114300000D01*
X137500000Y-114300000D02*
X137900000Y-113900000D01*
X137900000Y-113900000D02*
X137900000Y-113850000D01*
X135929000Y-114894000D02*
X137244000Y-114894000D01*
X143150000Y-107250000D02*
X141700000Y-107250000D01*
X141700000Y-107250000D02*
X137900000Y-111050000D01*
X137900000Y-111050000D02*
X137900000Y-113300000D01*
X143150000Y-107250000D02*
X144750000Y-105650000D01*
X144770000Y-105650000D02*
X144750000Y-105650000D01*
X145110000Y-107850000D02*
X147310000Y-105650000D01*
X142050000Y-107850000D02*
X145110000Y-107850000D01*
X138600000Y-111300000D02*
X142050000Y-107850000D01*
X147310000Y-105650000D02*
X147300000Y-105650000D01*
D23*
X139150000Y-113800000D02*
X139150000Y-113200000D01*
D22*
X139756000Y-114894000D02*
X139750000Y-114888000D01*
X139750000Y-114888000D02*
X139750000Y-114250000D01*
X139750000Y-114250000D02*
X139450000Y-114250000D01*
X139450000Y-114250000D02*
X139150000Y-113950000D01*
X139150000Y-113950000D02*
X139150000Y-113800000D01*
X141009000Y-114894000D02*
X139756000Y-114894000D01*
X146750000Y-108750000D02*
X142800000Y-108750000D01*
X142800000Y-108750000D02*
X139150000Y-112400000D01*
X139150000Y-112400000D02*
X139150000Y-113200000D01*
X146750000Y-108750000D02*
X149850000Y-105650000D01*
X146089000Y-120901400D02*
X146089000Y-114894000D01*
X144020300Y-122970100D02*
X146089000Y-120901400D01*
D23*
X148000000Y-113250000D02*
X148000000Y-113850000D01*
D22*
X147356000Y-114894000D02*
X147350000Y-114888000D01*
X147350000Y-114888000D02*
X147350000Y-114250000D01*
X147350000Y-114250000D02*
X147700000Y-114250000D01*
X147700000Y-114250000D02*
X148000000Y-113950000D01*
X148000000Y-113950000D02*
X148000000Y-113850000D01*
X148629000Y-114894000D02*
X147356000Y-114894000D01*
X125750000Y-103900000D02*
X123990000Y-105660000D01*
X128850000Y-103900000D02*
X129050000Y-104100000D01*
X125750000Y-103900000D02*
X128850000Y-103900000D01*
X148000000Y-112500000D02*
X148000000Y-113250000D01*
X123850000Y-105660000D02*
X123990000Y-105660000D01*
X148629000Y-114894000D02*
X148629000Y-120579700D01*
X148629000Y-120579700D02*
X144551200Y-124657500D01*
X142900000Y-110750000D02*
X142550000Y-110750000D01*
X149250000Y-111800000D02*
X148200000Y-110750000D01*
X148200000Y-110750000D02*
X142900000Y-110750000D01*
D23*
X149250000Y-113250000D02*
X149250000Y-113800000D01*
D22*
X149906000Y-114894000D02*
X149900000Y-114888000D01*
X149900000Y-114888000D02*
X149900000Y-114550000D01*
X149900000Y-114550000D02*
X149250000Y-113900000D01*
X149250000Y-113900000D02*
X149250000Y-113800000D01*
X151169000Y-114894000D02*
X149906000Y-114894000D01*
X149250000Y-113250000D02*
X149250000Y-111800000D01*
X142550000Y-110750000D02*
X142200000Y-110400000D01*
X151169000Y-119910900D02*
X145812300Y-125267600D01*
X151169000Y-114894000D02*
X151169000Y-119910900D01*
X132910900Y-117815000D02*
X131992000Y-117815000D01*
X134823400Y-119727500D02*
X132910900Y-117815000D01*
X137104000Y-119727500D02*
X134823400Y-119727500D01*
D24*
G36*
X85528942Y-114373160D02*
X85885899Y-114521381D01*
X86272405Y-114521718D01*
X86629620Y-114374120D01*
X86714909Y-114288980D01*
X86798942Y-114373160D01*
X87155899Y-114521381D01*
X87542405Y-114521718D01*
X87899620Y-114374120D01*
X87984909Y-114288980D01*
X88068942Y-114373160D01*
X88425899Y-114521381D01*
X88812405Y-114521718D01*
X89169620Y-114374120D01*
X89413224Y-114130942D01*
X89478877Y-114158136D01*
X89628804Y-114220238D01*
X90011486Y-114296358D01*
X90081416Y-114296358D01*
X90150000Y-114310000D01*
X106540000Y-114310000D01*
X106540000Y-116849454D01*
X106502148Y-116659161D01*
X106337401Y-116412599D01*
X105923632Y-115998830D01*
X105933345Y-115950000D01*
X105819271Y-115376511D01*
X105494415Y-114890330D01*
X105008234Y-114565474D01*
X104434745Y-114451400D01*
X104065255Y-114451400D01*
X103491766Y-114565474D01*
X103005585Y-114890330D01*
X102680729Y-115376511D01*
X102566655Y-115950000D01*
X102651968Y-116378900D01*
X98604000Y-116378900D01*
X98394836Y-116420506D01*
X98202233Y-116420338D01*
X97858457Y-116562383D01*
X97595208Y-116825173D01*
X97452562Y-117168701D01*
X97452238Y-117540667D01*
X97530469Y-117730000D01*
X97407400Y-117730000D01*
X97116561Y-117787852D01*
X96869999Y-117952599D01*
X95622120Y-119200478D01*
X95576633Y-119200438D01*
X95232857Y-119342483D01*
X94969608Y-119605273D01*
X94826962Y-119948801D01*
X94826638Y-120320767D01*
X94968683Y-120664543D01*
X95231473Y-120927792D01*
X95575001Y-121070438D01*
X95946967Y-121070762D01*
X96290743Y-120928717D01*
X96553992Y-120665927D01*
X96696638Y-120322399D01*
X96696679Y-120275523D01*
X97722202Y-119250000D01*
X98628088Y-119250000D01*
X98343757Y-119367483D01*
X98080508Y-119630273D01*
X97937862Y-119973801D01*
X97937538Y-120345767D01*
X98079583Y-120689543D01*
X98342373Y-120952792D01*
X98685901Y-121095438D01*
X98732777Y-121095479D01*
X99501899Y-121864601D01*
X99748461Y-122029348D01*
X100039300Y-122087200D01*
X103003935Y-122087200D01*
X103005585Y-122089670D01*
X103320366Y-122300000D01*
X103005585Y-122510330D01*
X102680729Y-122996511D01*
X102566655Y-123570000D01*
X102680729Y-124143489D01*
X103005585Y-124629670D01*
X103320366Y-124840000D01*
X103005585Y-125050330D01*
X102805352Y-125350000D01*
X98340302Y-125350000D01*
X93010122Y-120019820D01*
X93010162Y-119974333D01*
X92868117Y-119630557D01*
X92605327Y-119367308D01*
X92261799Y-119224662D01*
X91889833Y-119224338D01*
X91546057Y-119366383D01*
X91282808Y-119629173D01*
X91140162Y-119972701D01*
X91139838Y-120344667D01*
X91281883Y-120688443D01*
X91544673Y-120951692D01*
X91888201Y-121094338D01*
X91935077Y-121094379D01*
X97488099Y-126647401D01*
X97734661Y-126812148D01*
X98025500Y-126870000D01*
X102805352Y-126870000D01*
X103005585Y-127169670D01*
X103027780Y-127184500D01*
X102874302Y-127248073D01*
X102695673Y-127426701D01*
X102599000Y-127660090D01*
X102599000Y-128364250D01*
X102757750Y-128523000D01*
X104123000Y-128523000D01*
X104123000Y-128503000D01*
X104377000Y-128503000D01*
X104377000Y-128523000D01*
X104397000Y-128523000D01*
X104397000Y-128777000D01*
X104377000Y-128777000D01*
X104377000Y-129989850D01*
X104535750Y-130148600D01*
X105392309Y-130148600D01*
X105625698Y-130051927D01*
X105804327Y-129873299D01*
X105901000Y-129639910D01*
X105901000Y-129435000D01*
X106149887Y-129435000D01*
X106305461Y-129435136D01*
X106540000Y-129338227D01*
X106540000Y-130690000D01*
X103500000Y-130690000D01*
X103431416Y-130703642D01*
X102978804Y-130779762D01*
X102906632Y-130809657D01*
X102762962Y-130869167D01*
X102521058Y-130626840D01*
X102164101Y-130478619D01*
X101777595Y-130478282D01*
X101420380Y-130625880D01*
X101335091Y-130711020D01*
X101251058Y-130626840D01*
X100894101Y-130478619D01*
X100507595Y-130478282D01*
X100150380Y-130625880D01*
X100065091Y-130711020D01*
X99981058Y-130626840D01*
X99624101Y-130478619D01*
X99237595Y-130478282D01*
X98880380Y-130625880D01*
X98636776Y-130869058D01*
X98493368Y-130809657D01*
X98421196Y-130779762D01*
X98038513Y-130703642D01*
X97968584Y-130703642D01*
X97900000Y-130690000D01*
X90150000Y-130690000D01*
X90081416Y-130703642D01*
X89628804Y-130779762D01*
X89556632Y-130809657D01*
X89412962Y-130869167D01*
X89171058Y-130626840D01*
X88814101Y-130478619D01*
X88601451Y-130478434D01*
X88928943Y-130343117D01*
X89192192Y-130080327D01*
X89334838Y-129736799D01*
X89335162Y-129364833D01*
X89193117Y-129021057D01*
X89111200Y-128938997D01*
X89111200Y-128935750D01*
X102599000Y-128935750D01*
X102599000Y-129639910D01*
X102695673Y-129873299D01*
X102874302Y-130051927D01*
X103107691Y-130148600D01*
X103964250Y-130148600D01*
X104123000Y-129989850D01*
X104123000Y-128777000D01*
X102757750Y-128777000D01*
X102599000Y-128935750D01*
X89111200Y-128935750D01*
X89111200Y-120911609D01*
X89116892Y-120905927D01*
X89259538Y-120562399D01*
X89259862Y-120190433D01*
X89117817Y-119846657D01*
X88855027Y-119583408D01*
X88511499Y-119440762D01*
X88139533Y-119440438D01*
X87795757Y-119582483D01*
X87532508Y-119845273D01*
X87389862Y-120188801D01*
X87389538Y-120560767D01*
X87531583Y-120904543D01*
X87688800Y-121062035D01*
X87688800Y-128938822D01*
X87607808Y-129019673D01*
X87465162Y-129363201D01*
X87464838Y-129735167D01*
X87606883Y-130078943D01*
X87869673Y-130342192D01*
X88213201Y-130484838D01*
X88411311Y-130485011D01*
X88070380Y-130625880D01*
X87985091Y-130711020D01*
X87901058Y-130626840D01*
X87544101Y-130478619D01*
X87157595Y-130478282D01*
X86800380Y-130625880D01*
X86715091Y-130711020D01*
X86631058Y-130626840D01*
X86274101Y-130478619D01*
X85887595Y-130478282D01*
X85530380Y-130625880D01*
X85286776Y-130869058D01*
X85143368Y-130809657D01*
X85071196Y-130779762D01*
X84688513Y-130703642D01*
X84618584Y-130703642D01*
X84550000Y-130690000D01*
X83260000Y-130690000D01*
X83260000Y-114310000D01*
X84550000Y-114310000D01*
X84618584Y-114296358D01*
X84688513Y-114296358D01*
X85071196Y-114220238D01*
X85146160Y-114189187D01*
X85287039Y-114130833D01*
X85528942Y-114373160D01*
X85528942Y-114373160D01*
G37*
X85528942Y-114373160D02*
X85885899Y-114521381D01*
X86272405Y-114521718D01*
X86629620Y-114374120D01*
X86714909Y-114288980D01*
X86798942Y-114373160D01*
X87155899Y-114521381D01*
X87542405Y-114521718D01*
X87899620Y-114374120D01*
X87984909Y-114288980D01*
X88068942Y-114373160D01*
X88425899Y-114521381D01*
X88812405Y-114521718D01*
X89169620Y-114374120D01*
X89413224Y-114130942D01*
X89478877Y-114158136D01*
X89628804Y-114220238D01*
X90011486Y-114296358D01*
X90081416Y-114296358D01*
X90150000Y-114310000D01*
X106540000Y-114310000D01*
X106540000Y-116849454D01*
X106502148Y-116659161D01*
X106337401Y-116412599D01*
X105923632Y-115998830D01*
X105933345Y-115950000D01*
X105819271Y-115376511D01*
X105494415Y-114890330D01*
X105008234Y-114565474D01*
X104434745Y-114451400D01*
X104065255Y-114451400D01*
X103491766Y-114565474D01*
X103005585Y-114890330D01*
X102680729Y-115376511D01*
X102566655Y-115950000D01*
X102651968Y-116378900D01*
X98604000Y-116378900D01*
X98394836Y-116420506D01*
X98202233Y-116420338D01*
X97858457Y-116562383D01*
X97595208Y-116825173D01*
X97452562Y-117168701D01*
X97452238Y-117540667D01*
X97530469Y-117730000D01*
X97407400Y-117730000D01*
X97116561Y-117787852D01*
X96869999Y-117952599D01*
X95622120Y-119200478D01*
X95576633Y-119200438D01*
X95232857Y-119342483D01*
X94969608Y-119605273D01*
X94826962Y-119948801D01*
X94826638Y-120320767D01*
X94968683Y-120664543D01*
X95231473Y-120927792D01*
X95575001Y-121070438D01*
X95946967Y-121070762D01*
X96290743Y-120928717D01*
X96553992Y-120665927D01*
X96696638Y-120322399D01*
X96696679Y-120275523D01*
X97722202Y-119250000D01*
X98628088Y-119250000D01*
X98343757Y-119367483D01*
X98080508Y-119630273D01*
X97937862Y-119973801D01*
X97937538Y-120345767D01*
X98079583Y-120689543D01*
X98342373Y-120952792D01*
X98685901Y-121095438D01*
X98732777Y-121095479D01*
X99501899Y-121864601D01*
X99748461Y-122029348D01*
X100039300Y-122087200D01*
X103003935Y-122087200D01*
X103005585Y-122089670D01*
X103320366Y-122300000D01*
X103005585Y-122510330D01*
X102680729Y-122996511D01*
X102566655Y-123570000D01*
X102680729Y-124143489D01*
X103005585Y-124629670D01*
X103320366Y-124840000D01*
X103005585Y-125050330D01*
X102805352Y-125350000D01*
X98340302Y-125350000D01*
X93010122Y-120019820D01*
X93010162Y-119974333D01*
X92868117Y-119630557D01*
X92605327Y-119367308D01*
X92261799Y-119224662D01*
X91889833Y-119224338D01*
X91546057Y-119366383D01*
X91282808Y-119629173D01*
X91140162Y-119972701D01*
X91139838Y-120344667D01*
X91281883Y-120688443D01*
X91544673Y-120951692D01*
X91888201Y-121094338D01*
X91935077Y-121094379D01*
X97488099Y-126647401D01*
X97734661Y-126812148D01*
X98025500Y-126870000D01*
X102805352Y-126870000D01*
X103005585Y-127169670D01*
X103027780Y-127184500D01*
X102874302Y-127248073D01*
X102695673Y-127426701D01*
X102599000Y-127660090D01*
X102599000Y-128364250D01*
X102757750Y-128523000D01*
X104123000Y-128523000D01*
X104123000Y-128503000D01*
X104377000Y-128503000D01*
X104377000Y-128523000D01*
X104397000Y-128523000D01*
X104397000Y-128777000D01*
X104377000Y-128777000D01*
X104377000Y-129989850D01*
X104535750Y-130148600D01*
X105392309Y-130148600D01*
X105625698Y-130051927D01*
X105804327Y-129873299D01*
X105901000Y-129639910D01*
X105901000Y-129435000D01*
X106149887Y-129435000D01*
X106305461Y-129435136D01*
X106540000Y-129338227D01*
X106540000Y-130690000D01*
X103500000Y-130690000D01*
X103431416Y-130703642D01*
X102978804Y-130779762D01*
X102906632Y-130809657D01*
X102762962Y-130869167D01*
X102521058Y-130626840D01*
X102164101Y-130478619D01*
X101777595Y-130478282D01*
X101420380Y-130625880D01*
X101335091Y-130711020D01*
X101251058Y-130626840D01*
X100894101Y-130478619D01*
X100507595Y-130478282D01*
X100150380Y-130625880D01*
X100065091Y-130711020D01*
X99981058Y-130626840D01*
X99624101Y-130478619D01*
X99237595Y-130478282D01*
X98880380Y-130625880D01*
X98636776Y-130869058D01*
X98493368Y-130809657D01*
X98421196Y-130779762D01*
X98038513Y-130703642D01*
X97968584Y-130703642D01*
X97900000Y-130690000D01*
X90150000Y-130690000D01*
X90081416Y-130703642D01*
X89628804Y-130779762D01*
X89556632Y-130809657D01*
X89412962Y-130869167D01*
X89171058Y-130626840D01*
X88814101Y-130478619D01*
X88601451Y-130478434D01*
X88928943Y-130343117D01*
X89192192Y-130080327D01*
X89334838Y-129736799D01*
X89335162Y-129364833D01*
X89193117Y-129021057D01*
X89111200Y-128938997D01*
X89111200Y-128935750D01*
X102599000Y-128935750D01*
X102599000Y-129639910D01*
X102695673Y-129873299D01*
X102874302Y-130051927D01*
X103107691Y-130148600D01*
X103964250Y-130148600D01*
X104123000Y-129989850D01*
X104123000Y-128777000D01*
X102757750Y-128777000D01*
X102599000Y-128935750D01*
X89111200Y-128935750D01*
X89111200Y-120911609D01*
X89116892Y-120905927D01*
X89259538Y-120562399D01*
X89259862Y-120190433D01*
X89117817Y-119846657D01*
X88855027Y-119583408D01*
X88511499Y-119440762D01*
X88139533Y-119440438D01*
X87795757Y-119582483D01*
X87532508Y-119845273D01*
X87389862Y-120188801D01*
X87389538Y-120560767D01*
X87531583Y-120904543D01*
X87688800Y-121062035D01*
X87688800Y-128938822D01*
X87607808Y-129019673D01*
X87465162Y-129363201D01*
X87464838Y-129735167D01*
X87606883Y-130078943D01*
X87869673Y-130342192D01*
X88213201Y-130484838D01*
X88411311Y-130485011D01*
X88070380Y-130625880D01*
X87985091Y-130711020D01*
X87901058Y-130626840D01*
X87544101Y-130478619D01*
X87157595Y-130478282D01*
X86800380Y-130625880D01*
X86715091Y-130711020D01*
X86631058Y-130626840D01*
X86274101Y-130478619D01*
X85887595Y-130478282D01*
X85530380Y-130625880D01*
X85286776Y-130869058D01*
X85143368Y-130809657D01*
X85071196Y-130779762D01*
X84688513Y-130703642D01*
X84618584Y-130703642D01*
X84550000Y-130690000D01*
X83260000Y-130690000D01*
X83260000Y-114310000D01*
X84550000Y-114310000D01*
X84618584Y-114296358D01*
X84688513Y-114296358D01*
X85071196Y-114220238D01*
X85146160Y-114189187D01*
X85287039Y-114130833D01*
X85528942Y-114373160D01*
G36*
X122469000Y-128936469D02*
X122438697Y-128948990D01*
X122045371Y-129341630D01*
X121832243Y-129854900D01*
X121831758Y-130410661D01*
X121947178Y-130690000D01*
X120110000Y-130690000D01*
X120110000Y-130140676D01*
X120481302Y-130273144D01*
X121036368Y-130245362D01*
X121420143Y-130086397D01*
X121489608Y-129844213D01*
X120689000Y-129043605D01*
X120674858Y-129057748D01*
X120495253Y-128878143D01*
X120509395Y-128864000D01*
X120868605Y-128864000D01*
X121669213Y-129664608D01*
X121911397Y-129595143D01*
X122098144Y-129071698D01*
X122070362Y-128516632D01*
X121911397Y-128132857D01*
X121669213Y-128063392D01*
X120868605Y-128864000D01*
X120509395Y-128864000D01*
X120495253Y-128849858D01*
X120674858Y-128670253D01*
X120689000Y-128684395D01*
X121489608Y-127883787D01*
X121420143Y-127641603D01*
X121296656Y-127597547D01*
X121420143Y-127546397D01*
X121489608Y-127304213D01*
X120689000Y-126503605D01*
X120674858Y-126517748D01*
X120495253Y-126338143D01*
X120509395Y-126324000D01*
X120868605Y-126324000D01*
X121669213Y-127124608D01*
X121911397Y-127055143D01*
X122098144Y-126531698D01*
X122070362Y-125976632D01*
X121911397Y-125592857D01*
X121669213Y-125523392D01*
X120868605Y-126324000D01*
X120509395Y-126324000D01*
X120495253Y-126309858D01*
X120674858Y-126130253D01*
X120689000Y-126144395D01*
X121489608Y-125343787D01*
X121420143Y-125101603D01*
X121279682Y-125051491D01*
X121479303Y-124969010D01*
X121872629Y-124576370D01*
X121886070Y-124544000D01*
X121959000Y-124544000D01*
X122249839Y-124486148D01*
X122469000Y-124339710D01*
X122469000Y-128936469D01*
X122469000Y-128936469D01*
G37*
X122469000Y-128936469D02*
X122438697Y-128948990D01*
X122045371Y-129341630D01*
X121832243Y-129854900D01*
X121831758Y-130410661D01*
X121947178Y-130690000D01*
X120110000Y-130690000D01*
X120110000Y-130140676D01*
X120481302Y-130273144D01*
X121036368Y-130245362D01*
X121420143Y-130086397D01*
X121489608Y-129844213D01*
X120689000Y-129043605D01*
X120674858Y-129057748D01*
X120495253Y-128878143D01*
X120509395Y-128864000D01*
X120868605Y-128864000D01*
X121669213Y-129664608D01*
X121911397Y-129595143D01*
X122098144Y-129071698D01*
X122070362Y-128516632D01*
X121911397Y-128132857D01*
X121669213Y-128063392D01*
X120868605Y-128864000D01*
X120509395Y-128864000D01*
X120495253Y-128849858D01*
X120674858Y-128670253D01*
X120689000Y-128684395D01*
X121489608Y-127883787D01*
X121420143Y-127641603D01*
X121296656Y-127597547D01*
X121420143Y-127546397D01*
X121489608Y-127304213D01*
X120689000Y-126503605D01*
X120674858Y-126517748D01*
X120495253Y-126338143D01*
X120509395Y-126324000D01*
X120868605Y-126324000D01*
X121669213Y-127124608D01*
X121911397Y-127055143D01*
X122098144Y-126531698D01*
X122070362Y-125976632D01*
X121911397Y-125592857D01*
X121669213Y-125523392D01*
X120868605Y-126324000D01*
X120509395Y-126324000D01*
X120495253Y-126309858D01*
X120674858Y-126130253D01*
X120689000Y-126144395D01*
X121489608Y-125343787D01*
X121420143Y-125101603D01*
X121279682Y-125051491D01*
X121479303Y-124969010D01*
X121872629Y-124576370D01*
X121886070Y-124544000D01*
X121959000Y-124544000D01*
X122249839Y-124486148D01*
X122469000Y-124339710D01*
X122469000Y-128936469D01*
G36*
X132385283Y-122878043D02*
X132629000Y-123122186D01*
X132629000Y-128936469D01*
X132598697Y-128948990D01*
X132205371Y-129341630D01*
X132125605Y-129533727D01*
X132071397Y-129402857D01*
X131829213Y-129333392D01*
X131028605Y-130134000D01*
X131042748Y-130148143D01*
X130863143Y-130327748D01*
X130849000Y-130313605D01*
X130834858Y-130327748D01*
X130655253Y-130148143D01*
X130669395Y-130134000D01*
X129868787Y-129333392D01*
X129626603Y-129402857D01*
X129576491Y-129543318D01*
X129494010Y-129343697D01*
X129304432Y-129153787D01*
X130048392Y-129153787D01*
X130849000Y-129954395D01*
X131649608Y-129153787D01*
X131580143Y-128911603D01*
X131056698Y-128724856D01*
X130501632Y-128752638D01*
X130117857Y-128911603D01*
X130048392Y-129153787D01*
X129304432Y-129153787D01*
X129101370Y-128950371D01*
X129069000Y-128936930D01*
X129069000Y-125905802D01*
X132300924Y-122673878D01*
X132385283Y-122878043D01*
X132385283Y-122878043D01*
G37*
X132385283Y-122878043D02*
X132629000Y-123122186D01*
X132629000Y-128936469D01*
X132598697Y-128948990D01*
X132205371Y-129341630D01*
X132125605Y-129533727D01*
X132071397Y-129402857D01*
X131829213Y-129333392D01*
X131028605Y-130134000D01*
X131042748Y-130148143D01*
X130863143Y-130327748D01*
X130849000Y-130313605D01*
X130834858Y-130327748D01*
X130655253Y-130148143D01*
X130669395Y-130134000D01*
X129868787Y-129333392D01*
X129626603Y-129402857D01*
X129576491Y-129543318D01*
X129494010Y-129343697D01*
X129304432Y-129153787D01*
X130048392Y-129153787D01*
X130849000Y-129954395D01*
X131649608Y-129153787D01*
X131580143Y-128911603D01*
X131056698Y-128724856D01*
X130501632Y-128752638D01*
X130117857Y-128911603D01*
X130048392Y-129153787D01*
X129304432Y-129153787D01*
X129101370Y-128950371D01*
X129069000Y-128936930D01*
X129069000Y-125905802D01*
X132300924Y-122673878D01*
X132385283Y-122878043D01*
G36*
X121832243Y-114614900D02*
X121831758Y-115170661D01*
X122043990Y-115684303D01*
X122436630Y-116077629D01*
X122949900Y-116290757D01*
X123505661Y-116291242D01*
X124019303Y-116079010D01*
X124412629Y-115686370D01*
X124426070Y-115654000D01*
X124494000Y-115654000D01*
X124584470Y-115636004D01*
X124788787Y-115694608D01*
X125589395Y-114894000D01*
X125575253Y-114879858D01*
X125754858Y-114700253D01*
X125769000Y-114714395D01*
X125783143Y-114700253D01*
X125962748Y-114879858D01*
X125948605Y-114894000D01*
X125962748Y-114908143D01*
X125783143Y-115087748D01*
X125769000Y-115073605D01*
X124968392Y-115874213D01*
X125037857Y-116116397D01*
X125561302Y-116303144D01*
X125838951Y-116289247D01*
X125227633Y-116900565D01*
X125197927Y-116870808D01*
X124854399Y-116728162D01*
X124482433Y-116727838D01*
X124138657Y-116869883D01*
X123875408Y-117132673D01*
X123732762Y-117476201D01*
X123732438Y-117848167D01*
X123874483Y-118191943D01*
X124137273Y-118455192D01*
X124480801Y-118597838D01*
X124852767Y-118598162D01*
X125196543Y-118456117D01*
X125229718Y-118423000D01*
X125540000Y-118423000D01*
X125830839Y-118365148D01*
X126077401Y-118200401D01*
X127999619Y-116278183D01*
X128029900Y-116290757D01*
X128377138Y-116291060D01*
X121774343Y-122893855D01*
X121481370Y-122600371D01*
X121400417Y-122566756D01*
X121391148Y-122520160D01*
X121362493Y-122477275D01*
X121479303Y-122429010D01*
X121872629Y-122036370D01*
X122085757Y-121523100D01*
X122086242Y-120967339D01*
X121874010Y-120453697D01*
X121481370Y-120060371D01*
X121449000Y-120046930D01*
X121449000Y-120011000D01*
X121434638Y-119938800D01*
X121428879Y-119909845D01*
X121479303Y-119889010D01*
X121872629Y-119496370D01*
X122085757Y-118983100D01*
X122086242Y-118427339D01*
X121874010Y-117913697D01*
X121481370Y-117520371D01*
X121408958Y-117490303D01*
X121433281Y-117368026D01*
X121479303Y-117349010D01*
X121872629Y-116956370D01*
X122085757Y-116443100D01*
X122086242Y-115887339D01*
X121874010Y-115373697D01*
X121481370Y-114980371D01*
X120968100Y-114767243D01*
X120412339Y-114766758D01*
X120110000Y-114891682D01*
X120110000Y-114310000D01*
X121958848Y-114310000D01*
X121832243Y-114614900D01*
X121832243Y-114614900D01*
G37*
X121832243Y-114614900D02*
X121831758Y-115170661D01*
X122043990Y-115684303D01*
X122436630Y-116077629D01*
X122949900Y-116290757D01*
X123505661Y-116291242D01*
X124019303Y-116079010D01*
X124412629Y-115686370D01*
X124426070Y-115654000D01*
X124494000Y-115654000D01*
X124584470Y-115636004D01*
X124788787Y-115694608D01*
X125589395Y-114894000D01*
X125575253Y-114879858D01*
X125754858Y-114700253D01*
X125769000Y-114714395D01*
X125783143Y-114700253D01*
X125962748Y-114879858D01*
X125948605Y-114894000D01*
X125962748Y-114908143D01*
X125783143Y-115087748D01*
X125769000Y-115073605D01*
X124968392Y-115874213D01*
X125037857Y-116116397D01*
X125561302Y-116303144D01*
X125838951Y-116289247D01*
X125227633Y-116900565D01*
X125197927Y-116870808D01*
X124854399Y-116728162D01*
X124482433Y-116727838D01*
X124138657Y-116869883D01*
X123875408Y-117132673D01*
X123732762Y-117476201D01*
X123732438Y-117848167D01*
X123874483Y-118191943D01*
X124137273Y-118455192D01*
X124480801Y-118597838D01*
X124852767Y-118598162D01*
X125196543Y-118456117D01*
X125229718Y-118423000D01*
X125540000Y-118423000D01*
X125830839Y-118365148D01*
X126077401Y-118200401D01*
X127999619Y-116278183D01*
X128029900Y-116290757D01*
X128377138Y-116291060D01*
X121774343Y-122893855D01*
X121481370Y-122600371D01*
X121400417Y-122566756D01*
X121391148Y-122520160D01*
X121362493Y-122477275D01*
X121479303Y-122429010D01*
X121872629Y-122036370D01*
X122085757Y-121523100D01*
X122086242Y-120967339D01*
X121874010Y-120453697D01*
X121481370Y-120060371D01*
X121449000Y-120046930D01*
X121449000Y-120011000D01*
X121434638Y-119938800D01*
X121428879Y-119909845D01*
X121479303Y-119889010D01*
X121872629Y-119496370D01*
X122085757Y-118983100D01*
X122086242Y-118427339D01*
X121874010Y-117913697D01*
X121481370Y-117520371D01*
X121408958Y-117490303D01*
X121433281Y-117368026D01*
X121479303Y-117349010D01*
X121872629Y-116956370D01*
X122085757Y-116443100D01*
X122086242Y-115887339D01*
X121874010Y-115373697D01*
X121481370Y-114980371D01*
X120968100Y-114767243D01*
X120412339Y-114766758D01*
X120110000Y-114891682D01*
X120110000Y-114310000D01*
X121958848Y-114310000D01*
X121832243Y-114614900D01*
G36*
X144903990Y-115684303D02*
X145296630Y-116077629D01*
X145329000Y-116091070D01*
X145329000Y-116474380D01*
X145222702Y-116430241D01*
X144671715Y-116429760D01*
X144162485Y-116640169D01*
X143772539Y-117029436D01*
X143676024Y-117261870D01*
X143580831Y-117031485D01*
X143191564Y-116641539D01*
X142682702Y-116430241D01*
X142131715Y-116429760D01*
X141622485Y-116640169D01*
X141232539Y-117029436D01*
X141021241Y-117538298D01*
X141020760Y-118089285D01*
X141231169Y-118598515D01*
X141620436Y-118988461D01*
X142129298Y-119199759D01*
X142680285Y-119200240D01*
X143189515Y-118989831D01*
X143579461Y-118600564D01*
X143675976Y-118368130D01*
X143771169Y-118598515D01*
X144160436Y-118988461D01*
X144669298Y-119199759D01*
X145220285Y-119200240D01*
X145329000Y-119155320D01*
X145329000Y-120586598D01*
X144626248Y-121289350D01*
X144557127Y-121220108D01*
X144213599Y-121077462D01*
X143841633Y-121077138D01*
X143497857Y-121219183D01*
X143464682Y-121252300D01*
X142444102Y-121252300D01*
X141813222Y-120621420D01*
X141813262Y-120575933D01*
X141671217Y-120232157D01*
X141408427Y-119968908D01*
X141064899Y-119826262D01*
X140692933Y-119825938D01*
X140349157Y-119967983D01*
X140085908Y-120230773D01*
X139951724Y-120553922D01*
X135688593Y-116290791D01*
X136205661Y-116291242D01*
X136719303Y-116079010D01*
X137112629Y-115686370D01*
X137126070Y-115654000D01*
X137244000Y-115654000D01*
X137269383Y-115648951D01*
X137283990Y-115684303D01*
X137676630Y-116077629D01*
X138189900Y-116290757D01*
X138745661Y-116291242D01*
X139259303Y-116079010D01*
X139652629Y-115686370D01*
X139672931Y-115637477D01*
X139756000Y-115654000D01*
X139811469Y-115654000D01*
X139823990Y-115684303D01*
X140216630Y-116077629D01*
X140729900Y-116290757D01*
X141285661Y-116291242D01*
X141799303Y-116079010D01*
X142192629Y-115686370D01*
X142278949Y-115478488D01*
X142363990Y-115684303D01*
X142756630Y-116077629D01*
X143269900Y-116290757D01*
X143825661Y-116291242D01*
X144339303Y-116079010D01*
X144732629Y-115686370D01*
X144818949Y-115478488D01*
X144903990Y-115684303D01*
X144903990Y-115684303D01*
G37*
X144903990Y-115684303D02*
X145296630Y-116077629D01*
X145329000Y-116091070D01*
X145329000Y-116474380D01*
X145222702Y-116430241D01*
X144671715Y-116429760D01*
X144162485Y-116640169D01*
X143772539Y-117029436D01*
X143676024Y-117261870D01*
X143580831Y-117031485D01*
X143191564Y-116641539D01*
X142682702Y-116430241D01*
X142131715Y-116429760D01*
X141622485Y-116640169D01*
X141232539Y-117029436D01*
X141021241Y-117538298D01*
X141020760Y-118089285D01*
X141231169Y-118598515D01*
X141620436Y-118988461D01*
X142129298Y-119199759D01*
X142680285Y-119200240D01*
X143189515Y-118989831D01*
X143579461Y-118600564D01*
X143675976Y-118368130D01*
X143771169Y-118598515D01*
X144160436Y-118988461D01*
X144669298Y-119199759D01*
X145220285Y-119200240D01*
X145329000Y-119155320D01*
X145329000Y-120586598D01*
X144626248Y-121289350D01*
X144557127Y-121220108D01*
X144213599Y-121077462D01*
X143841633Y-121077138D01*
X143497857Y-121219183D01*
X143464682Y-121252300D01*
X142444102Y-121252300D01*
X141813222Y-120621420D01*
X141813262Y-120575933D01*
X141671217Y-120232157D01*
X141408427Y-119968908D01*
X141064899Y-119826262D01*
X140692933Y-119825938D01*
X140349157Y-119967983D01*
X140085908Y-120230773D01*
X139951724Y-120553922D01*
X135688593Y-116290791D01*
X136205661Y-116291242D01*
X136719303Y-116079010D01*
X137112629Y-115686370D01*
X137126070Y-115654000D01*
X137244000Y-115654000D01*
X137269383Y-115648951D01*
X137283990Y-115684303D01*
X137676630Y-116077629D01*
X138189900Y-116290757D01*
X138745661Y-116291242D01*
X139259303Y-116079010D01*
X139652629Y-115686370D01*
X139672931Y-115637477D01*
X139756000Y-115654000D01*
X139811469Y-115654000D01*
X139823990Y-115684303D01*
X140216630Y-116077629D01*
X140729900Y-116290757D01*
X141285661Y-116291242D01*
X141799303Y-116079010D01*
X142192629Y-115686370D01*
X142278949Y-115478488D01*
X142363990Y-115684303D01*
X142756630Y-116077629D01*
X143269900Y-116290757D01*
X143825661Y-116291242D01*
X144339303Y-116079010D01*
X144732629Y-115686370D01*
X144818949Y-115478488D01*
X144903990Y-115684303D01*
M02*
