G04 #@! TF.FileFunction,Profile,NP*
%FSLAX46Y46*%
G04 Gerber Fmt 4.6, Leading zero omitted, Abs format (unit mm)*
G04 Created by KiCad (PCBNEW 4.0.0-stable) date Wednesday, February 03, 2016 'PMt' 01:26:16 PM*
%MOMM*%
G01*
G04 APERTURE LIST*
%ADD10C,0.100000*%
%ADD11C,0.150000*%
G04 APERTURE END LIST*
D10*
D11*
X152450000Y-111600000D02*
X152450000Y-101100000D01*
X151100000Y-111600000D02*
X152450000Y-111600000D01*
X82550000Y-101100000D02*
X82550000Y-111600000D01*
X152450000Y-101100000D02*
X82550000Y-101100000D01*
X152450000Y-136150000D02*
X82550000Y-136150000D01*
X152450000Y-133400000D02*
X152450000Y-136150000D01*
X152450000Y-133400000D02*
X151100000Y-133400000D01*
X90150000Y-113600000D02*
G75*
G02X90150000Y-111600000I0J1000000D01*
G01*
X84550000Y-113600000D02*
G75*
G03X84550000Y-111600000I0J1000000D01*
G01*
X84550000Y-111600000D02*
X82550000Y-111600000D01*
X84550000Y-113600000D02*
X82550000Y-113600000D01*
X109250000Y-113600000D02*
X109600000Y-113600000D01*
X109600000Y-113600000D02*
G75*
G03X109600000Y-111600000I0J1000000D01*
G01*
X117050000Y-113600000D02*
G75*
G02X117050000Y-111600000I0J1000000D01*
G01*
X117050000Y-113600000D02*
X117400000Y-113600000D01*
X109250000Y-117800000D02*
X109250000Y-113600000D01*
X109600000Y-111600000D02*
X90150000Y-111600000D01*
X107250000Y-117800000D02*
G75*
G03X109250000Y-117800000I1000000J0D01*
G01*
X107250000Y-131400000D02*
X107250000Y-126700000D01*
X107250000Y-126700000D02*
G75*
G02X109250000Y-126700000I1000000J0D01*
G01*
X103500000Y-133400000D02*
X109550000Y-133400000D01*
X97900000Y-133400000D02*
X90150000Y-133400000D01*
X90150000Y-131400000D02*
X97900000Y-131400000D01*
X82550000Y-133400000D02*
X82550000Y-136150000D01*
X84550000Y-133400000D02*
X82550000Y-133400000D01*
X82550000Y-131400000D02*
X82550000Y-113600000D01*
X84550000Y-131400000D02*
X82550000Y-131400000D01*
X103500000Y-131400000D02*
X107250000Y-131400000D01*
X84550000Y-133400000D02*
G75*
G03X84550000Y-131400000I0J1000000D01*
G01*
X90150000Y-133400000D02*
G75*
G02X90150000Y-131400000I0J1000000D01*
G01*
X97900000Y-133400000D02*
G75*
G03X97900000Y-131400000I0J1000000D01*
G01*
X103500000Y-133400000D02*
G75*
G02X103500000Y-131400000I0J1000000D01*
G01*
X109550000Y-133400000D02*
G75*
G03X109550000Y-131400000I0J1000000D01*
G01*
X109250000Y-131400000D02*
X109550000Y-131400000D01*
X109250000Y-131400000D02*
X109250000Y-126700000D01*
X107250000Y-113600000D02*
X107250000Y-117800000D01*
X107250000Y-113600000D02*
X90150000Y-113600000D01*
X117400000Y-133400000D02*
X117050000Y-133400000D01*
X117050000Y-131400000D02*
X117400000Y-131400000D01*
X117050000Y-133400000D02*
G75*
G02X117050000Y-131400000I0J1000000D01*
G01*
X123300000Y-111600000D02*
X117100000Y-111600000D01*
X117400000Y-115850000D02*
X117400000Y-113600000D01*
X119400000Y-115850000D02*
X119400000Y-113600000D01*
X123300000Y-113600000D02*
X119400000Y-113600000D01*
X123300000Y-113600000D02*
G75*
G03X123300000Y-111600000I0J1000000D01*
G01*
X152450000Y-131400000D02*
X151100000Y-131400000D01*
X152450000Y-113600000D02*
X152450000Y-131400000D01*
X151100000Y-113600000D02*
X152450000Y-113600000D01*
X151100000Y-113600000D02*
G75*
G02X151100000Y-111600000I0J1000000D01*
G01*
X143600000Y-111600000D02*
X141000000Y-111600000D01*
X141000000Y-113600000D02*
X143600000Y-113600000D01*
X143600000Y-113600000D02*
G75*
G03X143600000Y-111600000I0J1000000D01*
G01*
X141000000Y-113600000D02*
G75*
G02X141000000Y-111600000I0J1000000D01*
G01*
X133500000Y-111600000D02*
X130800000Y-111600000D01*
X130800000Y-113600000D02*
X133500000Y-113600000D01*
X133500000Y-113600000D02*
G75*
G03X133500000Y-111600000I0J1000000D01*
G01*
X130800000Y-113600000D02*
G75*
G02X130800000Y-111600000I0J1000000D01*
G01*
X151100000Y-133400000D02*
G75*
G02X151100000Y-131400000I0J1000000D01*
G01*
X117400000Y-115850000D02*
G75*
G03X119400000Y-115850000I1000000J0D01*
G01*
X117400000Y-124550000D02*
X117400000Y-131400000D01*
X123300000Y-133400000D02*
X117400000Y-133400000D01*
X119400000Y-124550000D02*
X119400000Y-131400000D01*
X123300000Y-131400000D02*
X119400000Y-131400000D01*
X117400000Y-124550000D02*
G75*
G02X119400000Y-124550000I1000000J0D01*
G01*
X123300000Y-133400000D02*
G75*
G03X123300000Y-131400000I0J1000000D01*
G01*
X133450000Y-133400000D02*
X130800000Y-133400000D01*
X130800000Y-131400000D02*
X133450000Y-131400000D01*
X133450000Y-133400000D02*
G75*
G03X133450000Y-131400000I0J1000000D01*
G01*
X130800000Y-133400000D02*
G75*
G02X130800000Y-131400000I0J1000000D01*
G01*
X141000000Y-131400000D02*
X143600000Y-131400000D01*
X141000000Y-133400000D02*
X143600000Y-133400000D01*
X141000000Y-133400000D02*
G75*
G02X141000000Y-131400000I0J1000000D01*
G01*
X143600000Y-133400000D02*
G75*
G03X143600000Y-131400000I0J1000000D01*
G01*
M02*
